<?xml version="1.0" encoding="UTF-8"?>
<svg width="50px" height="50px" viewBox="0 0 50 50" version="1.1" xmlns="http://www.w3.org/2000/svg" xmlns:xlink="http://www.w3.org/1999/xlink">
    <!-- Generator: Sketch 43.2 (39069) - http://www.bohemiancoding.com/sketch -->
    <title>github</title>
    <desc>Created with Sketch.</desc>
    <defs>
        <path d="M28.9207791,7.65801413 C27.5347261,5.30215519 25.6546337,3.43701839 23.2800071,2.06218299 C20.9050271,0.687277457 18.3122569,0 15.4998586,0 C12.6878138,0 10.0941954,0.687487826 7.71971013,2.06218299 C5.34487146,3.43694827 3.46484975,5.30215519 2.07879675,7.65801413 C0.692955813,10.0138029 0,12.5863426 0,15.3755629 C0,18.7260492 0.985392638,21.7388924 2.95667273,24.4148637 C4.92774076,27.0910454 7.47406885,28.9428588 10.5954449,29.9705143 C10.958782,30.0374118 11.2277503,29.9903591 11.4026328,29.8305484 C11.5775859,29.6705272 11.6649565,29.4701151 11.6649565,29.2301536 C11.6649565,29.1901132 11.6614928,28.8298904 11.6547774,28.1490642 C11.6478499,27.4682381 11.6445983,26.8742946 11.6445983,26.3675143 L11.1803893,26.4471742 C10.8844181,26.5009587 10.5110433,26.5237488 10.0602651,26.5172974 C9.60969887,26.5110565 9.14195546,26.4642142 8.65767103,26.3771212 C8.17317454,26.2907995 7.72253766,26.0905978 7.30540696,25.7769367 C6.88848832,25.4632757 6.59251709,25.0527043 6.41756395,24.5458539 L6.21574932,24.0851445 C6.08122979,23.7784256 5.86944813,23.437697 5.58012158,23.0642208 C5.29079504,22.6903941 4.99821683,22.4369688 4.7022456,22.3035244 L4.56094002,22.2031781 C4.46678342,22.1364909 4.37941288,22.0560596 4.29861634,21.9627256 C4.21789048,21.8693917 4.15745213,21.7759876 4.1170892,21.6824432 C4.07665558,21.5888288 4.11016176,21.5120439 4.21796117,21.451808 C4.32576058,21.3915722 4.52057709,21.3623308 4.80325895,21.3623308 L5.20674684,21.4221459 C5.47585658,21.4756499 5.80872702,21.6354607 6.20578229,21.9025599 C6.60262549,22.1694488 6.92885125,22.5164184 7.18453024,22.9433284 C7.49414429,23.4907101 7.86716559,23.9078029 8.30465447,24.1948171 C8.74178991,24.4818314 9.18253045,24.6250931 9.62645196,24.6250931 C10.0703735,24.6250931 10.4537859,24.5917144 10.7768307,24.5253078 C11.0995221,24.4585505 11.4022794,24.3582042 11.6849612,24.2248299 C11.80605,23.3301981 12.1357395,22.6429207 12.6737469,22.1625066 C11.906922,22.0825662 11.2175006,21.9621647 10.6051292,21.8020734 C9.99311133,21.6417718 9.36066456,21.3816147 8.70821305,21.020901 C8.0554081,20.6606781 7.51386628,20.2133622 7.08344621,19.6797247 C6.65295545,19.1458067 6.29965614,18.4448552 6.02404309,17.5775014 C5.74828866,16.7097969 5.61037611,15.7088584 5.61037611,14.5744053 C5.61037611,12.9591175 6.1419509,11.5845626 7.20488843,10.4499692 C6.70696119,9.2355757 6.7539688,7.87420395 7.34605264,6.36599422 C7.73625116,6.24573294 8.31490425,6.33598149 9.08172917,6.6361789 C9.84869546,6.93651655 10.410242,7.19379857 10.7669344,7.40711333 C11.1236267,7.62035797 11.4094189,7.80106545 11.6247349,7.94762294 C12.8762684,7.60072348 14.1678114,7.42723869 15.4997172,7.42723869 C16.8316231,7.42723869 18.1234489,7.60072348 19.375053,7.94762294 L20.1419486,7.46734916 C20.6663839,7.14688615 21.2856827,6.8532102 21.9983605,6.58625118 C22.7114624,6.31943242 23.2567507,6.24594331 23.6336599,6.36620459 C24.2388917,7.87448444 24.2928268,9.23578607 23.7947581,10.4501796 C24.857625,11.5847729 25.3894118,12.9596785 25.3894118,14.5746157 C25.3894118,15.7090688 25.2510045,16.7131628 24.9756742,17.587529 C24.6999904,18.4620354 24.3436515,19.1622856 23.9065161,19.6897523 C23.4688858,20.2171489 22.9238803,20.6609586 22.2714288,21.0211113 C21.6188359,21.3815446 20.986177,21.6417016 20.3741592,21.8020033 C19.7618585,21.9623049 19.0724371,22.0827766 18.3056122,22.1628572 C19.0050006,22.7632521 19.3547655,23.7109671 19.3547655,25.0055815 L19.3547655,29.2295926 C19.3547655,29.4695542 19.4388844,29.6698961 19.6072635,29.8299874 C19.7754306,29.9897982 20.041006,30.0368508 20.404343,29.9698832 C23.5261432,28.942368 26.0724713,27.0904844 28.0434686,24.4143027 C30.0142539,21.7383314 31,18.7254882 31,15.3750019 C30.9992931,12.5861322 30.3059839,10.0138029 28.9207791,7.65801413 Z" id="path-1"></path>
    </defs>
    <g id="icons" stroke="none" stroke-width="1" fill="none" fill-rule="evenodd">
        <g id="github">
            <g id="github-logo" transform="translate(10.000000, 10.000000)">
                <mask id="mask-2" fill="white">
                    <use xlink:href="#path-1"></use>
                </mask>
                <use id="Shape" fill="#444444" fill-rule="nonzero" xlink:href="#path-1"></use>
            </g>
        </g>
    </g>
</svg>