<?xml version="1.0" encoding="UTF-8"?>
<svg width="50px" height="50px" viewBox="0 0 50 50" version="1.1" xmlns="http://www.w3.org/2000/svg" xmlns:xlink="http://www.w3.org/1999/xlink">
    <!-- Generator: Sketch 43.2 (39069) - http://www.bohemiancoding.com/sketch -->
    <title>information</title>
    <desc>Created with Sketch.</desc>
    <defs></defs>
    <g id="icons" stroke="none" stroke-width="1" fill="none" fill-rule="evenodd">
        <g id="information">
            <rect id="Rectangle-3" stroke-opacity="0.752943841" stroke="#8A83AC" x="0.5" y="0.5" width="49" height="49" rx="4"></rect>
            <g id="cloud-computing" transform="translate(5.000000, 7.000000)">
                <path d="M33.7951724,10.9401709 C33.7158621,4.99213675 28.8344828,0 22.8165517,0 C18.9827586,0 15.3827586,2.05470085 13.3951724,5.01606838 C12.522069,4.43965812 11.4731034,4.1025641 10.3448276,4.1025641 C7.29793103,4.1025641 4.82758621,6.55179487 4.82758621,9.57264957 C4.82758621,9.67726496 4.83724138,9.7791453 4.84344828,9.88307692 C4.83655172,10.0075214 4.82758621,10.1333333 4.82758621,10.2564103 C2.07724138,11.5637607 0,14.671453 0,17.8837607 C0,22.3384615 3.67586207,25.982906 8.16896552,25.982906 L25.0703448,25.982906 C25.1655172,25.982906 25.257931,25.9719658 25.3517241,25.968547 C25.4462069,25.9719658 25.5386207,25.982906 25.6337931,25.982906 L32.3944828,25.982906 C36.5772414,25.982906 40,22.5894017 40,18.4423932 C40,14.7699145 37.3144828,11.597265 33.7951724,10.9401709 Z" id="Shape" stroke-opacity="0.752943841" stroke="#8A83AC" stroke-width="1.84615385" fill="#F2F2F2" fill-rule="nonzero" stroke-linecap="round"></path>
                <path d="M33.7951724,10.9401709 C33.7951724,10.9401709 32.0468966,10.6837607 30.3448276,10.9401709" id="Shape" stroke-opacity="0.752943841" stroke="#8A83AC" stroke-width="1.84615385" stroke-linecap="round" fill-rule="nonzero"></path>
                <path d="M4.82758621,9.57264957 C4.82758621,6.55179487 7.29793103,4.1025641 10.3448276,4.1025641 C13.3917241,4.1025641 15.862069,6.55179487 15.862069,9.57264957" id="Shape" fill-rule="nonzero"></path>
                <ellipse id="Oval" stroke-opacity="0.752943841" stroke="#8A83AC" stroke-width="1.84615385" fill="#FBFBFB" fill-rule="nonzero" stroke-linecap="round" cx="20.6896552" cy="23.9316239" rx="6.89655172" ry="6.83760684"></ellipse>
                <path d="M25.5662069,28.7664957 L32.4137931,35.5555556" id="Shape" stroke-opacity="0.752943841" stroke="#8A83AC" stroke-width="1.84615385" stroke-linecap="round"></path>
            </g>
        </g>
    </g>
</svg>