<?xml version="1.0" encoding="UTF-8"?>
<svg width="50px" height="50px" viewBox="0 0 50 50" version="1.1" xmlns="http://www.w3.org/2000/svg" xmlns:xlink="http://www.w3.org/1999/xlink">
    <!-- Generator: Sketch 43.2 (39069) - http://www.bohemiancoding.com/sketch -->
    <title>linkedin</title>
    <desc>Created with Sketch.</desc>
    <defs></defs>
    <g id="icons" stroke="none" stroke-width="1" fill="none" fill-rule="evenodd">
        <g id="linkedin" fill-rule="nonzero" fill="#444444">
            <g id="linkedin-logo" transform="translate(10.000000, 10.000000)">
                <path d="M27,0 L3,0 C1.35,0 0,1.35 0,3 L0,27 C0,28.65 1.35,30 3,30 L27,30 C28.65,30 30,28.65 30,27 L30,3 C30,1.35 28.65,0 27,0 Z M9,25.5 L4.5,25.5 L4.5,12 L9,12 L9,25.5 Z M6.75,9.45 C5.25,9.45 4.05,8.25 4.05,6.75 C4.05,5.25 5.25,4.05 6.75,4.05 C8.25,4.05 9.45,5.25 9.45,6.75 C9.45,8.25 8.25,9.45 6.75,9.45 Z M25.5,25.5 L21,25.5 L21,17.55 C21,16.3500588 19.95,15.3 18.75,15.3 C17.55,15.3 16.5,16.3500588 16.5,17.55 L16.5,25.5 L12,25.5 L12,12 L16.5,12 L16.5,13.8 C17.25,12.6 18.9,11.7 20.25,11.7 C23.1,11.7 25.5,14.1 25.5,16.95 L25.5,25.5 Z" id="Shape"></path>
            </g>
        </g>
    </g>
</svg>