<?xml version="1.0" encoding="UTF-8"?>
<svg width="50px" height="50px" viewBox="0 0 50 50" version="1.1" xmlns="http://www.w3.org/2000/svg" xmlns:xlink="http://www.w3.org/1999/xlink">
    <!-- Generator: Sketch 43.2 (39069) - http://www.bohemiancoding.com/sketch -->
    <title>uiux</title>
    <desc>Created with Sketch.</desc>
    <defs></defs>
    <g id="icons" stroke="none" stroke-width="1" fill="none" fill-rule="evenodd">
        <g id="uiux">
            <rect id="Rectangle-3" stroke-opacity="0.752943841" stroke="#8A83AC" x="0.5" y="0.5" width="49" height="49" rx="4"></rect>
            <g id="puzzle" transform="translate(9.000000, 10.000000)" fill-rule="nonzero">
                <path d="M17.0954687,29.2102188 L17.0954687,14.5984375 L4.63,14.5984375 L4.63,27.5733438 C4.63,28.4774688 5.36275,29.2102188 6.266875,29.2102188 L8.84528125,29.2102188 C9.18503125,29.2102188 9.38978125,28.8233125 9.18821875,28.5496563 C8.935,28.205875 8.7851875,27.781375 8.7851875,27.3213438 C8.7851875,26.13925 9.772375,25.187875 10.9670312,25.246375 C12.0264062,25.298125 12.8935,26.1715 12.9384062,27.2313438 C12.9594062,27.727 12.8064062,28.1855313 12.5354687,28.5520938 C12.334375,28.8240625 12.5422187,29.2102188 12.8806562,29.2102188 L17.0954687,29.2102188 Z" id="Shape" stroke-opacity="0.752943841" stroke="#8A83AC"></path>
                <path d="M10.8822813,14.5984375 L10.8822813,25.2466563 C10.9105938,25.2469375 10.9385313,25.2450625 10.967125,25.246375 C12.0265,25.2982188 12.8935938,26.1715 12.9385,27.2313438 C12.9595,27.727 12.8065,28.1855313 12.5355625,28.5520938 C12.3344688,28.8240625 12.5423125,29.2102188 12.8806563,29.2102188 L17.0954688,29.2102188 L17.0954688,14.5984375 L10.8822813,14.5984375 Z" id="Shape"></path>
                <path d="M12.9213438,4.56484375 L12.9213438,17.0303125 L25.89625,17.0303125 C26.800375,17.0303125 27.533125,16.297375 27.533125,15.3934375 L27.533125,12.8150313 C27.533125,12.4752813 27.1462188,12.2705313 26.8725625,12.4720938 C26.5287813,12.7253125 26.1042813,12.875125 25.64425,12.875125 C24.4621563,12.875125 23.5107813,11.888125 23.5692813,10.6932813 C23.6210313,9.63390625 24.4944063,8.7668125 25.55425,8.72190625 C26.0499063,8.70090625 26.5084375,8.85390625 26.875,9.12484375 C27.1469688,9.3259375 27.533125,9.11809375 27.533125,8.77965625 L27.533125,6.20171875 C27.533125,5.29759375 26.800375,4.56484375 25.89625,4.56484375 L12.9213438,4.56484375 L12.9213438,4.56484375 Z" id="Shape" stroke-opacity="0.752943841" stroke="#8A83AC"></path>
                <path d="M25.55425,8.72190625 C26.0499062,8.70090625 26.5084375,8.85390625 26.875,9.12484375 C27.1469687,9.3259375 27.533125,9.11809375 27.533125,8.77975 L27.533125,6.201625 C27.533125,5.2975 26.800375,4.56475 25.89625,4.56475 L21.2795312,4.56475 L21.2795312,17.0303125 L25.89625,17.0303125 C26.800375,17.0303125 27.533125,16.2975625 27.533125,15.3934375 L27.533125,12.8150313 C27.533125,12.4751875 27.1462187,12.2705313 26.8725625,12.4720938 C26.5287812,12.7253125 26.1042812,12.875125 25.64425,12.875125 C24.4621562,12.875125 23.5107812,11.8879375 23.5692812,10.6932813 C23.6212187,9.6338125 24.4945,8.76690625 25.55425,8.72190625 Z" id="Shape"></path>
                <path d="M15.1163125,8.72190625 C15.6119688,8.70090625 16.0705,8.85390625 16.4370625,9.12484375 C16.7090313,9.3259375 17.0951875,9.11809375 17.0951875,8.77965625 L17.0951875,6.20171875 C17.0951875,5.29759375 16.36225,4.56484375 15.4583125,4.56484375 L13.04125,4.56484375 C12.7231563,4.56484375 12.5164375,4.2221875 12.6729063,3.94534375 C12.8771875,3.5839375 12.9762813,3.15540625 12.9278125,2.7004375 C12.8258125,1.744 12.054625,0.968875 11.0986563,0.8633125 C9.8455,0.725125 8.7848125,1.7025625 8.7848125,2.92778125 C8.7848125,3.298 8.8819375,3.6450625 9.052,3.945625 C9.20846875,4.22228125 9.0015625,4.56465625 8.68365625,4.56465625 L6.2665,4.56465625 C5.362375,4.56465625 4.629625,5.29759375 4.629625,6.20153125 L4.629625,8.6944375 C4.629625,9.02725 4.26240625,9.22515625 3.9821875,9.045625 C3.62434375,8.81640625 3.19159375,8.6940625 2.7281875,8.72415625 C1.6871875,8.79184375 0.84146875,9.65359375 0.7916875,10.6953438 C0.73478125,11.8890625 1.68578125,12.87475 2.86684375,12.87475 C3.2816875,12.87475 3.66746875,12.7526875 3.991375,12.5429688 C4.2664375,12.36475 4.62971875,12.572875 4.62971875,12.900625 L4.62971875,15.3930625 C4.62971875,16.2971875 5.36246875,17.0299375 6.26659375,17.0299375 L15.4583125,17.0299375 C16.3624375,17.0299375 17.0951875,16.297 17.0951875,15.3930625 L17.0951875,12.8146563 C17.0951875,12.4749063 16.7082812,12.2701563 16.434625,12.4717188 C16.0908438,12.7249375 15.6663438,12.87475 15.2063125,12.87475 C14.0242188,12.87475 13.0728438,11.88775 13.1313438,10.6929063 C13.1831875,9.6338125 14.056375,8.76690625 15.1163125,8.72190625 Z" id="Shape" stroke-opacity="0.752943841" stroke="#8A83AC" fill="#D9D9D9"></path>
                <path d="M15.1163125,8.72190625 C15.6119688,8.70090625 16.0705,8.85390625 16.4370625,9.12484375 C16.7090313,9.3259375 17.0951875,9.11809375 17.0951875,8.77975 L17.0951875,6.201625 C17.0951875,5.2975 16.3624375,4.56475 15.4583125,4.56475 L13.04125,4.56475 C12.7231563,4.56475 12.5164375,4.22209375 12.6729063,3.94525 C12.8771875,3.58384375 12.9762813,3.15540625 12.9278125,2.70034375 C12.8258125,1.74390625 12.054625,0.96878125 11.0986563,0.86340625 C11.0258125,0.85534375 10.9537188,0.85196875 10.882375,0.8513125 L10.882375,17.0304062 L15.4584063,17.0304062 C16.3625313,17.0304062 17.0952813,16.2976562 17.0952813,15.3935312 L17.0952813,12.815125 C17.0952813,12.4752812 16.708375,12.270625 16.4347188,12.4721875 C16.0909375,12.7254062 15.6664375,12.8752187 15.2064063,12.8752187 C14.0243125,12.8752187 13.0729375,11.8880312 13.1314375,10.693375 C13.1831875,9.6338125 14.056375,8.76690625 15.1163125,8.72190625 Z" id="Shape"></path>
                <path d="M23.3393125,27.2313438 C23.3603125,27.727 23.2073125,28.1855313 22.936375,28.5520938 C22.7352812,28.8240625 22.943125,29.2102188 23.2815625,29.2102188 L25.8595,29.2102188 C26.763625,29.2102188 27.496375,28.4772813 27.496375,27.5733438 L27.496375,25.156375 C27.496375,24.8382813 27.8390312,24.6315625 28.115875,24.7880313 C28.4772813,24.9923125 28.9058125,25.0914063 29.3607812,25.0429375 C30.3172187,24.9409375 31.0923438,24.16975 31.1979062,23.2137813 C31.3360937,21.960625 30.3586562,20.8999375 29.1334375,20.8999375 C28.7632187,20.8999375 28.4161562,20.9970625 28.1155937,21.167125 C27.8389375,21.3235938 27.4965625,21.1166875 27.4965625,20.7987813 L27.4965625,18.3815313 C27.4965625,17.4774063 26.763625,16.7446563 25.8596875,16.7446563 L23.3664062,16.7446563 C23.0335937,16.7446563 22.8356875,16.3774375 23.0152187,16.0972188 C23.2445312,15.739375 23.3667812,15.306625 23.3366875,14.8432188 C23.269,13.8022188 22.40725,12.9565 21.3655,12.9067188 C20.1717812,12.8498125 19.1860937,13.8008125 19.1860937,14.981875 C19.1860937,15.3967188 19.3081562,15.7825 19.517875,16.1064063 C19.6960937,16.3814688 19.4879687,16.74475 19.1602187,16.74475 L16.6677812,16.74475 C15.7636562,16.74475 15.0309062,17.4776875 15.0309062,18.381625 L15.0309062,27.5733438 C15.0309062,28.4774688 15.7636562,29.2102188 16.6677812,29.2102188 L19.2461875,29.2102188 C19.5859375,29.2102188 19.7906875,28.8233125 19.589125,28.5496563 C19.3359062,28.205875 19.1860937,27.781375 19.1860937,27.3213438 C19.1860937,26.13925 20.1730937,25.187875 21.3679375,25.246375 C22.4273125,25.2982188 23.2944063,26.1715938 23.3393125,27.2313438 Z" id="Shape" stroke-opacity="0.752943841" stroke="#8A83AC" fill="#C5C5C5"></path>
                <path d="M29.13325,20.8998437 C28.7630313,20.8998437 28.4159688,20.9971562 28.1154063,21.167125 C27.83875,21.3236875 27.496375,21.1166875 27.496375,20.7987812 L27.496375,18.381625 C27.496375,17.4775 26.763625,16.74475 25.8595,16.74475 L23.3664063,16.74475 C23.0335938,16.74475 22.8356875,16.3775312 23.0152188,16.0973125 C23.2443438,15.7394687 23.3667813,15.3067187 23.3366875,14.8432187 C23.269,13.8022187 22.4074375,12.9565 21.3655,12.9067187 C21.354625,12.90625 21.3443125,12.9071875 21.3335313,12.9069062 L21.3335313,25.2466562 C21.3451563,25.2469375 21.3563125,25.246 21.368125,25.2464687 C22.4275,25.2983125 23.2945938,26.1715937 23.3395,27.2314375 C23.3605,27.7270937 23.2075,28.185625 22.9365625,28.5521875 C22.7354688,28.8241562 22.9433125,29.2103125 23.2816563,29.2103125 L25.8595938,29.2103125 C26.7637188,29.2103125 27.4964688,28.4775625 27.4964688,27.5734375 L27.4964688,25.1565625 C27.4964688,24.8384687 27.839125,24.6316562 28.1159688,24.7882187 C28.477375,24.9925 28.9059063,25.0915937 29.360875,25.043125 C30.3173125,24.941125 31.0924375,24.1699375 31.198,23.2139687 C31.3359063,21.9604375 30.3584688,20.8998437 29.13325,20.8998437 Z" id="Shape"></path>
            </g>
        </g>
    </g>
</svg>