<?xml version="1.0" encoding="UTF-8"?>
<svg width="50px" height="50px" viewBox="0 0 50 50" version="1.1" xmlns="http://www.w3.org/2000/svg" xmlns:xlink="http://www.w3.org/1999/xlink">
    <!-- Generator: Sketch 43.2 (39069) - http://www.bohemiancoding.com/sketch -->
    <title>branding</title>
    <desc>Created with Sketch.</desc>
    <defs>
        <polygon id="path-1" points="10.6994444 0.444444444 0.0666666667 0.444444444 0.0666666667 28.8911111 21.3322222 28.8911111 21.3322222 0.444444444 10.6994444 0.444444444"></polygon>
    </defs>
    <g id="icons" stroke="none" stroke-width="1" fill="none" fill-rule="evenodd">
        <g id="branding">
            <rect id="Rectangle-3" stroke="#BBBBBB" stroke-width="0.5" x="0.25" y="0.25" width="49.5" height="49.5" rx="2"></rect>
            <g id="coffee-cup" transform="translate(14.000000, 10.000000)">
                <mask id="mask-2" fill="white">
                    <use xlink:href="#path-1"></use>
                </mask>
                <g id="Clip-2"></g>
                <path d="M21.28,5.50111111 L21.2888889,5.49666667 L20.4033333,2.84 C20.1688889,2.03777778 18.6888889,0.444444444 10.6688889,0.444444444 C2.64777778,0.444444444 1.16777778,2.03777778 0.933333333,2.84 L0.0477777778,5.49666667 L0.0566666667,5.50111111 C0.0255555556,5.58777778 0,5.67888889 0,5.77888889 C0,6.69 0.716666667,7.38 1.80555556,7.90555556 L3.55888889,26.3077778 C3.56333333,26.33 3.57666667,26.3511111 3.58111111,26.3733333 C3.83222222,28.8122222 9.95222222,28.8911111 10.6688889,28.8911111 C11.38,28.8911111 17.5,28.8122222 17.7555556,26.3733333 C17.76,26.3511111 17.7733333,26.33 17.7733333,26.3077778 L19.5266667,7.90555556 C20.6166667,7.38 21.3322222,6.69 21.3322222,5.77888889 C21.3322222,5.67888889 21.3066667,5.58777778 21.28,5.50111111 Z M10.6688889,2.22444444 C14.6055556,2.22444444 17.1655556,2.71 18.2377778,3.10888889 C17.1655556,3.51333333 14.6055556,3.99888889 10.6688889,3.99888889 C6.72777778,3.99888889 4.16666667,3.51333333 3.09888889,3.10888889 C4.16666667,2.71 6.72777778,2.22444444 10.6688889,2.22444444 Z M16.0066667,26.1 C15.6511111,26.4644444 13.78,27.1111111 10.6688889,27.1111111 C7.55222222,27.1111111 5.68111111,26.4644444 5.32555556,26.1 L4.84333333,21.0611111 C6.91444444,21.7244444 9.83111111,21.7766667 10.6688889,21.7766667 C11.5022222,21.7766667 14.4188889,21.7244444 16.4888889,21.0655556 L16.0066667,26.1 Z M17.3477778,12.0288889 C16.3755556,12.4144444 14.0977778,12.8877778 10.6688889,12.8877778 C7.24,12.8877778 4.95666667,12.4144444 3.98444444,12.0288889 L3.65444444,8.55666667 C5.85888889,9.12888889 8.62444444,9.33333333 10.6688889,9.33333333 C12.7088889,9.33333333 15.4733333,9.12888889 17.6777778,8.55666667 L17.3477778,12.0288889 Z M10.6688889,7.55333333 C5.43,7.55333333 2.19222222,6.43444444 1.81,5.82666667 L2.21777778,4.59777778 C3.48555556,5.21888889 5.92888889,5.77888889 10.6688889,5.77888889 C15.4033333,5.77888889 17.8511111,5.21888889 19.1144444,4.59777778 L19.5177778,5.80444444 C19.0844444,6.45111111 15.8588889,7.55333333 10.6688889,7.55333333 Z" id="Fill-1" fill="#444444" mask="url(#mask-2)"></path>
            </g>
        </g>
    </g>
</svg>