<?xml version="1.0" encoding="UTF-8"?>
<svg width="50px" height="50px" viewBox="0 0 50 50" version="1.1" xmlns="http://www.w3.org/2000/svg" xmlns:xlink="http://www.w3.org/1999/xlink">
    <!-- Generator: Sketch 43.2 (39069) - http://www.bohemiancoding.com/sketch -->
    <title>business_analysis</title>
    <desc>Created with Sketch.</desc>
    <defs></defs>
    <g id="icons" stroke="none" stroke-width="1" fill="none" fill-rule="evenodd">
        <g id="business_analysis">
            <rect id="Rectangle-3" stroke="#BBBBBB" stroke-width="0.5" x="0.25" y="0.25" width="49.5" height="49.5" rx="2"></rect>
            <g id="presentation" transform="translate(10.000000, 10.000000)" fill-rule="nonzero" fill="#444444">
                <path d="M29.6111152,1.52326531 L16.1944121,1.52326531 L16.1944121,0.732918367 C16.1944121,0.345122449 15.8835039,0.0307346939 15.5,0.0307346939 C15.1164961,0.0307346939 14.8055879,0.345122449 14.8055879,0.732918367 L14.8055879,1.52326531 L1.38888477,1.52326531 C0.623027344,1.52326531 0,2.15326531 0,2.92769388 L0,4.23079592 C0,5.00516327 0.623027344,5.63522449 1.38888477,5.63522449 L1.57760937,5.63522449 L1.57760937,21.4185918 C1.57760937,22.1929592 2.20063672,22.8230204 2.96649414,22.8230204 L14.8055879,22.8230204 L14.8055879,24.8839592 L9.65952734,28.7008776 C9.35031445,28.9302857 9.28341016,29.3697551 9.5102793,29.6824286 C9.73720898,29.9951633 10.1717539,30.0626939 10.4809668,29.8333469 L14.8055879,26.6256735 L14.8055879,29.2671429 C14.8055879,29.6549388 15.1164961,29.9693265 15.5,29.9693265 C15.8835645,29.9693265 16.1944121,29.6549388 16.1944121,29.2671429 L16.1944121,26.6256735 L20.5190332,29.8333469 C20.642791,29.9251224 20.7866504,29.9693878 20.9292383,29.9693878 C21.1429082,29.9693878 21.3536719,29.8700204 21.4897207,29.6824898 C21.7165898,29.3698163 21.6497461,28.9303469 21.3404727,28.7009388 L16.1944121,24.8840204 L16.1944121,22.8230816 L28.0335059,22.8230816 C28.7993027,22.8230816 29.4223906,22.1930816 29.4223906,21.4186531 L29.4223906,5.63516327 L29.6111152,5.63516327 C30.3769121,5.63516327 31,5.00516327 31,4.23073469 L31,2.92769388 C31,2.15326531 30.3769727,1.52326531 29.6111152,1.52326531 Z M28.0335059,21.4184694 L2.96649414,21.4184694 L2.96649414,5.63516327 L28.0335664,5.63516327 L28.0335664,21.4184694 L28.0335059,21.4184694 Z M29.6111152,4.23073469 L1.38888477,4.23073469 L1.38888477,2.92769388 L29.6111758,2.92769388 L29.6111758,4.23073469 L29.6111152,4.23073469 Z" id="Shape"></path>
                <path d="M15.4868008,7.66861224 C15.141623,7.66861224 14.8618359,7.95153061 14.8618359,8.30057143 L14.8618359,13.1469184 L10.069127,13.1469184 C9.72394922,13.1469184 9.44416211,13.4298367 9.44416211,13.7788776 C9.44416211,17.1481224 12.1549063,19.8891429 15.4868613,19.8891429 C18.8188164,19.8891429 21.5296211,17.1480612 21.5296211,13.7788776 C21.5296211,10.4096939 18.8187559,7.66861224 15.4868008,7.66861224 Z M15.4868008,18.6252245 C13.0558438,18.6252245 11.041873,16.7856735 10.7346582,14.410898 L15.4868008,14.410898 C15.8319785,14.410898 16.1117656,14.1279796 16.1117656,13.7789388 L16.1117656,8.97361224 C18.4602578,9.28426531 20.2795098,11.3207755 20.2795098,13.7789388 C20.2795703,16.4512041 18.1295508,18.6252245 15.4868008,18.6252245 Z" id="Shape"></path>
                <path d="M13.3714746,7.01479592 C10.8495762,7.01479592 8.79782422,9.0897551 8.79782422,11.6401837 C8.79782422,11.9892245 9.07761133,12.2721429 9.42278906,12.2721429 L13.3714746,12.2721429 C13.7166523,12.2721429 13.9964395,11.9892245 13.9964395,11.6401837 L13.9964395,7.6467551 C13.9965,7.29771429 13.7167129,7.01479592 13.3714746,7.01479592 Z M12.7465098,11.0082245 L10.1067266,11.0082245 C10.3612051,9.6604898 11.4139336,8.59579592 12.7465098,8.33840816 L12.7465098,11.0082245 Z" id="Shape"></path>
            </g>
        </g>
    </g>
</svg>