<?xml version="1.0" encoding="UTF-8"?>
<svg width="50px" height="50px" viewBox="0 0 50 50" version="1.1" xmlns="http://www.w3.org/2000/svg" xmlns:xlink="http://www.w3.org/1999/xlink">
    <!-- Generator: Sketch 43.2 (39069) - http://www.bohemiancoding.com/sketch -->
    <title>development</title>
    <desc>Created with Sketch.</desc>
    <defs></defs>
    <g id="icons" stroke="none" stroke-width="1" fill="none" fill-rule="evenodd">
        <g id="development">
            <rect id="Rectangle-3" stroke="#BBBBBB" stroke-width="0.5" x="0.25" y="0.25" width="49.5" height="49.5" rx="2"></rect>
            <g id="computer" transform="translate(11.000000, 10.000000)" fill-rule="nonzero" fill="#444444">
                <path d="M10.206,19.1529231 L9.99370492,21.169 C9.97656831,21.3316923 10.0288962,21.494 10.1377596,21.6156154 C10.2465464,21.7372308 10.4016175,21.8066154 10.5643388,21.8066154 L16.631082,21.8066154 C16.7937268,21.8066154 16.9487978,21.7371538 17.0576612,21.6156154 C17.1664481,21.494 17.218776,21.3316923 17.2017158,21.169 L16.9894208,19.1529231 L24.5461311,19.1529231 C25.7222842,19.1529231 26.6791038,18.1908462 26.6791038,17.0082308 L26.6791038,2.14469231 C26.6790273,0.962076923 25.7221311,0 24.5460546,0 L2.19027322,0 C1.01412022,0 0.0573005464,0.962076923 0.0573005464,2.14469231 L0.0573005464,17.0082308 C0.0573005464,18.1908462 1.01412022,19.1529231 2.19027322,19.1529231 L10.206,19.1529231 Z M15.9932787,20.6528462 L11.2019891,20.6528462 L11.3598907,19.1529231 L15.8353005,19.1529231 L15.9932787,20.6528462 Z M2.19027322,1.15384615 L24.5460546,1.15384615 C25.0894536,1.15384615 25.5314863,1.59830769 25.5314863,2.14469231 L25.5314863,15.23 L1.20484153,15.23 L1.20484153,2.14469231 C1.20484153,1.59830769 1.64687432,1.15384615 2.19027322,1.15384615 Z M1.20484153,17.0082308 L1.20484153,16.3838462 L25.5314098,16.3838462 L25.5314098,17.0082308 C25.5314098,17.5546154 25.089377,17.9990769 24.5459781,17.9990769 L2.19027322,17.9990769 C1.64687432,17.9990769 1.20484153,17.5546154 1.20484153,17.0082308 Z" id="Shape"></path>
                <path d="M24.5302186,25.6827692 C24.6342623,25.5104615 24.641377,25.2960769 24.5488852,25.1172308 L23.4156503,22.925 C23.3168852,22.734 23.1206557,22.6141538 22.9065246,22.6141538 L3.82980328,22.6141538 C3.61574863,22.6141538 3.41944262,22.734 3.3206776,22.925 L2.18744262,25.1172308 C2.09502732,25.2960769 2.10206557,25.5104615 2.20610929,25.6827692 C2.31015301,25.8550769 2.49613115,25.9602308 2.69656831,25.9602308 L24.0397596,25.9602308 C24.2401967,25.9603077 24.4261749,25.8550769 24.5302186,25.6827692 Z M3.64145355,24.8064615 L4.17819672,23.7680769 L22.5580546,23.7680769 L23.0948743,24.8064615 L3.64145355,24.8064615 Z" id="Shape"></path>
                <path d="M25.5314863,26.9986154 L24.6134536,26.9986154 C23.2847541,26.9986154 22.203694,28.0855385 22.203694,29.4216154 C22.203694,29.7402308 22.4605902,29.9985385 22.7774645,29.9985385 L27.3673989,29.9985385 C27.6842732,29.9985385 27.9411694,29.7402308 27.9411694,29.4216154 C27.9412459,28.0856154 26.8602623,26.9986154 25.5314863,26.9986154 Z M23.4893989,28.8446923 C23.6986339,28.4341538 24.1239891,28.1524615 24.6134536,28.1524615 L25.5314863,28.1524615 C26.0209508,28.1524615 26.446306,28.4341538 26.6556175,28.8446923 L23.4893989,28.8446923 Z" id="Shape"></path>
            </g>
        </g>
    </g>
</svg>