<?xml version="1.0" encoding="UTF-8"?>
<svg width="50px" height="50px" viewBox="0 0 50 50" version="1.1" xmlns="http://www.w3.org/2000/svg" xmlns:xlink="http://www.w3.org/1999/xlink">
    <!-- Generator: Sketch 43.2 (39069) - http://www.bohemiancoding.com/sketch -->
    <title>machine_learning</title>
    <desc>Created with Sketch.</desc>
    <defs></defs>
    <g id="icons" stroke="none" stroke-width="1" fill="none" fill-rule="evenodd">
        <g id="machine_learning">
            <rect id="Rectangle-3" stroke="#BBBBBB" stroke-width="0.5" x="0.25" y="0.25" width="49.5" height="49.5" rx="2"></rect>
            <g id="cube-(1)" transform="translate(9.000000, 10.000000)" fill-rule="nonzero" fill="#444444">
                <path d="M16,5.97435897 C15.847619,5.97435897 15.7460317,6.07692308 15.7460317,6.23076923 L15.7460317,29.6923077 C15.7460317,29.8461538 15.847619,29.9487179 16,29.9487179 C16.152381,29.9487179 16.2539683,29.8205128 16.2539683,29.6923077 L16.2539683,6.23076923 C16.2539683,6.07692308 16.152381,5.97435897 16,5.97435897 Z" id="Shape"></path>
                <path d="M16,1.66666667 C15.847619,1.66666667 15.7460317,1.76923077 15.7460317,1.92307692 L15.7460317,3.94871795 C15.7460317,4.1025641 15.847619,4.20512821 16,4.20512821 C16.152381,4.20512821 16.2539683,4.07692308 16.2539683,3.94871795 L16.2539683,1.92307692 C16.2539683,1.76923077 16.152381,1.66666667 16,1.66666667 Z" id="Shape"></path>
                <path d="M6.24761905,11.9487179 C6.24761905,11.7948718 6.14603175,11.6923077 5.99365079,11.6923077 C5.84126984,11.6923077 5.73968254,11.7948718 5.73968254,11.9487179 L5.76507937,23.7948718 C5.76507937,23.9487179 5.86666667,24.0512821 6.01904762,24.0512821 C6.14603175,24.0512821 6.27301587,23.9487179 6.27301587,23.7948718 L6.24761905,11.9487179 Z" id="Shape"></path>
                <path d="M25.9809524,11.6666667 C25.8285714,11.6666667 25.7269841,11.7692308 25.7269841,11.9230769 L25.7269841,23.7948718 C25.7269841,23.9487179 25.8285714,24.0512821 25.9809524,24.0512821 C26.1079365,24.0512821 26.2349206,23.9230769 26.2349206,23.7948718 L26.2349206,11.9230769 C26.2349206,11.7692308 26.1333333,11.6666667 25.9809524,11.6666667 Z" id="Shape"></path>
                <path d="M16,0.0512820513 C15.4412698,0.0512820513 14.984127,0.512820513 14.984127,1.07692308 C14.984127,1.64102564 15.4412698,2.1025641 16,2.1025641 C16.5587302,2.1025641 17.015873,1.64102564 17.015873,1.07692308 C17.015873,0.512820513 16.5587302,0.0512820513 16,0.0512820513 Z M16,1.58974359 C15.7206349,1.58974359 15.4920635,1.35897436 15.4920635,1.07692308 C15.4920635,0.794871795 15.7206349,0.564102564 16,0.564102564 C16.2793651,0.564102564 16.5079365,0.794871795 16.5079365,1.07692308 C16.5079365,1.35897436 16.2793651,1.58974359 16,1.58974359 Z" id="Shape"></path>
                <path d="M0.99047619,25.8205128 C0.457142857,25.8205128 0,26.2820513 0,26.8205128 C0,27.3589744 0.431746032,27.8205128 0.99047619,27.8205128 C1.54920635,27.8205128 1.98095238,27.3589744 1.98095238,26.8205128 C1.98095238,26.2820513 1.54920635,25.8205128 0.99047619,25.8205128 Z M0.99047619,27.3076923 C0.736507937,27.3076923 0.507936508,27.0769231 0.507936508,26.8205128 C0.507936508,26.5641026 0.711111111,26.3333333 0.99047619,26.3333333 C1.26984127,26.3333333 1.47301587,26.5641026 1.47301587,26.8205128 C1.47301587,27.0769231 1.24444444,27.3076923 0.99047619,27.3076923 Z" id="Shape"></path>
                <path d="M23.2380952,13.5641026 C23.1619048,13.4358974 23.0095238,13.3846154 22.8825397,13.4615385 L5.89206349,23.5641026 C5.76507937,23.6410256 5.71428571,23.7948718 5.79047619,23.9230769 C5.84126984,24 5.94285714,24.0512821 6.01904762,24.0512821 C6.06984127,24.0512821 6.0952381,24.0512821 6.14603175,24.025641 L23.1365079,13.9230769 C23.2634921,13.8461538 23.3142857,13.6923077 23.2380952,13.5641026 Z" id="Shape"></path>
                <path d="M4.57142857,24.6923077 C4.4952381,24.5641026 4.34285714,24.5128205 4.21587302,24.5897436 L1.52380952,26.2051282 C1.3968254,26.2820513 1.34603175,26.4358974 1.42222222,26.5641026 C1.47301587,26.6410256 1.57460317,26.6923077 1.65079365,26.6923077 C1.67619048,26.6923077 1.72698413,26.6666667 1.77777778,26.6410256 L4.46984127,25.0512821 C4.5968254,24.974359 4.64761905,24.8205128 4.57142857,24.6923077 Z" id="Shape"></path>
                <path d="M26.0825397,23.5384615 L6.12063492,11.6923077 C5.99365079,11.6410256 5.81587302,11.6666667 5.76507937,11.7948718 C5.71428571,11.9230769 5.73968254,12.0769231 5.86666667,12.1538462 L25.8539683,24.025641 C25.9047619,24.0512821 25.9301587,24.0512821 25.9809524,24.0512821 C26.0571429,24.0512821 26.1333333,24 26.184127,23.8974359 C26.2349206,23.7692308 26.2095238,23.6153846 26.0825397,23.5384615 Z" id="Shape"></path>
                <path d="M26.2095238,23.6666667 C26.1333333,23.5384615 25.9809524,23.4871795 25.8539683,23.5641026 L15.8730159,29.4615385 C15.7460317,29.5384615 15.6952381,29.6923077 15.7714286,29.8205128 C15.8222222,29.8974359 15.9238095,29.9487179 16,29.9487179 C16.0507937,29.9487179 16.0761905,29.9230769 16.1269841,29.9230769 L26.1079365,24.025641 C26.2349206,23.9487179 26.2857143,23.7948718 26.2095238,23.6666667 Z" id="Shape"></path>
                <path d="M16.1269841,29.4615385 L6.14603175,23.5641026 C6.01904762,23.5128205 5.86666667,23.5384615 5.79047619,23.6666667 C5.73968254,23.7948718 5.76507937,23.9487179 5.89206349,24.025641 L15.8730159,29.9230769 C15.9238095,29.9487179 15.9492063,29.9487179 16,29.9487179 C16.0761905,29.9487179 16.1777778,29.8974359 16.2285714,29.8205128 C16.2793651,29.6923077 16.2539683,29.5384615 16.1269841,29.4615385 Z" id="Shape"></path>
                <path d="M16.1015873,27.1025641 L6.17142857,21.2051282 C6.04444444,21.1538462 5.86666667,21.1794872 5.81587302,21.3076923 C5.76507937,21.4358974 5.79047619,21.5897436 5.91746032,21.6666667 L15.847619,27.5641026 C15.8984127,27.5897436 15.9238095,27.5897436 15.9746032,27.5897436 C16.0507937,27.5897436 16.152381,27.5641026 16.2031746,27.4615385 C16.2539683,27.3333333 16.2285714,27.1794872 16.1015873,27.1025641 Z" id="Shape"></path>
                <path d="M16.1015873,24.7435897 L6.1968254,18.8461538 C6.06984127,18.7948718 5.91746032,18.8205128 5.84126984,18.9487179 C5.79047619,19.0769231 5.81587302,19.2307692 5.94285714,19.3076923 L15.847619,25.2051282 C15.8984127,25.2307692 15.9238095,25.2307692 15.9746032,25.2307692 C16.0507937,25.2307692 16.152381,25.1794872 16.2031746,25.1025641 C16.2539683,24.974359 16.2285714,24.8205128 16.1015873,24.7435897 Z" id="Shape"></path>
                <path d="M16.1015873,20.025641 L6.17142857,14.1025641 C6.04444444,14.0512821 5.89206349,14.0769231 5.81587302,14.2051282 C5.76507937,14.3333333 5.79047619,14.4871795 5.91746032,14.5641026 L15.847619,20.4871795 C15.8984127,20.5128205 15.9238095,20.5128205 15.9746032,20.5128205 C16.0507937,20.5128205 16.152381,20.4615385 16.2031746,20.3846154 C16.2539683,20.2564103 16.2285714,20.1025641 16.1015873,20.025641 Z" id="Shape"></path>
                <path d="M26.1079365,11.6666667 L16.1269841,5.97435897 C16,5.8974359 15.8222222,5.94871795 15.7714286,6.07692308 C15.7206349,6.20512821 15.7460317,6.35897436 15.8730159,6.43589744 L25.8539683,12.1538462 C25.9047619,12.1794872 25.9301587,12.1794872 25.9809524,12.1794872 C26.0571429,12.1794872 26.1333333,12.1282051 26.2095238,12.025641 C26.2603175,11.8974359 26.2349206,11.7435897 26.1079365,11.6666667 Z" id="Shape"></path>
                <path d="M16.2285714,6.1025641 C16.152381,5.97435897 16,5.92307692 15.8730159,6 L5.86666667,11.7179487 C5.73968254,11.7948718 5.68888889,11.9487179 5.76507937,12.0769231 C5.81587302,12.1538462 5.91746032,12.2051282 5.99365079,12.2051282 C6.04444444,12.2051282 6.0952381,12.1794872 6.12063492,12.1538462 L16.1269841,6.46153846 C16.2539683,6.38461538 16.3047619,6.23076923 16.2285714,6.1025641 Z" id="Shape"></path>
                <path d="M16.1015873,22.3846154 L6.14603175,16.4615385 C6.01904762,16.4102564 5.86666667,16.4358974 5.79047619,16.5641026 C5.73968254,16.6923077 5.76507937,16.8461538 5.89206349,16.9230769 L15.847619,22.8461538 C15.8984127,22.8717949 15.9238095,22.8717949 15.9746032,22.8717949 C16.0507937,22.8717949 16.152381,22.8205128 16.2031746,22.7435897 C16.2539683,22.6153846 16.2285714,22.4615385 16.1015873,22.3846154 Z" id="Shape"></path>
                <path d="M31.0095238,25.8205128 C30.4761905,25.8205128 30.0190476,26.2820513 30.0190476,26.8205128 C30.0190476,27.3589744 30.4507937,27.8205128 31.0095238,27.8205128 C31.5428571,27.8205128 32,27.3589744 32,26.8205128 C32,26.2820513 31.568254,25.8205128 31.0095238,25.8205128 Z M31.0095238,27.3076923 C30.7555556,27.3076923 30.5269841,27.0769231 30.5269841,26.8205128 C30.5269841,26.5641026 30.7301587,26.3333333 31.0095238,26.3333333 C31.2634921,26.3333333 31.4920635,26.5641026 31.4920635,26.8205128 C31.4920635,27.0769231 31.2634921,27.3076923 31.0095238,27.3076923 Z" id="Shape"></path>
                <path d="M30.4761905,26.2051282 L27.784127,24.5897436 C27.6571429,24.5384615 27.5047619,24.5641026 27.4285714,24.6923077 C27.3777778,24.8205128 27.4031746,24.974359 27.5301587,25.0512821 L30.2222222,26.6666667 C30.2730159,26.6923077 30.2984127,26.6923077 30.3492063,26.6923077 C30.4507937,26.6923077 30.5269841,26.6410256 30.5777778,26.5641026 C30.6285714,26.4358974 30.6031746,26.2820513 30.4761905,26.2051282 Z" id="Shape"></path>
            </g>
        </g>
    </g>
</svg>