<?xml version="1.0" encoding="UTF-8"?>
<svg width="50px" height="50px" viewBox="0 0 50 50" version="1.1" xmlns="http://www.w3.org/2000/svg" xmlns:xlink="http://www.w3.org/1999/xlink">
    <!-- Generator: Sketch 43.2 (39069) - http://www.bohemiancoding.com/sketch -->
    <title>project_consulting</title>
    <desc>Created with Sketch.</desc>
    <defs></defs>
    <g id="icons" stroke="none" stroke-width="1" fill="none" fill-rule="evenodd">
        <g id="project_consulting">
            <rect id="Rectangle-3" stroke="#BBBBBB" stroke-width="0.5" x="0.25" y="0.25" width="49.5" height="49.5" rx="2"></rect>
            <g id="consulting" transform="translate(8.000000, 10.000000)" fill-rule="nonzero" fill="#444444">
                <polygon id="Shape" points="29.8839844 19.2306164 29.1370898 20.0468493 30.7263086 21.5065068 30.7263086 22.3828082 24.8316113 22.3828082 24.8316113 21.5065068 26.4208301 20.0468493 25.6739355 19.2306164 23.7263086 21.0193836 23.7263086 23.490274 31.8316113 23.490274 31.8316113 21.0193836"></polygon>
                <path d="M29.4284375,14.2123288 C29.4284375,14.5321233 29.361377,14.7584247 29.2290332,14.8849315 C28.9496484,15.1521233 27.3920801,15.0786301 27.2332813,15.0786301 L27.2332813,16.1860274 C27.3661035,16.1860274 28.5800293,16.2132192 28.7367773,16.1975342 L28.7367773,17.3686301 C28.7367773,17.9147945 28.2932617,18.3591781 27.7481641,18.3591781 L27.7359277,18.3591781 C27.1908301,18.3591781 26.7473145,17.9147945 26.7473145,17.3686301 L26.7473145,16.2181507 L25.6420801,16.2181507 L25.6420801,17.3686301 C25.6420801,18.5254795 26.5814063,19.4666438 27.7359277,19.4666438 L27.7481641,19.4666438 C28.9027539,19.4666438 29.8420801,18.5254795 29.8420801,17.3686301 L29.8420801,15.8117808 C29.8936914,15.7732192 29.9440039,15.7319863 29.9919238,15.6860959 C30.3513574,15.3426027 30.5336719,14.8466438 30.5336719,14.2122603 L29.4284375,14.2122603 L29.4284375,14.2123288 Z" id="Shape"></path>
                <polygon id="Shape" points="9.25237305 16.3513014 8.50554688 17.1675342 10.0947656 18.6271918 10.0947656 19.5035616 4.2 19.5035616 4.2 18.6271918 5.78921875 17.1675342 5.04232422 16.3513014 3.09476563 18.1400685 3.09476563 20.6109589 11.2 20.6109589 11.2 18.1400685"></polygon>
                <path d="M8.79689453,11.3330137 C8.79689453,11.6528082 8.72983398,11.8791096 8.59749023,12.0056164 C8.31810547,12.2727397 6.76046875,12.1993151 6.60166992,12.1993151 L6.60166992,13.3067123 C6.73449219,13.3067123 7.94841797,13.3339041 8.10523438,13.3182192 L8.10523438,14.4893151 C8.10523438,15.0354795 7.66171875,15.479863 7.11662109,15.479863 L7.10431641,15.479863 C6.55928711,15.479863 6.11577148,15.0354795 6.11577148,14.4893151 L6.11577148,13.3388356 L5.01053711,13.3388356 L5.01053711,14.4893151 C5.01053711,15.6461644 5.94986328,16.5873288 7.10438477,16.5873288 L7.11668945,16.5873288 C8.27114258,16.5873288 9.21046875,15.6461644 9.21046875,14.4893151 L9.21046875,12.9324658 C9.26208008,12.8938356 9.31239258,12.8526712 9.36038086,12.8067808 C9.71981445,12.4632877 9.90206055,11.9673288 9.90206055,11.3329452 L8.79689453,11.3329452 L8.79689453,11.3330137 Z" id="Shape"></path>
                <polygon id="Shape" points="19.6049902 7.78719178 18.8581641 8.60342466 20.4473828 10.0630822 20.4473828 10.9394521 14.5526172 10.9394521 14.5526172 10.0630822 16.1418359 8.60342466 15.3950098 7.78719178 13.4473828 9.5759589 13.4473828 12.0468493 21.5526172 12.0468493 21.5526172 9.5759589"></polygon>
                <path d="M19.1495801,2.76890411 C19.1495801,3.08869863 19.0825195,3.315 18.9501758,3.44150685 C18.6708594,3.70863014 17.1132227,3.63520548 16.9544238,3.63520548 L16.9544238,4.74260274 C17.0872461,4.74260274 18.3012402,4.76979452 18.4580566,4.75410959 L18.4580566,5.92520548 C18.4580566,6.47136986 18.014541,6.91575342 17.4694434,6.91575342 L17.4571387,6.91575342 C16.912041,6.91575342 16.4685254,6.47136986 16.4685254,5.92520548 L16.4685254,4.77472603 L15.363291,4.77472603 L15.363291,5.92520548 C15.3632227,7.08205479 16.3025488,8.02321918 17.4570703,8.02321918 L17.469375,8.02321918 C18.6238281,8.02321918 19.563291,7.08205479 19.563291,5.92520548 L19.563291,4.36835616 C19.6149023,4.32979452 19.6652148,4.28856164 19.7131348,4.24267123 C20.0725684,3.89917808 20.2548828,3.40321918 20.2548828,2.76883562 L19.1495801,2.76883562 L19.1495801,2.76890411 Z" id="Shape"></path>
                <path d="M24.6842285,11.4931507 L24.6842285,0.0497260274 L10.3157715,0.0497260274 L10.3157715,8.61383562 L0,8.61383562 L0,23.010411 L5.59931641,23.010411 L9.85448242,26.8779452 L9.85448242,23.010411 L14.3683887,23.010411 L14.3683887,14.4463014 L15.0642187,14.4463014 L17.1732422,20.0841781 L19.282334,14.4463014 L20.6316113,14.4463014 L20.6316113,25.889726 L25.1455859,25.889726 L25.1455859,29.7572603 L29.4006836,25.889726 L35,25.889726 L35,11.4931507 L24.6842285,11.4931507 Z M13.2631543,21.9029452 L8.74924805,21.9029452 L8.74924805,24.3780137 L6.02594727,21.9029452 L1.10523438,21.9029452 L1.10523438,9.72130137 L10.3157715,9.72130137 L10.3157715,14.4463014 L13.2631543,14.4463014 L13.2631543,21.9029452 L13.2631543,21.9029452 Z M18.5161621,13.3388356 L17.1731738,16.9289041 L15.8301855,13.3388356 L11.4210059,13.3388356 L11.4210059,1.15719178 L23.5789258,1.15719178 L23.5789258,13.3389041 L18.5161621,13.3389041 L18.5161621,13.3388356 Z M33.8947656,24.7822603 L28.9741211,24.7822603 L26.2508203,27.2573288 L26.2508203,24.7822603 L21.7368457,24.7822603 L21.7368457,14.4463014 L24.6842285,14.4463014 L24.6842285,12.6006164 L33.8947656,12.6006164 L33.8947656,24.7822603 Z" id="Shape"></path>
                <g id="Group" transform="translate(13.876953, 28.835616)">
                    <rect id="Rectangle-path" x="0.0493554688" y="0.00719178082" width="1.10523437" height="1.10739726"></rect>
                    <rect id="Rectangle-path" x="6.09143555" y="0.00719178082" width="1.10523437" height="1.10739726"></rect>
                    <rect id="Rectangle-path" x="3.07042969" y="0.00719178082" width="1.10523437" height="1.10739726"></rect>
                </g>
            </g>
        </g>
    </g>
</svg>