<?xml version="1.0" encoding="UTF-8"?>
<svg width="50px" height="50px" viewBox="0 0 50 50" version="1.1" xmlns="http://www.w3.org/2000/svg" xmlns:xlink="http://www.w3.org/1999/xlink">
    <!-- Generator: Sketch 43.2 (39069) - http://www.bohemiancoding.com/sketch -->
    <title>branding</title>
    <desc>Created with Sketch.</desc>
    <defs></defs>
    <g id="icons" stroke="none" stroke-width="1" fill="none" fill-rule="evenodd">
        <g id="branding">
            <rect id="Rectangle-3" stroke-opacity="0.752943841" stroke="#8A83AC" x="0.5" y="0.5" width="49" height="49" rx="4"></rect>
            <g id="cube" transform="translate(6.000000, 5.000000)" fill-rule="nonzero">
                <g id="Group" transform="translate(1.796875, 2.578125)" fill="#BCBCBC">
                    <path d="M17.1875,35.546875 L16.5625,35.546875 L16.5625,35.0859375 L17.1875,35.0859375 L17.1875,35.546875 Z M17.1875,33.8359375 L16.5625,33.8359375 L16.5625,32.5859375 L17.1875,32.5859375 L17.1875,33.8359375 Z M17.1875,31.328125 L16.5625,31.328125 L16.5625,30.078125 L17.1875,30.078125 L17.1875,31.328125 Z M17.1875,28.828125 L16.5625,28.828125 L16.5625,27.578125 L17.1875,27.578125 L17.1875,28.828125 Z M17.1875,26.3203125 L16.5625,26.3203125 L16.5625,25.0703125 L17.1875,25.0703125 L17.1875,26.3203125 Z M17.1875,23.8203125 L16.5625,23.8203125 L16.5625,22.5703125 L17.1875,22.5703125 L17.1875,23.8203125 Z M17.1875,21.3125 L16.5625,21.3125 L16.5625,20.0625 L17.1875,20.0625 L17.1875,21.3125 Z M17.1875,18.8046875 L16.5625,18.8046875 L16.5625,17.5546875 L17.1875,17.5546875 L17.1875,18.8046875 Z M17.1875,16.3046875 L16.5625,16.3046875 L16.5625,15.0546875 L17.1875,15.0546875 L17.1875,16.3046875 Z M17.1875,13.796875 L16.5625,13.796875 L16.5625,12.546875 L17.1875,12.546875 L17.1875,13.796875 Z M17.1875,11.2890625 L16.5625,11.2890625 L16.5625,10.0390625 L17.1875,10.0390625 L17.1875,11.2890625 Z M17.1875,8.7890625 L16.5625,8.7890625 L16.5625,7.5390625 L17.1875,7.5390625 L17.1875,8.7890625 Z M17.1875,6.28125 L16.5625,6.28125 L16.5625,5.03125 L17.1875,5.03125 L17.1875,6.28125 Z M17.1875,3.7734375 L16.5625,3.7734375 L16.5625,2.5234375 L17.1875,2.5234375 L17.1875,3.7734375 Z M17.1875,1.2734375 L16.5625,1.2734375 L16.5625,0.0234375 L17.1875,0.0234375 L17.1875,1.2734375 Z" id="Shape"></path>
                    <path d="M1.4140625,7.8671875 L1.1328125,7.3125 L2.3203125,6.7109375 L2.6015625,7.265625 L1.4140625,7.8671875 Z M3.78125,6.6640625 L3.5,6.109375 L4.6875,5.5078125 L4.96875,6.0625 L3.78125,6.6640625 Z M6.15625,5.4609375 L5.875,4.90625 L7.0625,4.3046875 L7.34375,4.859375 L6.15625,5.4609375 Z M8.5234375,4.2578125 L8.2421875,3.703125 L9.4296875,3.1015625 L9.7109375,3.65625 L8.5234375,4.2578125 Z M10.8984375,3.0546875 L10.6171875,2.5 L11.8046875,1.8984375 L12.0859375,2.453125 L10.8984375,3.0546875 Z M13.265625,1.8515625 L12.984375,1.296875 L14.171875,0.6953125 L14.453125,1.25 L13.265625,1.8515625 Z M15.640625,0.6484375 L15.359375,0.09375 L15.4453125,0.046875 L15.7265625,0.6015625 L15.640625,0.6484375 Z" id="Shape"></path>
                    <path d="M30.984375,7.359375 L29.8046875,6.7421875 L30.09375,6.1875 L31.2734375,6.8046875 L30.984375,7.359375 Z M28.625,6.1328125 L27.4453125,5.515625 L27.734375,4.9609375 L28.9140625,5.578125 L28.625,6.1328125 Z M26.265625,4.90625 L25.0859375,4.2890625 L25.375,3.734375 L26.5546875,4.3515625 L26.265625,4.90625 Z M23.9140625,3.671875 L22.734375,3.0546875 L23.0234375,2.5 L24.203125,3.1171875 L23.9140625,3.671875 Z M21.5546875,2.4453125 L20.375,1.828125 L20.6640625,1.2734375 L21.84375,1.890625 L21.5546875,2.4453125 Z M19.1953125,1.2109375 L18.015625,0.59375 L18.3046875,0.0390625 L19.484375,0.65625 L19.1953125,1.2109375 Z" id="Shape"></path>
                    <path d="M18.90625,16.8359375 L18.59375,16.296875 L19.6171875,15.6953125 L19.9296875,16.234375 L18.90625,16.8359375 Z M20.953125,15.640625 L20.640625,15.1015625 L21.6640625,14.5 L21.9765625,15.0390625 L20.953125,15.640625 Z M23.0078125,14.4375 L22.6953125,13.8984375 L23.71875,13.296875 L24.03125,13.8359375 L23.0078125,14.4375 Z M25.0625,13.2421875 L24.75,12.703125 L25.7734375,12.1015625 L26.0859375,12.640625 L25.0625,13.2421875 Z M27.109375,12.046875 L26.796875,11.5078125 L27.8203125,10.90625 L28.1328125,11.4453125 L27.109375,12.046875 Z M29.1640625,10.8515625 L28.8515625,10.3125 L29.875,9.7109375 L30.1875,10.25 L29.1640625,10.8515625 Z M31.21875,9.6484375 L30.90625,9.109375 L31.9296875,8.5078125 L32.2421875,9.046875 L31.21875,9.6484375 Z" id="Shape"></path>
                    <path d="M15.875,17.3984375 L14.84375,16.8125 L15.1484375,16.265625 L16.1796875,16.8515625 L15.875,17.3984375 Z M13.8046875,16.2265625 L12.7734375,15.640625 L13.078125,15.09375 L14.109375,15.6796875 L13.8046875,16.2265625 Z M11.734375,15.0546875 L10.703125,14.46875 L11.0078125,13.921875 L12.0390625,14.5078125 L11.734375,15.0546875 Z M9.6640625,13.890625 L8.6328125,13.3046875 L8.9375,12.7578125 L9.96875,13.34375 L9.6640625,13.890625 Z M7.59375,12.71875 L6.5625,12.1328125 L6.8671875,11.5859375 L7.8984375,12.171875 L7.59375,12.71875 Z M5.53125,11.546875 L4.5,10.9609375 L4.8046875,10.4140625 L5.8359375,11 L5.53125,11.546875 Z M3.4609375,10.3828125 L2.4296875,9.796875 L2.734375,9.25 L3.765625,9.8359375 L3.4609375,10.3828125 Z M1.390625,9.2109375 L1.1171875,9.0546875 L1.421875,8.5078125 L1.6953125,8.6640625 L1.390625,9.2109375 Z" id="Shape"></path>
                    <path d="M33.6875,27.890625 L33.0625,27.890625 L33.0625,27.2109375 L33.6875,27.2109375 L33.6875,27.890625 Z M33.6875,26.0234375 L33.0625,26.0234375 L33.0625,24.8359375 L33.6875,24.8359375 L33.6875,26.0234375 Z M33.6875,23.6484375 L33.0625,23.6484375 L33.0625,22.4609375 L33.6875,22.4609375 L33.6875,23.6484375 Z M33.6875,21.2734375 L33.0625,21.2734375 L33.0625,20.0859375 L33.6875,20.0859375 L33.6875,21.2734375 Z M33.6875,18.8984375 L33.0625,18.8984375 L33.0625,17.7109375 L33.6875,17.7109375 L33.6875,18.8984375 Z M33.6875,16.515625 L33.0625,16.515625 L33.0625,15.328125 L33.6875,15.328125 L33.6875,16.515625 Z M33.6875,14.140625 L33.0625,14.140625 L33.0625,12.953125 L33.6875,12.953125 L33.6875,14.140625 Z M33.6875,11.765625 L33.0625,11.765625 L33.0625,10.578125 L33.6875,10.578125 L33.6875,11.765625 Z M33.6875,9.390625 L33.0625,9.390625 L33.0625,8.203125 L33.6875,8.203125 L33.6875,9.390625 Z" id="Shape"></path>
                    <path d="M0.6875,27.890625 L0.0625,27.890625 L0.0625,27.2109375 L0.6875,27.2109375 L0.6875,27.890625 Z M0.6875,26.0234375 L0.0625,26.0234375 L0.0625,24.8359375 L0.6875,24.8359375 L0.6875,26.0234375 Z M0.6875,23.6484375 L0.0625,23.6484375 L0.0625,22.4609375 L0.6875,22.4609375 L0.6875,23.6484375 Z M0.6875,21.2734375 L0.0625,21.2734375 L0.0625,20.0859375 L0.6875,20.0859375 L0.6875,21.2734375 Z M0.6875,18.8984375 L0.0625,18.8984375 L0.0625,17.7109375 L0.6875,17.7109375 L0.6875,18.8984375 Z M0.6875,16.515625 L0.0625,16.515625 L0.0625,15.328125 L0.6875,15.328125 L0.6875,16.515625 Z M0.6875,14.140625 L0.0625,14.140625 L0.0625,12.953125 L0.6875,12.953125 L0.6875,14.140625 Z M0.6875,11.765625 L0.0625,11.765625 L0.0625,10.578125 L0.6875,10.578125 L0.6875,11.765625 Z M0.6875,9.390625 L0.0625,9.390625 L0.0625,8.203125 L0.6875,8.203125 L0.6875,9.390625 Z" id="Shape"></path>
                    <path d="M2.1171875,25.3203125 L1.8359375,24.765625 L3.015625,24.1640625 L3.296875,24.71875 L2.1171875,25.3203125 Z M4.484375,24.1171875 L4.203125,23.5625 L5.3828125,22.9609375 L5.6640625,23.515625 L4.484375,24.1171875 Z M6.8515625,22.9140625 L6.5703125,22.359375 L7.75,21.7578125 L8.03125,22.3125 L6.8515625,22.9140625 Z M9.21875,21.7109375 L8.9375,21.15625 L10.1171875,20.5546875 L10.3984375,21.109375 L9.21875,21.7109375 Z M11.5859375,20.5078125 L11.3046875,19.953125 L12.484375,19.3515625 L12.765625,19.90625 L11.5859375,20.5078125 Z M13.953125,19.3125 L13.671875,18.75 L14.8515625,18.1484375 L15.1328125,18.703125 L13.953125,19.3125 Z" id="Shape"></path>
                    <path d="M31.3515625,25.3203125 L30.171875,24.71875 L30.453125,24.1640625 L31.6328125,24.765625 L31.3515625,25.3203125 Z M28.984375,24.1171875 L27.8046875,23.515625 L28.0859375,22.9609375 L29.265625,23.5625 L28.984375,24.1171875 Z M26.6171875,22.9140625 L25.4375,22.3125 L25.71875,21.7578125 L26.8984375,22.359375 L26.6171875,22.9140625 Z M24.25,21.7109375 L23.0703125,21.109375 L23.3515625,20.5546875 L24.53125,21.15625 L24.25,21.7109375 Z M21.8828125,20.5078125 L20.703125,19.90625 L20.984375,19.3515625 L22.1640625,19.953125 L21.8828125,20.5078125 Z M19.515625,19.3125 L18.3359375,18.7109375 L18.6171875,18.15625 L19.796875,18.7578125 L19.515625,19.3125 Z" id="Shape"></path>
                    <path d="M18.4609375,34.8984375 L18.1484375,34.359375 L19.1796875,33.7578125 L19.4921875,34.296875 L18.4609375,34.8984375 Z M20.515625,33.703125 L20.203125,33.1640625 L21.234375,32.5625 L21.546875,33.1015625 L20.515625,33.703125 Z M22.5703125,32.5 L22.2578125,31.9609375 L23.2890625,31.359375 L23.6015625,31.8984375 L22.5703125,32.5 Z M24.625,31.3046875 L24.3125,30.765625 L25.34375,30.1640625 L25.65625,30.703125 L24.625,31.3046875 Z M26.6875,30.1015625 L26.375,29.5625 L27.40625,28.9609375 L27.71875,29.5 L26.6875,30.1015625 Z M28.7421875,28.90625 L28.4296875,28.3671875 L29.4609375,27.765625 L29.7734375,28.3046875 L28.7421875,28.90625 Z M30.796875,27.703125 L30.484375,27.1640625 L31.515625,26.5625 L31.828125,27.1015625 L30.796875,27.703125 Z" id="Shape"></path>
                    <path d="M15.78125,35.203125 L14.75,34.609375 L15.0625,34.0703125 L16.09375,34.6640625 L15.78125,35.203125 Z M13.71875,34.0234375 L12.6875,33.4296875 L13,32.890625 L14.03125,33.484375 L13.71875,34.0234375 Z M11.6484375,32.8359375 L10.6171875,32.2421875 L10.9296875,31.703125 L11.9609375,32.296875 L11.6484375,32.8359375 Z M9.5859375,31.65625 L8.5546875,31.0625 L8.8671875,30.5234375 L9.8984375,31.1171875 L9.5859375,31.65625 Z M7.5234375,30.46875 L6.4921875,29.875 L6.8046875,29.3359375 L7.8359375,29.9296875 L7.5234375,30.46875 Z M5.453125,29.2890625 L4.421875,28.6953125 L4.734375,28.15625 L5.765625,28.75 L5.453125,29.2890625 Z M3.390625,28.1015625 L2.359375,27.5078125 L2.671875,26.96875 L3.703125,27.5625 L3.390625,28.1015625 Z M1.328125,26.921875 L1.1328125,26.8125 L1.4453125,26.2734375 L1.640625,26.3828125 L1.328125,26.921875 Z" id="Shape"></path>
                </g>
                <g id="Group" fill="#8A83AC" fill-opacity="0.752943841">
                    <circle id="Oval" cx="35.171875" cy="30.1875" r="2.125"></circle>
                    <circle id="Oval" cx="2.171875" cy="30.1875" r="2.125"></circle>
                    <circle id="Oval" cx="18.671875" cy="20.125" r="2.125"></circle>
                    <circle id="Oval" cx="18.671875" cy="2.125" r="2.125"></circle>
                    <circle id="Oval" cx="18.671875" cy="37.875" r="2.125"></circle>
                    <circle id="Oval" cx="2.171875" cy="10.5" r="2.125"></circle>
                    <circle id="Oval" cx="35.171875" cy="10.5" r="2.125"></circle>
                </g>
            </g>
        </g>
    </g>
</svg>