<?xml version="1.0" encoding="UTF-8"?>
<svg width="50px" height="50px" viewBox="0 0 50 50" version="1.1" xmlns="http://www.w3.org/2000/svg" xmlns:xlink="http://www.w3.org/1999/xlink">
    <!-- Generator: Sketch 43.2 (39069) - http://www.bohemiancoding.com/sketch -->
    <title>design</title>
    <desc>Created with Sketch.</desc>
    <defs></defs>
    <g id="icons" stroke="none" stroke-width="1" fill="none" fill-rule="evenodd">
        <g id="design">
            <rect id="Rectangle-3" stroke-opacity="0.752943841" stroke="#8A83AC" x="0.5" y="0.5" width="49" height="49" rx="4"></rect>
            <g id="mouse" transform="translate(13.000000, 5.000000)" fill-rule="nonzero">
                <path d="M11.5676471,39.4576271 C5.41311765,39.4576271 0.405882353,34.439322 0.405882353,28.2711864 L0.405882353,11.1864407 C0.405882353,5.01830508 5.41311765,0 11.5676471,0 C17.7221765,0 22.7294118,5.01830508 22.7294118,11.1864407 L22.7294118,28.2711864 C22.7294118,34.439322 17.7221765,39.4576271 11.5676471,39.4576271 Z" id="Shape" fill-opacity="0.752943841" fill="#8A83AC"></path>
                <path d="M11.5676471,37.4237288 L11.5676471,37.4237288 C6.54485294,37.4237288 2.43529412,33.3050847 2.43529412,28.2711864 L2.43529412,11.1864407 C2.43529412,6.15254237 6.54485294,2.03389831 11.5676471,2.03389831 L11.5676471,2.03389831 C16.5904412,2.03389831 20.7,6.15254237 20.7,11.1864407 L20.7,28.2711864 C20.7,33.3050847 16.5904412,37.4237288 11.5676471,37.4237288 Z" id="Shape" fill="#FFFFFF"></path>
                <path d="M20.6093529,9.97220339 C18.6340588,10.0372881 17.0470588,12.1925424 17.0470588,14.8474576 C17.0470588,17.5430508 18.6827647,19.7288136 20.7,19.7288136 L20.7,11.1864407 C20.7,10.7742373 20.6627941,10.3708475 20.6093529,9.97220339 Z" id="Shape" fill-opacity="0.752943841" fill="#8A83AC"></path>
                <path d="M2.52594118,9.97220339 C2.4725,10.3708475 2.43529412,10.7742373 2.43529412,11.1864407 L2.43529412,19.7288136 C4.45252941,19.7288136 6.08823529,17.5430508 6.08823529,14.8474576 C6.08823529,12.1925424 4.50123529,10.0372881 2.52594118,9.97220339 Z" id="Shape" fill-opacity="0.752943841" fill="#8A83AC"></path>
                <ellipse id="Oval" fill-opacity="0.752943841" fill="#8A83AC" cx="11.8720588" cy="10.8813559" rx="1.52205882" ry="1.52542373"></ellipse>
                <path d="M12.4551765,28.9050847 C12.1034118,28.6501695 11.8389118,28.2650847 11.7922353,27.8325424 C11.7787059,27.7084746 11.7807353,27.5877966 11.7956176,27.4711864 C11.8592059,26.9823729 11.3694412,26.5708475 10.9087647,26.7430508 C10.5752647,26.8677966 10.212,27.1084746 9.80679412,27.5294915 C9.42932353,27.9213559 9.19526471,28.4345763 9.2,28.9789831 C9.20947059,30.2576271 10.2471765,31.2908475 11.5250294,31.2908475 C12.3435588,31.2908475 13.0585882,30.8657627 13.4692059,30.2244068 C13.7303235,29.8162712 13.4800294,29.299661 13.0119118,29.1789831 C12.8353529,29.1328814 12.6506765,29.0467797 12.4551765,28.9050847 Z" id="Shape" fill-opacity="0.752943841" fill="#8A83AC"></path>
            </g>
        </g>
    </g>
</svg>