<?xml version="1.0" encoding="UTF-8"?>
<svg width="50px" height="50px" viewBox="0 0 50 50" version="1.1" xmlns="http://www.w3.org/2000/svg" xmlns:xlink="http://www.w3.org/1999/xlink">
    <!-- Generator: Sketch 43.2 (39069) - http://www.bohemiancoding.com/sketch -->
    <title>development</title>
    <desc>Created with Sketch.</desc>
    <defs></defs>
    <g id="icons" stroke="none" stroke-width="1" fill="none" fill-rule="evenodd">
        <g id="development">
            <rect id="Rectangle-3" stroke-opacity="0.752943841" stroke="#8A83AC" x="0.5" y="0.5" width="49" height="49" rx="4"></rect>
            <g id="writing-tool" transform="translate(5.000000, 16.000000)" fill-rule="nonzero">
                <path d="M38.6207031,18.9682823 L1.37929688,18.9682823 C0.6175,18.9682823 0,18.3627339 0,17.6156815 L0,1.38431855 C0,0.637266129 0.6175,0.0317177419 1.37929688,0.0317177419 L38.6207031,0.0317177419 C39.3825,0.0317177419 40,0.637266129 40,1.38431855 L40,17.6156815 C40,18.3627339 39.3825,18.9682823 38.6207031,18.9682823 Z" id="Shape" fill-opacity="0.752943841" fill="#8A83AC"></path>
                <g id="Group" transform="translate(2.343750, 1.991935)" fill="#FFFFFF">
                    <path d="M3.17351562,4.12652419 L0.41484375,4.12652419 C0.224375,4.12652419 0.07,3.9751371 0.07,3.78835484 L0.07,2.43575403 C0.07,2.24897177 0.224375,2.09758468 0.41484375,2.09758468 L3.1734375,2.09758468 C3.36390625,2.09758468 3.51828125,2.24897177 3.51828125,2.43575403 L3.51828125,3.78835484 C3.51828125,3.9751371 3.36390625,4.12652419 3.17351562,4.12652419 Z" id="Shape"></path>
                    <path d="M3.17351562,1.42132258 L0.41484375,1.42132258 C0.224375,1.42132258 0.07,1.26993548 0.07,1.08315323 L0.07,0.406814516 C0.07,0.220032258 0.224375,0.0686451613 0.41484375,0.0686451613 L3.1734375,0.0686451613 C3.36390625,0.0686451613 3.51828125,0.220032258 3.51828125,0.406814516 L3.51828125,1.08315323 C3.51828125,1.26985887 3.36390625,1.42132258 3.17351562,1.42132258 Z" id="Shape"></path>
                    <path d="M6.62179688,1.42132258 L4.5528125,1.42132258 C4.36234375,1.42132258 4.20796875,1.26993548 4.20796875,1.08315323 L4.20796875,0.406814516 C4.20796875,0.220032258 4.36234375,0.0686451613 4.5528125,0.0686451613 L6.62179688,0.0686451613 C6.81226563,0.0686451613 6.96664063,0.220032258 6.96664063,0.406814516 L6.96664063,1.08315323 C6.9665625,1.26985887 6.8121875,1.42132258 6.62179688,1.42132258 Z" id="Shape"></path>
                    <path d="M10.0700781,1.42132258 L8.00109375,1.42132258 C7.810625,1.42132258 7.65625,1.26993548 7.65625,1.08315323 L7.65625,0.406814516 C7.65625,0.220032258 7.810625,0.0686451613 8.00109375,0.0686451613 L10.0700781,0.0686451613 C10.2605469,0.0686451613 10.4149219,0.220032258 10.4149219,0.406814516 L10.4149219,1.08315323 C10.4148438,1.26985887 10.2604688,1.42132258 10.0700781,1.42132258 Z" id="Shape"></path>
                    <path d="M13.5182813,1.42132258 L11.4492969,1.42132258 C11.2588281,1.42132258 11.1044531,1.26993548 11.1044531,1.08315323 L11.1044531,0.406814516 C11.1044531,0.220032258 11.2588281,0.0686451613 11.4492969,0.0686451613 L13.5182813,0.0686451613 C13.70875,0.0686451613 13.863125,0.220032258 13.863125,0.406814516 L13.863125,1.08315323 C13.863125,1.26985887 13.70875,1.42132258 13.5182813,1.42132258 Z" id="Shape"></path>
                    <path d="M16.9665625,1.42132258 L14.8976562,1.42132258 C14.7071875,1.42132258 14.5528125,1.26993548 14.5528125,1.08315323 L14.5528125,0.406814516 C14.5528125,0.220032258 14.7071875,0.0686451613 14.8976562,0.0686451613 L16.9666406,0.0686451613 C17.1571094,0.0686451613 17.3114844,0.220032258 17.3114844,0.406814516 L17.3114844,1.08315323 C17.3114063,1.26985887 17.1570312,1.42132258 16.9665625,1.42132258 Z" id="Shape"></path>
                    <path d="M20.4148437,1.42132258 L18.3458594,1.42132258 C18.1553906,1.42132258 18.0010156,1.26993548 18.0010156,1.08315323 L18.0010156,0.406814516 C18.0010156,0.220032258 18.1553906,0.0686451613 18.3458594,0.0686451613 L20.4148437,0.0686451613 C20.6053125,0.0686451613 20.7596875,0.220032258 20.7596875,0.406814516 L20.7596875,1.08315323 C20.7596875,1.26985887 20.6053125,1.42132258 20.4148437,1.42132258 Z" id="Shape"></path>
                    <path d="M23.863125,1.42132258 L21.7941406,1.42132258 C21.6036719,1.42132258 21.4492969,1.26993548 21.4492969,1.08315323 L21.4492969,0.406814516 C21.4492969,0.220032258 21.6036719,0.0686451613 21.7941406,0.0686451613 L23.863125,0.0686451613 C24.0535938,0.0686451613 24.2079687,0.220032258 24.2079687,0.406814516 L24.2079687,1.08315323 C24.2079688,1.26985887 24.0535938,1.42132258 23.863125,1.42132258 Z" id="Shape"></path>
                    <path d="M27.3114063,1.42132258 L25.2424219,1.42132258 C25.0519531,1.42132258 24.8975781,1.26993548 24.8975781,1.08315323 L24.8975781,0.406814516 C24.8975781,0.220032258 25.0519531,0.0686451613 25.2424219,0.0686451613 L27.3114063,0.0686451613 C27.501875,0.0686451613 27.65625,0.220032258 27.65625,0.406814516 L27.65625,1.08315323 C27.65625,1.26985887 27.501875,1.42132258 27.3114063,1.42132258 Z" id="Shape"></path>
                    <path d="M30.7596875,1.42132258 L28.6907031,1.42132258 C28.5002344,1.42132258 28.3458594,1.26993548 28.3458594,1.08315323 L28.3458594,0.406814516 C28.3458594,0.220032258 28.5002344,0.0686451613 28.6907031,0.0686451613 L30.7596875,0.0686451613 C30.9501562,0.0686451613 31.1045312,0.220032258 31.1045312,0.406814516 L31.1045312,1.08315323 C31.1045312,1.26985887 30.9501562,1.42132258 30.7596875,1.42132258 Z" id="Shape"></path>
                    <path d="M34.8976563,1.42132258 L32.1390625,1.42132258 C31.9485938,1.42132258 31.7942188,1.26993548 31.7942188,1.08315323 L31.7942188,0.406814516 C31.7942188,0.220032258 31.9485938,0.0686451613 32.1390625,0.0686451613 L34.8976563,0.0686451613 C35.088125,0.0686451613 35.2425,0.220032258 35.2425,0.406814516 L35.2425,1.08315323 C35.2424219,1.26985887 35.0880469,1.42132258 34.8976563,1.42132258 Z" id="Shape"></path>
                    <path d="M6.62179688,9.53700403 L0.41484375,9.53700403 C0.224375,9.53700403 0.07,9.38561694 0.07,9.19883468 L0.07,7.84623387 C0.07,7.65945161 0.224375,7.50806452 0.41484375,7.50806452 L6.62171875,7.50806452 C6.8121875,7.50806452 6.9665625,7.65945161 6.9665625,7.84623387 L6.9665625,9.19883468 C6.9665625,9.38554032 6.8121875,9.53700403 6.62179688,9.53700403 Z" id="Shape"></path>
                    <path d="M5.24242187,6.83172581 L0.41484375,6.83172581 C0.224375,6.83172581 0.07,6.68033871 0.07,6.49355645 L0.07,5.14095565 C0.07,4.95417339 0.224375,4.80278629 0.41484375,4.80278629 L5.24242188,4.80278629 C5.43289063,4.80278629 5.58726563,4.95417339 5.58726563,5.14095565 L5.58726563,6.49355645 C5.58726563,6.68033871 5.43289063,6.83172581 5.24242187,6.83172581 Z" id="Shape"></path>
                    <path d="M5.24242187,12.2422056 L0.41484375,12.2422056 C0.224375,12.2422056 0.07,12.0908185 0.07,11.9040363 L0.07,10.5514355 C0.07,10.3646532 0.224375,10.2132661 0.41484375,10.2132661 L5.24242188,10.2132661 C5.43289063,10.2132661 5.58726563,10.3646532 5.58726563,10.5514355 L5.58726563,11.9040363 C5.58726563,12.0908185 5.43289063,12.2422056 5.24242187,12.2422056 Z" id="Shape"></path>
                    <path d="M10.0700781,4.12652419 L8.00109375,4.12652419 C7.810625,4.12652419 7.65625,3.9751371 7.65625,3.78835484 L7.65625,2.43575403 C7.65625,2.24897177 7.810625,2.09758468 8.00109375,2.09758468 L10.0700781,2.09758468 C10.2605469,2.09758468 10.4149219,2.24897177 10.4149219,2.43575403 L10.4149219,3.78835484 C10.4148438,3.9751371 10.2604688,4.12652419 10.0700781,4.12652419 Z" id="Shape"></path>
                    <path d="M6.62179688,4.12652419 L4.5528125,4.12652419 C4.36234375,4.12652419 4.20796875,3.9751371 4.20796875,3.78835484 L4.20796875,2.43575403 C4.20796875,2.24897177 4.36234375,2.09758468 4.5528125,2.09758468 L6.62179688,2.09758468 C6.81226563,2.09758468 6.96664063,2.24897177 6.96664063,2.43575403 L6.96664063,3.78835484 C6.9665625,3.9751371 6.8121875,4.12652419 6.62179688,4.12652419 Z" id="Shape"></path>
                    <path d="M13.5182813,4.12652419 L11.4492969,4.12652419 C11.2588281,4.12652419 11.1044531,3.9751371 11.1044531,3.78835484 L11.1044531,2.43575403 C11.1044531,2.24897177 11.2588281,2.09758468 11.4492969,2.09758468 L13.5182813,2.09758468 C13.70875,2.09758468 13.863125,2.24897177 13.863125,2.43575403 L13.863125,3.78835484 C13.863125,3.9751371 13.70875,4.12652419 13.5182813,4.12652419 Z" id="Shape"></path>
                    <path d="M16.9665625,4.12652419 L14.8976562,4.12652419 C14.7071875,4.12652419 14.5528125,3.9751371 14.5528125,3.78835484 L14.5528125,2.43575403 C14.5528125,2.24897177 14.7071875,2.09758468 14.8976562,2.09758468 L16.9666406,2.09758468 C17.1571094,2.09758468 17.3114844,2.24897177 17.3114844,2.43575403 L17.3114844,3.78835484 C17.3114063,3.9751371 17.1570312,4.12652419 16.9665625,4.12652419 Z" id="Shape"></path>
                    <path d="M20.4148437,4.12652419 L18.3458594,4.12652419 C18.1553906,4.12652419 18.0010156,3.9751371 18.0010156,3.78835484 L18.0010156,2.43575403 C18.0010156,2.24897177 18.1553906,2.09758468 18.3458594,2.09758468 L20.4148437,2.09758468 C20.6053125,2.09758468 20.7596875,2.24897177 20.7596875,2.43575403 L20.7596875,3.78835484 C20.7596875,3.9751371 20.6053125,4.12652419 20.4148437,4.12652419 Z" id="Shape"></path>
                    <path d="M23.863125,4.12652419 L21.7941406,4.12652419 C21.6036719,4.12652419 21.4492969,3.9751371 21.4492969,3.78835484 L21.4492969,2.43575403 C21.4492969,2.24897177 21.6036719,2.09758468 21.7941406,2.09758468 L23.863125,2.09758468 C24.0535938,2.09758468 24.2079687,2.24897177 24.2079687,2.43575403 L24.2079687,3.78835484 C24.2079688,3.9751371 24.0535938,4.12652419 23.863125,4.12652419 Z" id="Shape"></path>
                    <path d="M27.3114063,4.12652419 L25.2424219,4.12652419 C25.0519531,4.12652419 24.8975781,3.9751371 24.8975781,3.78835484 L24.8975781,2.43575403 C24.8975781,2.24897177 25.0519531,2.09758468 25.2424219,2.09758468 L27.3114063,2.09758468 C27.501875,2.09758468 27.65625,2.24897177 27.65625,2.43575403 L27.65625,3.78835484 C27.65625,3.9751371 27.501875,4.12652419 27.3114063,4.12652419 Z" id="Shape"></path>
                    <path d="M30.7596875,4.12652419 L28.6907031,4.12652419 C28.5002344,4.12652419 28.3458594,3.9751371 28.3458594,3.78835484 L28.3458594,2.43575403 C28.3458594,2.24897177 28.5002344,2.09758468 28.6907031,2.09758468 L30.7596875,2.09758468 C30.9501562,2.09758468 31.1045312,2.24897177 31.1045312,2.43575403 L31.1045312,3.78835484 C31.1045312,3.9751371 30.9501562,4.12652419 30.7596875,4.12652419 Z" id="Shape"></path>
                    <path d="M34.8976563,4.12652419 L32.1390625,4.12652419 C31.9485938,4.12652419 31.7942188,3.9751371 31.7942188,3.78835484 L31.7942188,2.43575403 C31.7942188,2.24897177 31.9485938,2.09758468 32.1390625,2.09758468 L34.8976563,2.09758468 C35.088125,2.09758468 35.2425,2.24897177 35.2425,2.43575403 L35.2425,3.78835484 C35.2424219,3.9751371 35.0880469,4.12652419 34.8976563,4.12652419 Z" id="Shape"></path>
                    <path d="M8.69070313,6.83172581 L6.62171875,6.83172581 C6.43125,6.83172581 6.276875,6.68033871 6.276875,6.49355645 L6.276875,5.14095565 C6.276875,4.95417339 6.43125,4.80278629 6.62171875,4.80278629 L8.69070313,4.80278629 C8.88117188,4.80278629 9.03554688,4.95417339 9.03554688,5.14095565 L9.03554688,6.49355645 C9.03554688,6.68033871 8.88117188,6.83172581 8.69070313,6.83172581 Z" id="Shape"></path>
                    <path d="M12.1389844,6.83172581 L10.07,6.83172581 C9.87953125,6.83172581 9.72515625,6.68033871 9.72515625,6.49355645 L9.72515625,5.14095565 C9.72515625,4.95417339 9.87953125,4.80278629 10.07,4.80278629 L12.1389844,4.80278629 C12.3294531,4.80278629 12.4838281,4.95417339 12.4838281,5.14095565 L12.4838281,6.49355645 C12.4838281,6.68033871 12.3294531,6.83172581 12.1389844,6.83172581 Z" id="Shape"></path>
                    <path d="M15.5872656,6.83172581 L13.5182812,6.83172581 C13.3278125,6.83172581 13.1734375,6.68033871 13.1734375,6.49355645 L13.1734375,5.14095565 C13.1734375,4.95417339 13.3278125,4.80278629 13.5182812,4.80278629 L15.5872656,4.80278629 C15.7777344,4.80278629 15.9321094,4.95417339 15.9321094,5.14095565 L15.9321094,6.49355645 C15.9321094,6.68033871 15.7777344,6.83172581 15.5872656,6.83172581 Z" id="Shape"></path>
                    <path d="M19.0355469,6.83172581 L16.9665625,6.83172581 C16.7760938,6.83172581 16.6217187,6.68033871 16.6217187,6.49355645 L16.6217187,5.14095565 C16.6217187,4.95417339 16.7760938,4.80278629 16.9665625,4.80278629 L19.0355469,4.80278629 C19.2260156,4.80278629 19.3803906,4.95417339 19.3803906,5.14095565 L19.3803906,6.49355645 C19.3803906,6.68033871 19.2260156,6.83172581 19.0355469,6.83172581 Z" id="Shape"></path>
                    <path d="M22.4838281,6.83172581 L20.4148438,6.83172581 C20.224375,6.83172581 20.07,6.68033871 20.07,6.49355645 L20.07,5.14095565 C20.07,4.95417339 20.224375,4.80278629 20.4148438,4.80278629 L22.4838281,4.80278629 C22.6742969,4.80278629 22.8286719,4.95417339 22.8286719,5.14095565 L22.8286719,6.49355645 C22.8286719,6.68033871 22.6742969,6.83172581 22.4838281,6.83172581 Z" id="Shape"></path>
                    <path d="M25.9321094,6.83172581 L23.863125,6.83172581 C23.6726563,6.83172581 23.5182813,6.68033871 23.5182813,6.49355645 L23.5182813,5.14095565 C23.5182813,4.95417339 23.6726563,4.80278629 23.863125,4.80278629 L25.9321094,4.80278629 C26.1225781,4.80278629 26.2769531,4.95417339 26.2769531,5.14095565 L26.2769531,6.49355645 C26.2769531,6.68033871 26.1225781,6.83172581 25.9321094,6.83172581 Z" id="Shape"></path>
                    <path d="M29.3803906,6.83172581 L27.3114063,6.83172581 C27.1209375,6.83172581 26.9665625,6.68033871 26.9665625,6.49355645 L26.9665625,5.14095565 C26.9665625,4.95417339 27.1209375,4.80278629 27.3114063,4.80278629 L29.3803906,4.80278629 C29.5708594,4.80278629 29.7252344,4.95417339 29.7252344,5.14095565 L29.7252344,6.49355645 C29.7252344,6.68033871 29.5708594,6.83172581 29.3803906,6.83172581 Z" id="Shape"></path>
                    <path d="M34.8976563,6.83172581 L30.7596875,6.83172581 C30.5692188,6.83172581 30.4148438,6.68033871 30.4148438,6.49355645 L30.4148438,5.14095565 C30.4148438,4.95417339 30.5692188,4.80278629 30.7596875,4.80278629 L34.8976563,4.80278629 C35.088125,4.80278629 35.2425,4.95417339 35.2425,5.14095565 L35.2425,6.49355645 C35.2424219,6.68033871 35.0880469,6.83172581 34.8976563,6.83172581 Z" id="Shape"></path>
                    <path d="M10.0700781,9.53700403 L8.00109375,9.53700403 C7.810625,9.53700403 7.65625,9.38561694 7.65625,9.19883468 L7.65625,7.84623387 C7.65625,7.65945161 7.810625,7.50806452 8.00109375,7.50806452 L10.0700781,7.50806452 C10.2605469,7.50806452 10.4149219,7.65945161 10.4149219,7.84623387 L10.4149219,9.19883468 C10.4148438,9.38554032 10.2604688,9.53700403 10.0700781,9.53700403 Z" id="Shape"></path>
                    <path d="M10.0700781,14.9474073 L8.00109375,14.9474073 C7.810625,14.9474073 7.65625,14.7960202 7.65625,14.6092379 L7.65625,13.2566371 C7.65625,13.0698548 7.810625,12.9184677 8.00109375,12.9184677 L10.0700781,12.9184677 C10.2605469,12.9184677 10.4149219,13.0698548 10.4149219,13.2566371 L10.4149219,14.6092379 C10.4148438,14.7960202 10.2604688,14.9474073 10.0700781,14.9474073 Z" id="Shape"></path>
                    <path d="M27.3114063,14.9474073 L25.2424219,14.9474073 C25.0519531,14.9474073 24.8975781,14.7960202 24.8975781,14.6092379 L24.8975781,13.2566371 C24.8975781,13.0698548 25.0519531,12.9184677 25.2424219,12.9184677 L27.3114063,12.9184677 C27.501875,12.9184677 27.65625,13.0698548 27.65625,13.2566371 L27.65625,14.6092379 C27.65625,14.7960202 27.501875,14.9474073 27.3114063,14.9474073 Z" id="Shape"></path>
                    <path d="M13.5182813,9.53700403 L11.4492969,9.53700403 C11.2588281,9.53700403 11.1044531,9.38561694 11.1044531,9.19883468 L11.1044531,7.84623387 C11.1044531,7.65945161 11.2588281,7.50806452 11.4492969,7.50806452 L13.5182813,7.50806452 C13.70875,7.50806452 13.863125,7.65945161 13.863125,7.84623387 L13.863125,9.19883468 C13.863125,9.38554032 13.70875,9.53700403 13.5182813,9.53700403 Z" id="Shape"></path>
                    <path d="M16.9665625,9.53700403 L14.8976562,9.53700403 C14.7071875,9.53700403 14.5528125,9.38561694 14.5528125,9.19883468 L14.5528125,7.84623387 C14.5528125,7.65945161 14.7071875,7.50806452 14.8976562,7.50806452 L16.9666406,7.50806452 C17.1571094,7.50806452 17.3114844,7.65945161 17.3114844,7.84623387 L17.3114844,9.19883468 C17.3114063,9.38554032 17.1570312,9.53700403 16.9665625,9.53700403 Z" id="Shape"></path>
                    <path d="M20.4148437,9.53700403 L18.3458594,9.53700403 C18.1553906,9.53700403 18.0010156,9.38561694 18.0010156,9.19883468 L18.0010156,7.84623387 C18.0010156,7.65945161 18.1553906,7.50806452 18.3458594,7.50806452 L20.4148437,7.50806452 C20.6053125,7.50806452 20.7596875,7.65945161 20.7596875,7.84623387 L20.7596875,9.19883468 C20.7596875,9.38554032 20.6053125,9.53700403 20.4148437,9.53700403 Z" id="Shape"></path>
                    <path d="M23.863125,9.53700403 L21.7941406,9.53700403 C21.6036719,9.53700403 21.4492969,9.38561694 21.4492969,9.19883468 L21.4492969,7.84623387 C21.4492969,7.65945161 21.6036719,7.50806452 21.7941406,7.50806452 L23.863125,7.50806452 C24.0535938,7.50806452 24.2079687,7.65945161 24.2079687,7.84623387 L24.2079687,9.19883468 C24.2079688,9.38554032 24.0535938,9.53700403 23.863125,9.53700403 Z" id="Shape"></path>
                    <path d="M27.3114063,9.53700403 L25.2424219,9.53700403 C25.0519531,9.53700403 24.8975781,9.38561694 24.8975781,9.19883468 L24.8975781,7.84623387 C24.8975781,7.65945161 25.0519531,7.50806452 25.2424219,7.50806452 L27.3114063,7.50806452 C27.501875,7.50806452 27.65625,7.65945161 27.65625,7.84623387 L27.65625,9.19883468 C27.65625,9.38554032 27.501875,9.53700403 27.3114063,9.53700403 Z" id="Shape"></path>
                    <path d="M30.7596875,9.53700403 L28.6907031,9.53700403 C28.5002344,9.53700403 28.3458594,9.38561694 28.3458594,9.19883468 L28.3458594,7.84623387 C28.3458594,7.65945161 28.5002344,7.50806452 28.6907031,7.50806452 L30.7596875,7.50806452 C30.9501562,7.50806452 31.1045312,7.65945161 31.1045312,7.84623387 L31.1045312,9.19883468 C31.1045312,9.38554032 30.9501562,9.53700403 30.7596875,9.53700403 Z" id="Shape"></path>
                    <path d="M34.8976563,9.53700403 L32.1390625,9.53700403 C31.9485938,9.53700403 31.7942188,9.38561694 31.7942188,9.19883468 L31.7942188,7.84623387 C31.7942188,7.65945161 31.9485938,7.50806452 32.1390625,7.50806452 L34.8976563,7.50806452 C35.088125,7.50806452 35.2425,7.65945161 35.2425,7.84623387 L35.2425,9.19883468 C35.2424219,9.38554032 35.0880469,9.53700403 34.8976563,9.53700403 Z" id="Shape"></path>
                    <path d="M8.69070313,12.2422056 L6.62171875,12.2422056 C6.43125,12.2422056 6.276875,12.0908185 6.276875,11.9040363 L6.276875,10.5514355 C6.276875,10.3646532 6.43125,10.2132661 6.62171875,10.2132661 L8.69070313,10.2132661 C8.88117188,10.2132661 9.03554688,10.3646532 9.03554688,10.5514355 L9.03554688,11.9040363 C9.03554688,12.0908185 8.88117188,12.2422056 8.69070313,12.2422056 Z" id="Shape"></path>
                    <path d="M3.17351562,14.9474073 L0.41484375,14.9474073 C0.224375,14.9474073 0.07,14.7960202 0.07,14.6092379 L0.07,13.2566371 C0.07,13.0698548 0.224375,12.9184677 0.41484375,12.9184677 L3.1734375,12.9184677 C3.36390625,12.9184677 3.51828125,13.0698548 3.51828125,13.2566371 L3.51828125,14.6092379 C3.51828125,14.7960202 3.36390625,14.9474073 3.17351562,14.9474073 Z" id="Shape"></path>
                    <path d="M30.7596875,14.9474073 L28.6907031,14.9474073 C28.5002344,14.9474073 28.3458594,14.7960202 28.3458594,14.6092379 L28.3458594,13.2566371 C28.3458594,13.0698548 28.5002344,12.9184677 28.6907031,12.9184677 L30.7596875,12.9184677 C30.9501562,12.9184677 31.1045312,13.0698548 31.1045312,13.2566371 L31.1045312,14.6092379 C31.1045312,14.7960202 30.9501562,14.9474073 30.7596875,14.9474073 Z" id="Shape"></path>
                    <path d="M34.8976563,14.9474073 L32.1390625,14.9474073 C31.9485938,14.9474073 31.7942188,14.7960202 31.7942188,14.6092379 L31.7942188,13.2566371 C31.7942188,13.0698548 31.9485938,12.9184677 32.1390625,12.9184677 L34.8976563,12.9184677 C35.088125,12.9184677 35.2425,13.0698548 35.2425,13.2566371 L35.2425,14.6092379 C35.2424219,14.7960202 35.0880469,14.9474073 34.8976563,14.9474073 Z" id="Shape"></path>
                    <path d="M6.62179688,14.9474073 L4.5528125,14.9474073 C4.36234375,14.9474073 4.20796875,14.7960202 4.20796875,14.6092379 L4.20796875,13.2566371 C4.20796875,13.0698548 4.36234375,12.9184677 4.5528125,12.9184677 L6.62179688,12.9184677 C6.81226563,12.9184677 6.96664063,13.0698548 6.96664063,13.2566371 L6.96664063,14.6092379 C6.9665625,14.7960202 6.8121875,14.9474073 6.62179688,14.9474073 Z" id="Shape"></path>
                    <path d="M12.1389844,12.2422056 L10.07,12.2422056 C9.87953125,12.2422056 9.72515625,12.0908185 9.72515625,11.9040363 L9.72515625,10.5514355 C9.72515625,10.3646532 9.87953125,10.2132661 10.07,10.2132661 L12.1389844,10.2132661 C12.3294531,10.2132661 12.4838281,10.3646532 12.4838281,10.5514355 L12.4838281,11.9040363 C12.4838281,12.0908185 12.3294531,12.2422056 12.1389844,12.2422056 Z" id="Shape"></path>
                    <path d="M15.5872656,12.2422056 L13.5182812,12.2422056 C13.3278125,12.2422056 13.1734375,12.0908185 13.1734375,11.9040363 L13.1734375,10.5514355 C13.1734375,10.3646532 13.3278125,10.2132661 13.5182812,10.2132661 L15.5872656,10.2132661 C15.7777344,10.2132661 15.9321094,10.3646532 15.9321094,10.5514355 L15.9321094,11.9040363 C15.9321094,12.0908185 15.7777344,12.2422056 15.5872656,12.2422056 Z" id="Shape"></path>
                    <path d="M23.863125,14.9474073 L11.449375,14.9474073 C11.2589063,14.9474073 11.1045313,14.7960202 11.1045313,14.6092379 L11.1045313,13.2566371 C11.1045313,13.0698548 11.2589063,12.9184677 11.449375,12.9184677 L23.8632031,12.9184677 C24.0536719,12.9184677 24.2080469,13.0698548 24.2080469,13.2566371 L24.2080469,14.6092379 C24.2079688,14.7960202 24.0535938,14.9474073 23.863125,14.9474073 Z" id="Shape"></path>
                    <path d="M19.0355469,12.2422056 L16.9665625,12.2422056 C16.7760938,12.2422056 16.6217187,12.0908185 16.6217187,11.9040363 L16.6217187,10.5514355 C16.6217187,10.3646532 16.7760938,10.2132661 16.9665625,10.2132661 L19.0355469,10.2132661 C19.2260156,10.2132661 19.3803906,10.3646532 19.3803906,10.5514355 L19.3803906,11.9040363 C19.3803906,12.0908185 19.2260156,12.2422056 19.0355469,12.2422056 Z" id="Shape"></path>
                    <path d="M22.4838281,12.2422056 L20.4148438,12.2422056 C20.224375,12.2422056 20.07,12.0908185 20.07,11.9040363 L20.07,10.5514355 C20.07,10.3646532 20.224375,10.2132661 20.4148438,10.2132661 L22.4838281,10.2132661 C22.6742969,10.2132661 22.8286719,10.3646532 22.8286719,10.5514355 L22.8286719,11.9040363 C22.8286719,12.0908185 22.6742969,12.2422056 22.4838281,12.2422056 Z" id="Shape"></path>
                    <path d="M25.9321094,12.2422056 L23.863125,12.2422056 C23.6726563,12.2422056 23.5182813,12.0908185 23.5182813,11.9040363 L23.5182813,10.5514355 C23.5182813,10.3646532 23.6726563,10.2132661 23.863125,10.2132661 L25.9321094,10.2132661 C26.1225781,10.2132661 26.2769531,10.3646532 26.2769531,10.5514355 L26.2769531,11.9040363 C26.2769531,12.0908185 26.1225781,12.2422056 25.9321094,12.2422056 Z" id="Shape"></path>
                    <path d="M29.3803906,12.2422056 L27.3114063,12.2422056 C27.1209375,12.2422056 26.9665625,12.0908185 26.9665625,11.9040363 L26.9665625,10.5514355 C26.9665625,10.3646532 27.1209375,10.2132661 27.3114063,10.2132661 L29.3803906,10.2132661 C29.5708594,10.2132661 29.7252344,10.3646532 29.7252344,10.5514355 L29.7252344,11.9040363 C29.7252344,12.0908185 29.5708594,12.2422056 29.3803906,12.2422056 Z" id="Shape"></path>
                    <path d="M34.8976563,12.2422056 L30.7596875,12.2422056 C30.5692188,12.2422056 30.4148438,12.0908185 30.4148438,11.9040363 L30.4148438,10.5514355 C30.4148438,10.3646532 30.5692188,10.2132661 30.7596875,10.2132661 L34.8976563,10.2132661 C35.088125,10.2132661 35.2425,10.3646532 35.2425,10.5514355 L35.2425,11.9040363 C35.2424219,12.0908185 35.0880469,12.2422056 34.8976563,12.2422056 Z" id="Shape"></path>
                </g>
            </g>
        </g>
    </g>
</svg>