<?xml version="1.0" encoding="UTF-8"?>
<svg width="50px" height="50px" viewBox="0 0 50 50" version="1.1" xmlns="http://www.w3.org/2000/svg" xmlns:xlink="http://www.w3.org/1999/xlink">
    <!-- Generator: Sketch 43.2 (39069) - http://www.bohemiancoding.com/sketch -->
    <title>facebook</title>
    <desc>Created with Sketch.</desc>
    <defs></defs>
    <g id="icons" stroke="none" stroke-width="1" fill="none" fill-rule="evenodd">
        <g id="facebook" fill-rule="nonzero" fill="#FFFFFF">
            <g transform="translate(1.000000, 1.000000)" id="Shape">
                <path d="M41.5101418,0 L6.464978,0 C2.89466993,0 0.000234718826,2.89431785 0.000234718826,6.46474328 L0.000234718826,41.5101418 C0.000234718826,45.0805672 2.89455257,47.9748851 6.464978,47.9748851 L23.7490856,47.9748851 L23.7785428,30.8312567 L19.3246357,30.8312567 C18.7458191,30.8312567 18.2760293,30.3632274 18.2737995,29.7844108 L18.2524401,24.2583081 C18.2502103,23.6763227 18.7214083,23.2033643 19.3033936,23.2033643 L23.7492029,23.2033643 L23.7492029,17.8637457 C23.7492029,11.6671687 27.5336919,8.29308557 33.0614377,8.29308557 L37.597379,8.29308557 C38.1777213,8.29308557 38.6483325,8.76357946 38.6483325,9.34403912 L38.6483325,14.0036773 C38.6483325,14.5839022 38.1780733,15.0542787 37.5979658,15.0546308 L34.8143178,15.0559218 C31.8081565,15.0559218 31.2260538,16.4844205 31.2260538,18.5808117 L31.2260538,23.2034817 L37.8316284,23.2034817 C38.4610269,23.2034817 38.9493594,23.7530758 38.8751883,24.378132 L38.2202054,29.9042347 C38.1575355,30.4330562 37.7091051,30.8314914 37.1766455,30.8314914 L31.255511,30.8314914 L31.2260538,47.9751198 L41.5103765,47.9751198 C45.0806846,47.9751198 47.9750024,45.080802 47.9750024,41.5104939 L47.9750024,6.46474328 C47.9748851,2.89431785 45.0805672,0 41.5101418,0 Z"></path>
            </g>
        </g>
    </g>
</svg>