<?xml version="1.0" encoding="UTF-8"?>
<svg width="50px" height="50px" viewBox="0 0 50 50" version="1.1" xmlns="http://www.w3.org/2000/svg" xmlns:xlink="http://www.w3.org/1999/xlink">
    <!-- Generator: Sketch 43.2 (39069) - http://www.bohemiancoding.com/sketch -->
    <title>github</title>
    <desc>Created with Sketch.</desc>
    <defs></defs>
    <g id="icons" stroke="none" stroke-width="1" fill="none" fill-rule="evenodd">
        <g id="github" fill-rule="nonzero" fill="#FFFFFF">
            <g id="github-logo" transform="translate(1.000000, 2.000000)">
                <path d="M44.7342506,12.0045012 C42.5903235,8.32382051 39.6822232,5.40982051 36.0091845,3.26184382 C32.3355991,1.11375758 28.325139,0.039988345 23.9749613,0.039988345 C19.6253303,0.039988345 15.6135581,1.11408625 11.940738,3.26184382 C8.2673713,5.40971096 5.35938041,8.32382051 3.2154533,12.0045012 C1.07185421,15.6850723 0,19.7042844 0,24.062028 C0,29.2966667 1.52419134,34.0037879 4.57333941,38.1845967 C7.62215945,42.3657343 11.5607836,45.2589184 16.3888838,46.8644779 C16.9508884,46.9689953 17.3669248,46.8954825 17.6374305,46.6458019 C17.9080456,46.3957925 18.0431891,46.0826783 18.0431891,45.7077739 C18.0431891,45.6452168 18.0378314,45.0824219 18.0274442,44.0187319 C18.0167289,42.955042 18.0116993,42.0270932 18.0116993,41.235324 L17.2936674,41.3597809 C16.8358633,41.4438112 16.2583326,41.4794172 15.5610752,41.469338 C14.8641458,41.4595874 14.1406469,41.3864033 13.3915626,41.2503333 C12.6421503,41.1154685 11.9451116,40.802683 11.2998998,40.312634 C10.6550159,39.8225851 10.1972118,39.1811282 9.92659681,38.3892494 L9.6144328,37.6694592 C9.40635991,37.1902564 9.07877904,36.6579184 8.63125285,36.0744172 C8.18372665,35.4903683 7.73117084,35.0944289 7.27336674,34.8859417 L7.05479727,34.7291655 C6.90915718,34.6249767 6.77401367,34.4993147 6.64903872,34.3534942 C6.52417312,34.2076737 6.43068793,34.0617436 6.36825513,33.9155944 C6.30571298,33.7693357 6.35753986,33.6493706 6.52428246,33.5552611 C6.69102506,33.4611515 6.99236446,33.4154662 7.42961276,33.4154662 L8.0537221,33.5089184 C8.46997722,33.5925105 8.98485649,33.8421911 9.59901595,34.2594942 C10.2128474,34.6764685 10.7174487,35.2185571 11.1129294,35.8855408 C11.591836,36.7407436 12.16882,37.3923893 12.8455216,37.8408065 C13.5216765,38.2892238 14.2034077,38.513049 14.8900592,38.513049 C15.5767107,38.513049 16.1697677,38.4608998 16.6694487,38.3571492 C17.1685831,38.2528508 17.6368838,38.0960746 18.0741321,37.887697 C18.2614305,36.4899674 18.7713895,35.4161981 19.6035718,34.6656224 C18.4174579,34.5407273 17.3510706,34.3526177 16.4038633,34.1024988 C15.4572027,33.8520513 14.4789431,33.4455944 13.4697403,32.8820326 C12.4599909,32.3192378 11.6223417,31.620373 10.956574,30.7866434 C10.290697,29.9524755 9.74421868,28.8573427 9.31790433,27.5022308 C8.8913713,26.1465711 8.67805011,24.5827529 8.67805011,22.810338 C8.67805011,20.28669 9.50028246,18.1391515 11.1444191,16.3665175 C10.3742323,14.4692075 10.4469431,12.3422657 11.3627699,9.98591142 C11.9663235,9.79802098 12.8613759,9.93902098 14.0474897,10.408035 C15.2338223,10.8772681 16.1024146,11.2792331 16.6541412,11.6125058 C17.2058679,11.945669 17.6479271,12.2279977 17.9809749,12.456972 C19.9168292,11.914993 21.9145695,11.6439487 23.9747426,11.6439487 C26.0349157,11.6439487 28.0330934,11.914993 29.9690569,12.456972 L31.1552802,11.7066154 C31.9664692,11.2059394 32.9243918,10.7471142 34.0267517,10.3300303 C35.1297677,9.9131655 35.9732118,9.79834965 36.5562096,9.98624009 C37.4923736,12.342704 37.5757995,14.4695361 36.8053941,16.3668462 C38.4494214,18.1394802 39.2719818,20.2875664 39.2719818,22.8106667 C39.2719818,24.5830816 39.0578952,26.1518298 38.6320182,27.5178974 C38.2055945,28.8841841 37.6544146,29.9782214 36.9782597,30.80231 C36.3013394,31.626289 35.4583326,32.319676 34.4491298,32.8823613 C33.4397084,33.4454848 32.4611207,33.8519417 31.5144601,34.1023893 C30.5673622,34.3528368 29.5009749,34.5410559 28.314861,34.6661702 C29.3966651,35.6041981 29.9376765,37.0848625 29.9376765,39.1075058 L29.9376765,45.7068974 C29.9376765,46.0818019 30.0677904,46.3948065 30.3282369,46.6449254 C30.5883554,46.8946061 30.9991435,46.9681189 31.5611481,46.8634918 C36.3899043,45.2581515 40.3285285,42.3648578 43.3772392,38.1837203 C46.4256219,34.0029114 47.9503599,29.2957902 47.9503599,24.0611515 C47.9492665,19.7039557 46.8768656,15.6850723 44.7342506,12.0045012 Z" id="Shape"></path>
            </g>
        </g>
    </g>
</svg>