<?xml version="1.0" encoding="UTF-8"?>
<svg width="100px" height="100px" viewBox="0 0 100 100" version="1.1" xmlns="http://www.w3.org/2000/svg" xmlns:xlink="http://www.w3.org/1999/xlink">
    <!-- Generator: Sketch 43.2 (39069) - http://www.bohemiancoding.com/sketch -->
    <title>Artboard</title>
    <desc>Created with Sketch.</desc>
    <defs>
        <path d="M50.5,20 C49.1192881,20 48,18.8807119 48,17.5 C48,16.1192881 49.1192881,15 50.5,15 C51.8807119,15 53,16.1192881 53,17.5 C53,18.8807119 51.8807119,20 50.5,20 Z M65.8982678,24.5178169 C64.7403053,23.7658273 64.4111993,22.2175053 65.1631889,21.0595429 C65.9151785,19.9015805 67.4635005,19.5724745 68.6214629,20.3244641 C69.7794253,21.0764536 70.1085313,22.6247757 69.3565418,23.7827381 C68.6045522,24.9407005 67.0562302,25.2698065 65.8982678,24.5178169 Z M76.5265146,38.1012985 C75.7095949,36.3494086 76.467538,34.266977 78.2194279,33.4500573 C79.9713178,32.6331377 82.0537494,33.3910808 82.8706691,35.1429707 C83.6875888,36.8948606 82.9296457,38.9772922 81.1777558,39.7942119 C79.4258659,40.6111315 77.3434343,39.8531884 76.5265146,38.1012985 Z M78.7087945,52.5638272 C78.9009525,51.1965524 80.1651226,50.2439319 81.5323975,50.4360898 C82.8996723,50.6282478 83.8522928,51.8924179 83.6601349,53.2596927 C83.4679769,54.6269676 82.2038068,55.5795881 80.8365319,55.3874302 C79.4692571,55.1952722 78.5166366,53.9311021 78.7087945,52.5638272 Z M72.5320437,67.8484171 C74.162535,65.9727515 77.0048368,65.7739984 78.8805024,67.4044896 C80.7561681,69.0349809 80.9549212,71.8772827 79.3244299,73.7529484 C77.6939386,75.628614 74.8516368,75.8273671 72.9759712,74.1968759 C71.1003055,72.5663846 70.9015524,69.7240828 72.5320437,67.8484171 Z M58.5446159,75.8411279 C59.8718413,75.4605522 61.2562877,76.2279634 61.6368635,77.5551888 C62.0174393,78.8824142 61.2500281,80.2668607 59.9228027,80.6474364 C58.5955772,81.0280122 57.2111308,80.260601 56.830555,78.9333756 C56.4499793,77.6061501 57.2173904,76.2217037 58.5446159,75.8411279 Z M42.4553841,75.8411279 C43.7826096,76.2217037 44.5500207,77.6061501 44.169445,78.9333756 C43.7888692,80.260601 42.4044228,81.0280122 41.0771973,80.6474364 C39.7499719,80.2668607 38.9825607,78.8824142 39.3631365,77.5551888 C39.7437123,76.2279634 41.1281587,75.4605522 42.4553841,75.8411279 Z M26.3264728,66.6446237 C26.6888042,67.0614383 26.6446368,67.6930609 26.2278222,68.0553923 C25.8110076,68.4177237 25.179385,68.3735564 24.8170536,67.9567418 C24.4547222,67.5399272 24.4988896,66.9083046 24.9157042,66.5459732 C25.3325188,66.1836418 25.9641414,66.2278091 26.3264728,66.6446237 Z M22.2912055,52.5638272 C22.4833634,53.9311021 21.5307429,55.1952722 20.1634681,55.3874302 C18.7961932,55.5795881 17.5320231,54.6269676 17.3398651,53.2596927 C17.1477072,51.8924179 18.1003277,50.6282478 19.4676025,50.4360898 C20.8348774,50.2439319 22.0990475,51.1965524 22.2912055,52.5638272 Z M26.286101,38.946535 C25.0023701,41.6995049 21.7299775,42.8905583 18.9770077,41.6068274 C16.2240379,40.3230965 15.0329844,37.050704 16.3167153,34.2977342 C17.6004462,31.5447643 20.8728388,30.3537109 23.6258086,31.6374418 C26.3787784,32.9211727 27.5698319,36.1935652 26.286101,38.946535 Z M35.1017322,24.5178169 C33.9437698,25.2698065 32.3954478,24.9407005 31.6434582,23.7827381 C30.8914687,22.6247757 31.2205747,21.0764536 32.3785371,20.3244641 C33.5364995,19.5724745 35.0848215,19.9015805 35.8368111,21.0595429 C36.5888007,22.2175053 36.2596947,23.7658273 35.1017322,24.5178169 Z" id="path-1"></path>
        <filter x="-10.3%" y="-7.6%" width="120.6%" height="121.3%" filterUnits="objectBoundingBox" id="filter-2">
            <feOffset dx="0" dy="2" in="SourceAlpha" result="shadowOffsetOuter1"></feOffset>
            <feGaussianBlur stdDeviation="2" in="shadowOffsetOuter1" result="shadowBlurOuter1"></feGaussianBlur>
            <feColorMatrix values="0 0 0 0 0.290196078   0 0 0 0 0.564705882   0 0 0 0 0.88627451  0 0 0 0.5 0" type="matrix" in="shadowBlurOuter1"></feColorMatrix>
        </filter>
    </defs>
    <g id="Page-1" stroke="none" stroke-width="1" fill="none" fill-rule="evenodd">
        <g id="Artboard">
            <circle id="Oval" fill="#DDDDDD" cx="50.5" cy="50.5" r="22.5"></circle>
            <g id="Oval-2">
                <use fill="black" fill-opacity="1" filter="url(#filter-2)" xlink:href="#path-1"></use>
                <use fill="#4990E2" fill-rule="evenodd" xlink:href="#path-1"></use>
            </g>
            <circle id="Oval-Copy" fill="#BBBBBB" cx="50.5" cy="50.5" r="12.5"></circle>
        </g>
    </g>
</svg>