<?xml version="1.0" encoding="UTF-8"?>
<svg width="50px" height="50px" viewBox="0 0 50 50" version="1.1" xmlns="http://www.w3.org/2000/svg" xmlns:xlink="http://www.w3.org/1999/xlink">
    <!-- Generator: Sketch 43.2 (39069) - http://www.bohemiancoding.com/sketch -->
    <title>linkedin</title>
    <desc>Created with Sketch.</desc>
    <defs></defs>
    <g id="icons" stroke="none" stroke-width="1" fill="none" fill-rule="evenodd">
        <g id="linkedin" fill-rule="nonzero" fill="#FFFFFF">
            <g id="linkedin-logo" transform="translate(1.000000, 1.000000)">
                <path d="M43.2,0 L4.8,0 C2.16,0 0,2.16 0,4.8 L0,43.2 C0,45.84 2.16,48 4.8,48 L43.2,48 C45.84,48 48,45.84 48,43.2 L48,4.8 C48,2.16 45.84,0 43.2,0 Z M14.4,40.8 L7.2,40.8 L7.2,19.2 L14.4,19.2 L14.4,40.8 Z M10.8,15.12 C8.4,15.12 6.48,13.2 6.48,10.8 C6.48,8.4 8.4,6.48 10.8,6.48 C13.2,6.48 15.12,8.4 15.12,10.8 C15.12,13.2 13.2,15.12 10.8,15.12 Z M40.8,40.8 L33.6,40.8 L33.6,28.08 C33.6,26.1600941 31.92,24.48 30,24.48 C28.08,24.48 26.4,26.1600941 26.4,28.08 L26.4,40.8 L19.2,40.8 L19.2,19.2 L26.4,19.2 L26.4,22.08 C27.6,20.16 30.24,18.72 32.4,18.72 C36.96,18.72 40.8,22.56 40.8,27.12 L40.8,40.8 Z" id="Shape"></path>
            </g>
        </g>
    </g>
</svg>