<?xml version="1.0" encoding="UTF-8"?>
<svg width="50px" height="50px" viewBox="0 0 50 50" version="1.1" xmlns="http://www.w3.org/2000/svg" xmlns:xlink="http://www.w3.org/1999/xlink">
    <!-- Generator: Sketch 43.2 (39069) - http://www.bohemiancoding.com/sketch -->
    <title>Artboard</title>
    <desc>Created with Sketch.</desc>
    <defs>
        <filter x="-5.7%" y="-3.9%" width="111.4%" height="107.8%" filterUnits="objectBoundingBox" id="filter-1">
            <feOffset dx="0" dy="0" in="SourceAlpha" result="shadowOffsetOuter1"></feOffset>
            <feGaussianBlur stdDeviation="0.5" in="shadowOffsetOuter1" result="shadowBlurOuter1"></feGaussianBlur>
            <feColorMatrix values="0 0 0 0 0   0 0 0 0 0   0 0 0 0 0  0 0 0 0.5 0" type="matrix" in="shadowBlurOuter1" result="shadowMatrixOuter1"></feColorMatrix>
            <feMerge>
                <feMergeNode in="shadowMatrixOuter1"></feMergeNode>
                <feMergeNode in="SourceGraphic"></feMergeNode>
            </feMerge>
        </filter>
        <path d="M0.034002849,0.0140046426 L2.68180912,35.2451843 C2.68180912,36.3372544 3.36009972,37.2304491 4.18941595,37.2304491 L21.5299858,37.2304491 C22.359302,37.2304491 23.0375926,36.3372544 23.0375926,35.2451843 L25.6853989,0.0140046426 L0.034002849,0.0140046426 Z" id="path-2"></path>
        <path d="M27.9627066,5.31346514 L3.08233618,5.31346514 L3.08233618,1.77080925 C3.08233618,0.792559033 3.75797721,-7.14983628e-14 4.59082621,-7.14983628e-14 L26.4550997,1.77080925 C27.2879487,1.77080925 27.9627066,2.56336829 27.9627066,3.54161851 L27.9627066,5.31346514 Z" id="path-4"></path>
        <filter x="-6.0%" y="-28.2%" width="112.1%" height="156.5%" filterUnits="objectBoundingBox" id="filter-5">
            <feOffset dx="0" dy="0" in="SourceAlpha" result="shadowOffsetOuter1"></feOffset>
            <feGaussianBlur stdDeviation="0.5" in="shadowOffsetOuter1" result="shadowBlurOuter1"></feGaussianBlur>
            <feComposite in="shadowBlurOuter1" in2="SourceAlpha" operator="out" result="shadowBlurOuter1"></feComposite>
            <feColorMatrix values="0 0 0 0 0   0 0 0 0 0   0 0 0 0 0  0 0 0 0.5 0" type="matrix" in="shadowBlurOuter1"></feColorMatrix>
        </filter>
        <path d="M29.2124217,4.03374039 L1.83350427,4.03374039 C0.861994302,4.03374039 0.0671225071,3.57712848 0.0671225071,3.01904727 L0.0671225071,1.07641729 C0.0671225071,0.51833607 0.861994302,0.0617241655 1.83350427,0.0617241655 L29.2124217,0.0617241655 C30.1839316,0.0617241655 30.9788034,0.51833607 30.9788034,1.07641729 L30.9788034,3.01904727 C30.9788034,3.57712848 30.1839316,4.03374039 29.2124217,4.03374039 Z" id="path-6"></path>
        <filter x="-4.9%" y="-37.8%" width="109.7%" height="175.5%" filterUnits="objectBoundingBox" id="filter-8">
            <feOffset dx="0" dy="0" in="SourceAlpha" result="shadowOffsetOuter1"></feOffset>
            <feGaussianBlur stdDeviation="0.5" in="shadowOffsetOuter1" result="shadowBlurOuter1"></feGaussianBlur>
            <feComposite in="shadowBlurOuter1" in2="SourceAlpha" operator="out" result="shadowBlurOuter1"></feComposite>
            <feColorMatrix values="0 0 0 0 0   0 0 0 0 0   0 0 0 0 0  0 0 0 0.5 0" type="matrix" in="shadowBlurOuter1"></feColorMatrix>
        </filter>
    </defs>
    <g id="icons" stroke="none" stroke-width="1" fill="none" fill-rule="evenodd">
        <g id="Artboard">
            <g id="coffee-(1)" transform="translate(10.000000, 1.000000)">
                <g id="Capa_1">
                    <g id="Group">
                        <g id="Rectangle" filter="url(#filter-1)" transform="translate(2.682692, 9.156328)">
                            <mask id="mask-3" fill="white">
                                <use xlink:href="#path-2"></use>
                            </mask>
                            <use id="Mask" fill="#FFFFFF" fill-rule="nonzero" xlink:href="#path-2"></use>
                            <polygon fill-opacity="0" fill="#000000" mask="url(#mask-3)" points="21.1634615 -4.98966735e-14 25.6346154 -4.98966735e-14 22.9519231 37.2164444 3.4775641 37.2164444"></polygon>
                            <rect id="Rectangle-7" fill="#EFEFF4" mask="url(#mask-3)" x="1.16402302" y="32.2236452" width="23.419708" height="5.07164012"></rect>
                        </g>
                        <g id="Rectangle-5">
                            <g id="Combined-Shape" fill-rule="nonzero">
                                <use fill="black" fill-opacity="1" filter="url(#filter-5)" xlink:href="#path-4"></use>
                                <use fill-opacity="0.741876132" fill="#FFFFFF" fill-rule="evenodd" xlink:href="#path-4"></use>
                            </g>
                            <g transform="translate(0.000000, 5.251741)">
                                <mask id="mask-7" fill="white">
                                    <use xlink:href="#path-6"></use>
                                </mask>
                                <g id="Mask" fill-rule="nonzero">
                                    <use fill="black" fill-opacity="1" filter="url(#filter-8)" xlink:href="#path-6"></use>
                                    <use fill-opacity="0.965155118" fill="#FFFFFF" fill-rule="evenodd" xlink:href="#path-6"></use>
                                </g>
                                <polygon fill-opacity="0.06" fill="#000000" mask="url(#mask-7)" points="30.0064103 -7.29912751 32.8878205 3.90458657 23.8461538 3.90458657"></polygon>
                            </g>
                        </g>
                        <g id="Group-3" transform="translate(9.051095, 16.367566)" fill="#242038">
                            <g id="Group" transform="translate(0.090194, 0.000000)">
                                <rect id="Rectangle-2" x="0.063446217" y="0" width="6.3446217" height="1" rx="0.221307932"></rect>
                                <rect id="Rectangle-2-Copy-5" x="0.126892434" y="5.83749071" width="6.3446217" height="1" rx="0.221307932"></rect>
                                <rect id="Rectangle-2-Copy-2" x="0.063446217" y="1.94583024" width="12.6892434" height="1" rx="0.221307932"></rect>
                                <rect id="Rectangle-2-Copy-8" x="0" y="9.72915118" width="12.6892434" height="1" rx="0.221307932"></rect>
                                <rect id="Rectangle-2-Copy" x="7.67699226" y="0" width="4.44123519" height="1" rx="0.221307932"></rect>
                                <rect id="Rectangle-2-Copy-6" x="7.74043847" y="5.83749071" width="4.44123519" height="1" rx="0.221307932"></rect>
                                <rect id="Rectangle-2-Copy-3" x="0.126892434" y="3.89166047" width="4.44123519" height="1" rx="0.221307932"></rect>
                                <rect id="Rectangle-2-Copy-9" x="0.126892434" y="11.6749814" width="4.44123519" height="1" rx="0.221307932"></rect>
                                <rect id="Rectangle-2-Copy-4" x="5.83705196" y="3.89166047" width="4.44123519" height="1" rx="0.221307932"></rect>
                                <rect id="Rectangle-2-Copy-7" x="0.126892434" y="7.78332095" width="7.61354604" height="1" rx="0.221307932"></rect>
                            </g>
                            <g id="Group-2" transform="translate(0.000000, 16.689236)">
                                <path d="M1.24053576,1.25651791 L1.26279096,1.23426271 C1.30870649,1.18834718 1.31140082,1.10827564 1.263676,1.06055083 L0.335250624,0.132125451 C0.296156641,0.0930314677 0.209752356,0.0847968903 0.161538746,0.1330105 L0.121505117,0.173044129 C0.0755895838,0.218959663 0.0728952569,0.299031196 0.120620067,0.346756007 L1.03038197,1.25651791 L0.120620067,2.1662798 C0.0728952569,2.21400462 0.0755895838,2.29407615 0.121505117,2.33999168 L0.161538746,2.38002531 C0.209752356,2.42823892 0.296156641,2.42000434 0.335250624,2.38091036 L1.263676,1.45248498 C1.31140082,1.40476017 1.30870649,1.32468864 1.26279096,1.2787731 L1.24053576,1.25651791 Z" id="Combined-Shape"></path>
                                <rect id="Rectangle-Copy-2" transform="translate(2.822605, 2.553507) scale(1, -1) translate(-2.822605, -2.553507) " x="2.01450077" y="2.16641018" width="1.6162089" height="1" rx="0.147538622"></rect>
                            </g>
                        </g>
                    </g>
                </g>
            </g>
        </g>
    </g>
</svg>