<?xml version="1.0" encoding="UTF-8"?>
<svg width="50px" height="50px" viewBox="0 0 50 50" version="1.1" xmlns="http://www.w3.org/2000/svg" xmlns:xlink="http://www.w3.org/1999/xlink">
    <!-- Generator: Sketch 43.2 (39069) - http://www.bohemiancoding.com/sketch -->
    <title>seo</title>
    <desc>Created with Sketch.</desc>
    <defs></defs>
    <g id="icons" stroke="none" stroke-width="1" fill="none" fill-rule="evenodd">
        <g id="seo">
            <rect id="Rectangle-3" stroke-opacity="0.752943841" stroke="#8A83AC" x="0.5" y="0.5" width="49" height="49" rx="4"></rect>
            <g id="bars-chart" transform="translate(5.000000, 6.000000)" fill-rule="nonzero">
                <path d="M23.0584016,37.6525161 L19.6168421,37.6525161 C19.2367251,37.6525161 18.928499,37.3464774 18.928499,36.9690581 L18.928499,21.2502968 C18.928499,20.8728774 19.2367251,20.5668387 19.6168421,20.5668387 L23.0584016,20.5668387 C23.4385185,20.5668387 23.7467446,20.8728774 23.7467446,21.2502968 L23.7467446,36.9690581 C23.7467446,37.3464774 23.4385185,37.6525161 23.0584016,37.6525161 Z" id="Shape" fill-opacity="0.752943841" fill="#8A83AC"></path>
                <path d="M23.0584016,37.6525161 L19.6168421,37.6525161 C19.2367251,37.6525161 18.928499,37.3464774 18.928499,36.9690581 L18.928499,25.3508129 C18.928499,24.9733935 19.2367251,24.6673548 19.6168421,24.6673548 L23.0584016,24.6673548 C23.4385185,24.6673548 23.7467446,24.9733935 23.7467446,25.3508129 L23.7467446,36.9690581 C23.7467446,37.3464774 23.4385185,37.6525161 23.0584016,37.6525161 Z" id="Shape" fill-opacity="0.752943841" fill="#8A83AC"></path>
                <path d="M29.9415205,37.6525161 L26.499961,37.6525161 C26.1198441,37.6525161 25.8116179,37.3464774 25.8116179,36.9690581 L25.8116179,8.94859355 C25.8116179,8.57117419 26.1198441,8.26513548 26.499961,8.26513548 L29.9415205,8.26513548 C30.3216374,8.26513548 30.6298635,8.57117419 30.6298635,8.94859355 L30.6298635,36.9690581 C30.6298635,37.3464774 30.3216374,37.6525161 29.9415205,37.6525161 Z" id="Shape" fill="#DDDDDD"></path>
                <path d="M29.9415205,37.6525161 L26.499961,37.6525161 C26.1198441,37.6525161 25.8116179,37.3464774 25.8116179,36.9690581 L25.8116179,17.1497032 C25.8116179,16.7722839 26.1198441,16.4662452 26.499961,16.4662452 L29.9415205,16.4662452 C30.3216374,16.4662452 30.6298635,16.7722839 30.6298635,17.1497032 L30.6298635,36.9690581 C30.6298635,37.3464774 30.3216374,37.6525161 29.9415205,37.6525161 Z" id="Shape" fill="#CACACA"></path>
                <path d="M9.29216374,37.6525161 L5.85060429,37.6525161 C5.47048733,37.6525161 5.16226121,37.3464774 5.16226121,36.9690581 L5.16226121,25.3508129 C5.16226121,24.9733935 5.47048733,24.6673548 5.85060429,24.6673548 L9.29216374,24.6673548 C9.6722807,24.6673548 9.98050682,24.9733935 9.98050682,25.3508129 L9.98050682,36.9690581 C9.98050682,37.3464774 9.6722807,37.6525161 9.29216374,37.6525161 Z" id="Shape" fill-opacity="0.752943841" fill="#8A83AC"></path>
                <path d="M36.8246394,37.6525161 L33.3830799,37.6525161 C33.002963,37.6525161 32.6947368,37.3464774 32.6947368,36.9690581 L32.6947368,4.84807742 C32.6947368,4.47065806 33.002963,4.16461935 33.3830799,4.16461935 L36.8246394,4.16461935 C37.2047563,4.16461935 37.5129825,4.47065806 37.5129825,4.84807742 L37.5129825,36.9691355 C37.5129045,37.3464774 37.2047563,37.6525161 36.8246394,37.6525161 Z" id="Shape" fill-opacity="0.752943841" fill="#8A83AC"></path>
                <path d="M36.8246394,37.6525161 L33.3830799,37.6525161 C33.002963,37.6525161 32.6947368,37.3464774 32.6947368,36.9690581 L32.6947368,13.0491871 C32.6947368,12.6717677 33.002963,12.365729 33.3830799,12.365729 L36.8246394,12.365729 C37.2047563,12.365729 37.5129825,12.6717677 37.5129825,13.0491871 L37.5129825,36.9691355 C37.5129045,37.3464774 37.2047563,37.6525161 36.8246394,37.6525161 Z" id="Shape" fill-opacity="0.752943841" fill="#8A83AC"></path>
                <path d="M16.1752827,37.6525161 L12.7337232,37.6525161 C12.3536062,37.6525161 12.0453801,37.3464774 12.0453801,36.9690581 L12.0453801,17.1497032 C12.0453801,16.7722839 12.3536062,16.4662452 12.7337232,16.4662452 L16.1752827,16.4662452 C16.5553996,16.4662452 16.8636257,16.7722839 16.8636257,17.1497032 L16.8636257,36.9690581 C16.8636257,37.3464774 16.5553996,37.6525161 16.1752827,37.6525161 Z" id="Shape" fill="#E1E1E1"></path>
                <path d="M16.1752827,37.6525161 L12.7337232,37.6525161 C12.3536062,37.6525161 12.0453801,37.3464774 12.0453801,36.9690581 L12.0453801,21.2502968 C12.0453801,20.8728774 12.3536062,20.5668387 12.7337232,20.5668387 L16.1752827,20.5668387 C16.5553996,20.5668387 16.8636257,20.8728774 16.8636257,21.2502968 L16.8636257,36.9690581 C16.8636257,37.3464774 16.5553996,37.6525161 16.1752827,37.6525161 Z" id="Shape" fill="#D2D2D2"></path>
                <path d="M9.29216374,37.6525161 L5.85060429,37.6525161 C5.47048733,37.6525161 5.16226121,37.3464774 5.16226121,36.9690581 L5.16226121,29.4514065 C5.16226121,29.0739871 5.47048733,28.7679484 5.85060429,28.7679484 L9.29216374,28.7679484 C9.6722807,28.7679484 9.98050682,29.0739871 9.98050682,29.4514065 L9.98050682,36.9690581 C9.98050682,37.3464774 9.6722807,37.6525161 9.29216374,37.6525161 Z" id="Shape" fill-opacity="0.752943841" fill="#8A83AC"></path>
                <g id="Group" transform="translate(0.000000, 4.103226)" fill="#D7DEED">
                    <path d="M2.06495127,30.1321548 L0.68834308,30.1321548 C0.308226121,30.1321548 0,29.8261161 0,29.4486968 L0,29.4486968 C0,29.0712774 0.308226121,28.7652387 0.68834308,28.7652387 L2.06495127,28.7652387 L2.06495127,30.1321548 Z" id="Shape"></path>
                    <path d="M2.06495127,26.0315613 L0.68834308,26.0315613 C0.308226121,26.0315613 0,25.7255226 0,25.3481032 L0,25.3481032 C0,24.9706839 0.308226121,24.6646452 0.68834308,24.6646452 L2.06495127,24.6646452 L2.06495127,26.0315613 Z" id="Shape"></path>
                    <path d="M2.06495127,21.9310452 L0.68834308,21.9310452 C0.308226121,21.9310452 0,21.6250065 0,21.2475871 L0,21.2475871 C0,20.8701677 0.308226121,20.564129 0.68834308,20.564129 L2.06495127,20.564129 L2.06495127,21.9310452 Z" id="Shape"></path>
                    <path d="M2.06495127,17.8304516 L0.68834308,17.8304516 C0.308226121,17.8304516 0,17.5244129 0,17.1469935 L0,17.1469935 C0,16.7695742 0.308226121,16.4635355 0.68834308,16.4635355 L2.06495127,16.4635355 L2.06495127,17.8304516 Z" id="Shape"></path>
                    <path d="M2.06495127,13.7299355 L0.68834308,13.7299355 C0.308226121,13.7299355 0,13.4238968 0,13.0464774 L0,13.0464774 C0,12.6690581 0.308226121,12.3630194 0.68834308,12.3630194 L2.06495127,12.3630194 L2.06495127,13.7299355 Z" id="Shape"></path>
                    <path d="M2.06495127,9.62934194 L0.68834308,9.62934194 C0.308226121,9.62934194 0,9.32330323 0,8.94588387 L0,8.94588387 C0,8.56846452 0.308226121,8.26242581 0.68834308,8.26242581 L2.06495127,8.26242581 L2.06495127,9.62934194 Z" id="Shape"></path>
                    <path d="M2.06495127,5.52882581 L0.68834308,5.52882581 C0.308226121,5.52882581 0,5.2227871 0,4.84536774 L0,4.84536774 C0,4.46794839 0.308226121,4.16190968 0.68834308,4.16190968 L2.06495127,4.16190968 L2.06495127,5.52882581 Z" id="Shape"></path>
                    <path d="M2.06495127,1.42823226 L0.68834308,1.42823226 C0.308226121,1.42823226 0,1.12227097 0,0.744851613 L0,0.744851613 C0,0.367432258 0.308226121,0.0613935484 0.68834308,0.0613935484 L2.06495127,0.0613935484 L2.06495127,1.42823226 Z" id="Shape"></path>
                </g>
                <path d="M2.06495127,37.6525161 L2.06495127,37.6525161 C1.68483431,37.6525161 1.37660819,37.3464774 1.37660819,36.9690581 L1.37660819,0.747483871 C1.37660819,0.370064516 1.68483431,0.0640258065 2.06495127,0.0640258065 L2.06495127,0.0640258065 C2.44506823,0.0640258065 2.75329435,0.370064516 2.75329435,0.747483871 L2.75329435,36.9690581 C2.75321637,37.3464774 2.44506823,37.6525161 2.06495127,37.6525161 Z" id="Shape" fill="#C7CFE2"></path>
                <path d="M0,37.6525161 L0,37.6525161 C0,37.2750968 0.308226121,36.9690581 0.68834308,36.9690581 L39.2337622,36.9690581 C39.6138791,36.9690581 39.9221053,37.2750968 39.9221053,37.6525161 L39.9221053,37.6525161 C39.9221053,38.0299355 39.6138791,38.3359742 39.2337622,38.3359742 L0.68834308,38.3359742 C0.308226121,38.3358968 0,38.0299355 0,37.6525161 Z" id="Shape" fill="#AFB9D2"></path>
            </g>
        </g>
    </g>
</svg>