<?xml version="1.0" encoding="UTF-8"?>
<svg width="50px" height="50px" viewBox="0 0 50 50" version="1.1" xmlns="http://www.w3.org/2000/svg" xmlns:xlink="http://www.w3.org/1999/xlink">
    <!-- Generator: Sketch 43.2 (39069) - http://www.bohemiancoding.com/sketch -->
    <title>twitter</title>
    <desc>Created with Sketch.</desc>
    <defs></defs>
    <g id="icons" stroke="none" stroke-width="1" fill="none" fill-rule="evenodd">
        <g id="twitter" fill-rule="nonzero" fill="#FFFFFF">
            <g transform="translate(1.000000, 5.000000)" id="Shape">
                <path d="M47.1395036,4.6994152 C46.0752117,5.17204678 44.9703942,5.54491228 43.8367299,5.8148538 C45.0858978,4.62608187 46.0251095,3.13918129 46.5549781,1.47953216 L46.5549781,1.47953216 C46.706219,1.00573099 46.1923504,0.596023392 45.7651387,0.849707602 L45.7651387,0.849707602 C44.1880292,1.78654971 42.4892263,2.48935673 40.7157956,2.93883041 C40.6129051,2.96491228 40.5067445,2.97812865 40.4002336,2.97812865 C40.0771971,2.97812865 39.7631533,2.8580117 39.516146,2.64 C37.6293139,0.974619883 35.2025693,0.0574269006 32.6830949,0.0574269006 C31.5928759,0.0574269006 30.492146,0.227602339 29.4113869,0.563274854 C26.0628321,1.60339181 23.4791241,4.36959064 22.6684964,7.78245614 C22.3643796,9.0625731 22.2820438,10.3438596 22.4235912,11.5906433 C22.4398248,11.7339181 22.3722044,11.8339181 22.3305109,11.8808187 C22.2572847,11.9630409 22.1534599,12.0101754 22.0456642,12.0101754 C22.033635,12.0101754 22.0212555,12.0095906 22.0089927,12.0084211 C14.6791241,11.3264327 8.06937226,7.78994152 3.39725547,2.05052632 L3.39725547,2.05052632 C3.1590073,1.75777778 2.70213139,1.79368421 2.51223358,2.11988304 L2.51223358,2.11988304 C1.59731387,3.69181287 1.11381022,5.4897076 1.11381022,7.31918129 C1.11381022,10.122924 2.23859854,12.7651462 4.19235036,14.691345 C3.37074453,14.4962573 2.57553285,14.1890058 1.83684672,13.7781287 L1.83684672,13.7781287 C1.47947445,13.5792982 1.03976642,13.8348538 1.03474453,14.2442105 L1.03474453,14.2442105 C0.983591241,18.4093567 3.41862774,22.1155556 7.06639416,23.7844444 C6.99293431,23.7861988 6.91947445,23.7870175 6.84589781,23.7870175 C6.26767883,23.7870175 5.68221898,23.7311111 5.1059854,23.6208187 L5.1059854,23.6208187 C4.70353285,23.5438596 4.36543066,23.9261988 4.49039416,24.3169591 L4.49039416,24.3169591 C5.67439416,28.0188304 8.85710949,30.7474854 12.6658102,31.3670175 C9.50481752,33.4920468 5.82376642,34.6129825 1.99252555,34.6129825 L0.798131387,34.6122807 C0.430131387,34.6122807 0.118890511,34.8525146 0.0251094891,35.2094737 C-0.067270073,35.5610526 0.102890511,35.9319298 0.41670073,36.1147368 C4.73389781,38.6308772 9.65827737,39.9607018 14.6596204,39.9607018 C19.0374307,39.9607018 23.1324964,39.0906433 26.8311825,37.3748538 C30.2218978,35.8018713 33.218219,33.5533333 35.7368759,30.6916959 C38.0831533,28.0259649 39.9178978,24.948655 41.1899562,21.5453801 C42.4025693,18.3012865 43.0435036,14.8397661 43.0435036,11.5349708 L43.0435036,11.3775439 C43.0433869,10.8469006 43.2830365,10.3476023 43.7011387,10.0077193 C45.287708,8.71766082 46.6693139,7.19906433 47.8074161,5.49415205 L47.8074161,5.49415205 C48.1079124,5.04397661 47.6339854,4.47976608 47.1395036,4.6994152 L47.1395036,4.6994152 Z"></path>
            </g>
        </g>
    </g>
</svg>