<?xml version="1.0" encoding="UTF-8"?>
<svg width="50px" height="50px" viewBox="0 0 50 50" version="1.1" xmlns="http://www.w3.org/2000/svg" xmlns:xlink="http://www.w3.org/1999/xlink">
    <!-- Generator: Sketch 43.2 (39069) - http://www.bohemiancoding.com/sketch -->
    <title>Android</title>
    <desc>Created with Sketch.</desc>
    <defs></defs>
    <g id="icons" stroke="none" stroke-width="1" fill="none" fill-rule="evenodd">
        <g id="Android">
            <rect id="Rectangle-3" stroke="#BBBBBB" stroke-width="0.5" x="0.25" y="0.25" width="49.5" height="49.5" rx="2"></rect>
            <g id="android" transform="translate(13.000000, 10.000000)" fill-rule="nonzero" fill="#444444">
                <path d="M15.5034894,2.93637931 L16.7785532,0.78362069 C16.9235745,0.538448276 16.8454468,0.220862069 16.6034043,0.0739655172 C16.3608511,-0.0734482759 16.0478298,0.00568965517 15.9028085,0.25137931 L14.5572766,2.52310345 C13.7560851,2.23448276 12.8982128,2.06896552 12.0005106,2.06896552 C11.1028085,2.06896552 10.2449362,2.23448276 9.44374468,2.52310345 L8.09821277,0.25137931 C7.95319149,0.00568965517 7.63965957,-0.0729310345 7.39761702,0.0739655172 C7.15557447,0.220862069 7.07744681,0.538448276 7.22246809,0.78362069 L8.49753191,2.93637931 C6.03268085,4.22689655 4.34093617,6.82862069 4.34093617,9.82810345 C4.34093617,10.1141379 4.56970213,10.3453448 4.85157447,10.3453448 L19.1494468,10.3453448 C19.4313191,10.3453448 19.6600851,10.1141379 19.6600851,9.82810345 C19.6595745,6.82913793 17.9683404,4.22741379 15.5034894,2.93637931 Z M5.38161702,9.31086207 C5.64306383,5.8437931 8.51182979,3.10396552 12.0005106,3.10396552 C15.4891915,3.10396552 18.3579574,5.8437931 18.6194043,9.31086207 L5.38161702,9.31086207 Z" id="Shape"></path>
                <path d="M15.563234,5.87793103 L14.8902128,5.87793103 C14.7043404,5.87793103 14.5537021,6.03051724 14.5537021,6.2187931 L14.5537021,6.90051724 C14.5537021,7.0887931 14.7043404,7.24137931 14.8902128,7.24137931 L15.5637447,7.24137931 C15.749617,7.24137931 15.9002553,7.0887931 15.9002553,6.90051724 L15.9002553,6.2187931 C15.9002553,6.03051724 15.7491064,5.87793103 15.563234,5.87793103 Z" id="Shape"></path>
                <path d="M9.11029787,5.87793103 L8.43676596,5.87793103 C8.25089362,5.87793103 8.10025532,6.03051724 8.10025532,6.2187931 L8.10025532,6.90051724 C8.10025532,7.0887931 8.25089362,7.24137931 8.43676596,7.24137931 L9.11029787,7.24137931 C9.29617021,7.24137931 9.44680851,7.0887931 9.44680851,6.90051724 L9.44680851,6.2187931 C9.44680851,6.03051724 9.29617021,5.87793103 9.11029787,5.87793103 Z" id="Shape"></path>
                <path d="M19.1489362,10.8625862 L4.85106383,10.8625862 C4.56919149,10.8625862 4.34042553,11.0937931 4.34042553,11.3798276 L4.34042553,21.8131034 C4.34042553,23.1905172 5.448,24.3108621 6.80885106,24.3108621 L7.40425532,24.3108621 L7.40425532,27.4174138 C7.40425532,28.5563793 8.32034043,29.4832759 9.44680851,29.4832759 C10.5732766,29.4832759 11.4893617,28.5563793 11.4893617,27.4174138 L11.4893617,24.3108621 L12.5106383,24.3108621 L12.5106383,27.4174138 C12.5106383,28.5563793 13.4267234,29.4832759 14.5531915,29.4832759 C15.6796596,29.4832759 16.5957447,28.5563793 16.5957447,27.4174138 L16.5957447,24.3108621 L17.1911489,24.3108621 C18.5525106,24.3108621 19.6595745,23.1905172 19.6595745,21.8131034 L19.6595745,11.3798276 C19.6595745,11.0937931 19.4313191,10.8625862 19.1489362,10.8625862 Z M18.6382979,21.8131034 C18.6382979,22.62 17.9892766,23.2763793 17.1911489,23.2763793 L16.0851064,23.2763793 C15.803234,23.2763793 15.5744681,23.5075862 15.5744681,23.7936207 L15.5744681,27.4174138 C15.5744681,27.9863793 15.1164255,28.4487931 14.5531915,28.4487931 C13.9899574,28.4487931 13.5319149,27.9858621 13.5319149,27.4174138 L13.5319149,23.7936207 C13.5319149,23.5075862 13.3031489,23.2763793 13.0212766,23.2763793 L10.9787234,23.2763793 C10.6968511,23.2763793 10.4680851,23.5075862 10.4680851,23.7936207 L10.4680851,27.4174138 C10.4680851,27.9863793 10.0100426,28.4487931 9.44680851,28.4487931 C8.88357447,28.4487931 8.42553191,27.9858621 8.42553191,27.4174138 L8.42553191,23.7936207 C8.42553191,23.5075862 8.19676596,23.2763793 7.91489362,23.2763793 L6.8093617,23.2763793 C6.01123404,23.2763793 5.36170213,22.6194828 5.36170213,21.8131034 L5.36170213,11.897069 L18.6382979,11.897069 L18.6382979,21.8131034 Z" id="Shape"></path>
                <path d="M21.9574468,10.8625862 C20.9719149,10.8625862 20.1702128,11.6756897 20.1702128,12.675 L20.1702128,19.9122414 C20.1702128,20.9115517 20.9719149,21.7246552 21.9574468,21.7246552 C22.9429787,21.7246552 23.7446809,20.9115517 23.7446809,19.9122414 L23.7446809,12.675 C23.7446809,11.6756897 22.9429787,10.8625862 21.9574468,10.8625862 Z M22.7234043,19.9122414 C22.7234043,20.3410345 22.3797447,20.6901724 21.9574468,20.6901724 C21.5351489,20.6901724 21.1914894,20.3410345 21.1914894,19.9122414 L21.1914894,12.675 C21.1914894,12.2462069 21.5351489,11.897069 21.9574468,11.897069 C22.3797447,11.897069 22.7234043,12.2462069 22.7234043,12.675 L22.7234043,19.9122414 Z" id="Shape"></path>
                <path d="M2.04255319,10.8625862 C1.05702128,10.8625862 0.255319149,11.6756897 0.255319149,12.675 L0.255319149,19.9122414 C0.255319149,20.9115517 1.05702128,21.7246552 2.04255319,21.7246552 C3.02808511,21.7246552 3.82978723,20.9115517 3.82978723,19.9122414 L3.82978723,12.675 C3.82978723,11.6756897 3.02808511,10.8625862 2.04255319,10.8625862 Z M2.80851064,19.9122414 C2.80851064,20.3410345 2.46485106,20.6901724 2.04255319,20.6901724 C1.62025532,20.6901724 1.27659574,20.3410345 1.27659574,19.9122414 L1.27659574,12.675 C1.27659574,12.2462069 1.62025532,11.897069 2.04255319,11.897069 C2.46485106,11.897069 2.80851064,12.2462069 2.80851064,12.675 L2.80851064,19.9122414 Z" id="Shape"></path>
            </g>
        </g>
    </g>
</svg>