<?xml version="1.0" encoding="UTF-8"?>
<svg width="50px" height="50px" viewBox="0 0 50 50" version="1.1" xmlns="http://www.w3.org/2000/svg" xmlns:xlink="http://www.w3.org/1999/xlink">
    <!-- Generator: Sketch 43.2 (39069) - http://www.bohemiancoding.com/sketch -->
    <title>artificial_intelligence</title>
    <desc>Created with Sketch.</desc>
    <defs></defs>
    <g id="icons" stroke="none" stroke-width="1" fill="none" fill-rule="evenodd">
        <g id="artificial_intelligence">
            <rect id="Rectangle-3" stroke="#BBBBBB" stroke-width="0.5" x="0.25" y="0.25" width="49.5" height="49.5" rx="2"></rect>
            <g id="artificial-intelligence" transform="translate(10.000000, 10.000000)" fill-rule="nonzero" fill="#444444">
                <path d="M2.41935484,27.1858065 L2.41935484,22.0330645 L3.53370968,21.2903226 L5.32258065,21.2903226 L5.32258065,20.3225806 L3.24048387,20.3225806 L1.4516129,21.5153226 L1.4516129,27.1858065 C0.889354839,27.386129 0.483870968,27.9183871 0.483870968,28.5483871 C0.483870968,29.3487097 1.13516129,30 1.93548387,30 C2.73580645,30 3.38709677,29.3487097 3.38709677,28.5483871 C3.38709677,27.9183871 2.98112903,27.386129 2.41935484,27.1858065 Z M1.93548387,29.0322581 C1.6683871,29.0322581 1.4516129,28.8154839 1.4516129,28.5483871 C1.4516129,28.2812903 1.6683871,28.0645161 1.93548387,28.0645161 C2.20258065,28.0645161 2.41935484,28.2812903 2.41935484,28.5483871 C2.41935484,28.8154839 2.20258065,29.0322581 1.93548387,29.0322581 Z" id="Shape"></path>
                <path d="M2.81419355,19.3548387 L5.32258065,19.3548387 L5.32258065,18.3870968 L2.81419355,18.3870968 C2.61387097,17.8253226 2.0816129,17.4193548 1.4516129,17.4193548 C0.651290323,17.4193548 0,18.0706452 0,18.8709677 C0,19.6712903 0.651290323,20.3225806 1.4516129,20.3225806 C2.0816129,20.3225806 2.61387097,19.9166129 2.81419355,19.3548387 Z M0.967741935,18.8709677 C0.967741935,18.603871 1.18451613,18.3870968 1.4516129,18.3870968 C1.71870968,18.3870968 1.93548387,18.603871 1.93548387,18.8709677 C1.93548387,19.1380645 1.71870968,19.3548387 1.4516129,19.3548387 C1.18451613,19.3548387 0.967741935,19.1380645 0.967741935,18.8709677 Z" id="Shape"></path>
                <path d="M1.4516129,16.4516129 C2.0816129,16.4516129 2.61387097,16.0456452 2.81419355,15.483871 L5.32258065,15.483871 L5.32258065,14.516129 L2.81419355,14.516129 C2.61387097,13.953871 2.0816129,13.5483871 1.4516129,13.5483871 C0.651290323,13.5483871 0,14.1996774 0,15 C0,15.8003226 0.651290323,16.4516129 1.4516129,16.4516129 Z M1.4516129,14.516129 C1.71870968,14.516129 1.93548387,14.7329032 1.93548387,15 C1.93548387,15.2670968 1.71870968,15.483871 1.4516129,15.483871 C1.18451613,15.483871 0.967741935,15.2670968 0.967741935,15 C0.967741935,14.7329032 1.18451613,14.516129 1.4516129,14.516129 Z" id="Shape"></path>
                <rect id="Rectangle-path" x="3.38709677" y="16.4516129" width="1.93548387" height="1"></rect>
                <rect id="Rectangle-path" x="3.38709677" y="12.5806452" width="1.93548387" height="1"></rect>
                <rect id="Rectangle-path" x="0" y="10.6451613" width="5.32258065" height="1"></rect>
                <path d="M3.67064516,9.67741935 L5.32258065,9.67741935 L5.32258065,8.70967742 L4.07129032,8.70967742 L2.90322581,7.5416129 L2.90322581,6.68516129 C3.465,6.48483871 3.87096774,5.95258065 3.87096774,5.32258065 C3.87096774,4.52225806 3.21967742,3.87096774 2.41935484,3.87096774 C1.61903226,3.87096774 0.967741935,4.52225806 0.967741935,5.32258065 C0.967741935,5.95258065 1.37322581,6.48483871 1.93548387,6.68516129 L1.93548387,7.94225806 L3.67064516,9.67741935 Z M2.41935484,4.83870968 C2.68645161,4.83870968 2.90322581,5.05548387 2.90322581,5.32258065 C2.90322581,5.58967742 2.68645161,5.80645161 2.41935484,5.80645161 C2.15225806,5.80645161 1.93548387,5.58967742 1.93548387,5.32258065 C1.93548387,5.05548387 2.15225806,4.83870968 2.41935484,4.83870968 Z" id="Shape"></path>
                <polygon id="Shape" points="8.70967742 4.07129032 8.70967742 5.32258065 9.67741935 5.32258065 9.67741935 3.67064516 7.94225806 1.93548387 0 1.93548387 0 2.90322581 7.5416129 2.90322581"></polygon>
                <polygon id="Shape" points="10.6451613 2.13580645 10.6451613 5.32258065 11.6129032 5.32258065 11.6129032 1.73516129 9.87774194 0 0 0 0 0.967741935 9.47709677 0.967741935"></polygon>
                <rect id="Rectangle-path" x="12.5806452" y="3.38709677" width="1" height="1.93548387"></rect>
                <rect id="Rectangle-path" x="18.3870968" y="0" width="1" height="5.32258065"></rect>
                <path d="M14.516129,2.81419355 L14.516129,5.32258065 L15.483871,5.32258065 L15.483871,3.58741935 L16.4516129,4.55516129 L16.4516129,5.32258065 L17.4193548,5.32258065 L17.4193548,4.15451613 L15.8704839,2.60564516 C16.2212903,2.34048387 16.4516129,1.92435484 16.4516129,1.4516129 C16.4516129,0.651290323 15.8003226,0 15,0 C14.1996774,0 13.5483871,0.651290323 13.5483871,1.4516129 C13.5483871,2.0816129 13.953871,2.61387097 14.516129,2.81419355 Z M15,0.967741935 C15.2670968,0.967741935 15.483871,1.18451613 15.483871,1.4516129 C15.483871,1.71870968 15.2670968,1.93548387 15,1.93548387 C14.7329032,1.93548387 14.516129,1.71870968 14.516129,1.4516129 C14.516129,1.18451613 14.7329032,0.967741935 15,0.967741935 Z" id="Shape"></path>
                <path d="M21.2903226,3.10354839 L22.4583871,1.93548387 L27.1858065,1.93548387 C27.3319355,2.34532258 27.6546774,2.66806452 28.0645161,2.81419355 L28.0645161,9.47709677 L26.8964516,10.6451613 L24.6774194,10.6451613 L24.6774194,11.6129032 L27.2970968,11.6129032 L29.0322581,9.87774194 L29.0322581,2.81419355 C29.5940323,2.61387097 30,2.0816129 30,1.4516129 C30,0.651290323 29.3487097,0 28.5483871,0 C27.9183871,0 27.386129,0.405967742 27.1858065,0.967741935 L22.0577419,0.967741935 L20.3225806,2.70290323 L20.3225806,5.32258065 L21.2903226,5.32258065 L21.2903226,3.10354839 Z M28.5483871,0.967741935 C28.8154839,0.967741935 29.0322581,1.18451613 29.0322581,1.4516129 C29.0322581,1.71870968 28.8154839,1.93548387 28.5483871,1.93548387 C28.2812903,1.93548387 28.0645161,1.71870968 28.0645161,1.4516129 C28.0645161,1.18451613 28.2812903,0.967741935 28.5483871,0.967741935 Z" id="Shape"></path>
                <path d="M25.0451613,5.89064516 L26.1290323,6.97451613 L26.1290323,7.5416129 L24.9609677,8.70967742 L24.6774194,8.70967742 L24.6774194,9.67741935 L25.3616129,9.67741935 L27.0967742,7.94225806 L27.0967742,6.57387097 L25.3616129,4.83870968 L25.0722581,4.83870968 C24.8719355,4.27693548 24.3396774,3.87096774 23.7096774,3.87096774 C22.9093548,3.87096774 22.2580645,4.52225806 22.2580645,5.32258065 C22.2580645,6.12290323 22.9093548,6.77419355 23.7096774,6.77419355 C24.3087097,6.77419355 24.8235484,6.40935484 25.0451613,5.89064516 Z M23.7096774,5.80645161 C23.4425806,5.80645161 23.2258065,5.58967742 23.2258065,5.32258065 C23.2258065,5.05548387 23.4425806,4.83870968 23.7096774,4.83870968 C23.9767742,4.83870968 24.1935484,5.05548387 24.1935484,5.32258065 C24.1935484,5.58967742 23.9767742,5.80645161 23.7096774,5.80645161 Z" id="Shape"></path>
                <rect id="Rectangle-path" x="24.6774194" y="12.5806452" width="5.32258065" height="1"></rect>
                <path d="M29.0322581,27.1858065 L29.0322581,16.2512903 L27.2970968,14.516129 L24.6774194,14.516129 L24.6774194,15.483871 L26.8964516,15.483871 L28.0645161,16.6519355 L28.0645161,19.1545161 L27.2970968,18.3870968 L24.6774194,18.3870968 L24.6774194,19.3548387 L26.8964516,19.3548387 L28.0645161,20.5229032 L28.0645161,27.1858065 C27.5022581,27.386129 27.0967742,27.9183871 27.0967742,28.5483871 C27.0967742,29.3487097 27.7480645,30 28.5483871,30 C29.3487097,30 30,29.3487097 30,28.5483871 C30,27.9183871 29.5940323,27.386129 29.0322581,27.1858065 Z M28.5483871,29.0322581 C28.2812903,29.0322581 28.0645161,28.8154839 28.0645161,28.5483871 C28.0645161,28.2812903 28.2812903,28.0645161 28.5483871,28.0645161 C28.8154839,28.0645161 29.0322581,28.2812903 29.0322581,28.5483871 C29.0322581,28.8154839 28.8154839,29.0322581 28.5483871,29.0322581 Z" id="Shape"></path>
                <rect id="Rectangle-path" x="24.6774194" y="16.4516129" width="1.93548387" height="1"></rect>
                <path d="M27.0967742,22.0577419 L25.3616129,20.3225806 L24.6774194,20.3225806 L24.6774194,21.2903226 L24.9609677,21.2903226 L26.1290323,22.4583871 L26.1290323,25.1612903 L21.2903226,25.1612903 L21.2903226,24.6774194 L20.3225806,24.6774194 L20.3225806,26.1290323 L26.1290323,26.1290323 L26.1290323,26.8964516 L24.9609677,28.0645161 L24.1045161,28.0645161 C23.9041935,27.5027419 23.3719355,27.0967742 22.7419355,27.0967742 C21.9416129,27.0967742 21.2903226,27.7480645 21.2903226,28.5483871 C21.2903226,29.3487097 21.9416129,30 22.7419355,30 C23.3719355,30 23.9041935,29.5940323 24.1045161,29.0322581 L25.3616129,29.0322581 L27.0967742,27.2970968 L27.0967742,22.0577419 Z M22.7419355,29.0322581 C22.4748387,29.0322581 22.2580645,28.8154839 22.2580645,28.5483871 C22.2580645,28.2812903 22.4748387,28.0645161 22.7419355,28.0645161 C23.0090323,28.0645161 23.2258065,28.2812903 23.2258065,28.5483871 C23.2258065,28.8154839 23.0090323,29.0322581 22.7419355,29.0322581 Z" id="Shape"></path>
                <path d="M9.67741935,24.6774194 L8.70967742,24.6774194 L8.70967742,25.1612903 L6.20129032,25.1612903 C6.00096774,24.5995161 5.46870968,24.1935484 4.83870968,24.1935484 C4.0383871,24.1935484 3.38709677,24.8448387 3.38709677,25.6451613 C3.38709677,26.4454839 4.0383871,27.0967742 4.83870968,27.0967742 C5.46870968,27.0967742 6.00096774,26.6908065 6.20129032,26.1290323 L9.67741935,26.1290323 L9.67741935,24.6774194 Z M4.83870968,26.1290323 C4.5716129,26.1290323 4.35483871,25.9122581 4.35483871,25.6451613 C4.35483871,25.3780645 4.5716129,25.1612903 4.83870968,25.1612903 C5.10580645,25.1612903 5.32258065,25.3780645 5.32258065,25.6451613 C5.32258065,25.9122581 5.10580645,26.1290323 4.83870968,26.1290323 Z" id="Shape"></path>
                <rect id="Rectangle-path" x="18.3870968" y="24.6774194" width="1" height="5.32258065"></rect>
                <rect id="Rectangle-path" x="16.4516129" y="24.6774194" width="1" height="5.32258065"></rect>
                <path d="M14.516129,25.4448387 L13.5483871,26.4125806 L13.5483871,24.6774194 L12.5806452,24.6774194 L12.5806452,27.1858065 C12.0183871,27.386129 11.6129032,27.9183871 11.6129032,28.5483871 C11.6129032,29.3487097 12.2641935,30 13.0645161,30 C13.8648387,30 14.516129,29.3487097 14.516129,28.5483871 C14.516129,28.0756452 14.2858065,27.6595161 13.935,27.3943548 L15.483871,25.8454839 L15.483871,24.6774194 L14.516129,24.6774194 L14.516129,25.4448387 Z M13.0645161,29.0322581 C12.7974194,29.0322581 12.5806452,28.8154839 12.5806452,28.5483871 C12.5806452,28.2812903 12.7974194,28.0645161 13.0645161,28.0645161 C13.3316129,28.0645161 13.5483871,28.2812903 13.5483871,28.5483871 C13.5483871,28.8154839 13.3316129,29.0322581 13.0645161,29.0322581 Z" id="Shape"></path>
                <polygon id="Shape" points="11.6129032 24.6774194 10.6451613 24.6774194 10.6451613 25.9287097 9.19354839 27.3803226 9.19354839 30 10.1612903 30 10.1612903 27.7809677 11.6129032 26.3293548"></polygon>
                <path d="M20.3225806,23.7096774 L21.2903226,23.7096774 L21.2903226,22.7419355 L22.7419355,22.7419355 L22.7419355,21.2903226 L23.7096774,21.2903226 L23.7096774,20.3225806 L22.7419355,20.3225806 L22.7419355,19.3548387 L23.7096774,19.3548387 L23.7096774,18.3870968 L22.7419355,18.3870968 L22.7419355,17.4193548 L23.7096774,17.4193548 L23.7096774,16.4516129 L22.7419355,16.4516129 L22.7419355,15.483871 L23.7096774,15.483871 L23.7096774,14.516129 L22.7419355,14.516129 L22.7419355,13.5483871 L23.7096774,13.5483871 L23.7096774,12.5806452 L22.7419355,12.5806452 L22.7419355,11.6129032 L23.7096774,11.6129032 L23.7096774,10.6451613 L22.7419355,10.6451613 L22.7419355,9.67741935 L23.7096774,9.67741935 L23.7096774,8.70967742 L22.7419355,8.70967742 L22.7419355,7.25806452 L21.2903226,7.25806452 L21.2903226,6.29032258 L20.3225806,6.29032258 L20.3225806,7.25806452 L19.3548387,7.25806452 L19.3548387,6.29032258 L18.3870968,6.29032258 L18.3870968,7.25806452 L17.4193548,7.25806452 L17.4193548,6.29032258 L16.4516129,6.29032258 L16.4516129,7.25806452 L15.483871,7.25806452 L15.483871,6.29032258 L14.516129,6.29032258 L14.516129,7.25806452 L13.5483871,7.25806452 L13.5483871,6.29032258 L12.5806452,6.29032258 L12.5806452,7.25806452 L11.6129032,7.25806452 L11.6129032,6.29032258 L10.6451613,6.29032258 L10.6451613,7.25806452 L9.67741935,7.25806452 L9.67741935,6.29032258 L8.70967742,6.29032258 L8.70967742,7.25806452 L8.50935484,7.25806452 L7.25806452,8.50935484 L7.25806452,8.70967742 L6.29032258,8.70967742 L6.29032258,9.67741935 L7.25806452,9.67741935 L7.25806452,10.6451613 L6.29032258,10.6451613 L6.29032258,11.6129032 L7.25806452,11.6129032 L7.25806452,12.5806452 L6.29032258,12.5806452 L6.29032258,13.5483871 L7.25806452,13.5483871 L7.25806452,14.516129 L6.29032258,14.516129 L6.29032258,15.483871 L7.25806452,15.483871 L7.25806452,16.4516129 L6.29032258,16.4516129 L6.29032258,17.4193548 L7.25806452,17.4193548 L7.25806452,18.3870968 L6.29032258,18.3870968 L6.29032258,19.3548387 L7.25806452,19.3548387 L7.25806452,20.3225806 L6.29032258,20.3225806 L6.29032258,21.2903226 L7.25806452,21.2903226 L7.25806452,22.7419355 L8.70967742,22.7419355 L8.70967742,23.7096774 L9.67741935,23.7096774 L9.67741935,22.7419355 L10.6451613,22.7419355 L10.6451613,23.7096774 L11.6129032,23.7096774 L11.6129032,22.7419355 L12.5806452,22.7419355 L12.5806452,23.7096774 L13.5483871,23.7096774 L13.5483871,22.7419355 L14.516129,22.7419355 L14.516129,23.7096774 L15.483871,23.7096774 L15.483871,22.7419355 L16.4516129,22.7419355 L16.4516129,23.7096774 L17.4193548,23.7096774 L17.4193548,22.7419355 L18.3870968,22.7419355 L18.3870968,23.7096774 L19.3548387,23.7096774 L19.3548387,22.7419355 L20.3225806,22.7419355 L20.3225806,23.7096774 Z M8.22580645,21.7741935 L8.22580645,8.91 L8.91,8.22580645 L21.7741935,8.22580645 L21.7741935,21.7741935 L8.22580645,21.7741935 Z" id="Shape"></path>
                <path d="M19.2875806,12.765 L20.1319355,11.9206452 L18.0793548,9.86806452 L17.235,10.7124194 C16.9833871,10.5803226 16.7216129,10.4719355 16.4516129,10.3867742 L16.4516129,9.19354839 L13.5483871,9.19354839 L13.5483871,10.3867742 C13.2779032,10.4719355 13.016129,10.5803226 12.765,10.7124194 L11.9206452,9.86806452 L9.86806452,11.9206452 L10.7124194,12.765 C10.5808065,13.0166129 10.4719355,13.2783871 10.3867742,13.5483871 L9.19354839,13.5483871 L9.19354839,16.4516129 L10.3867742,16.4516129 C10.4719355,16.7220968 10.5803226,16.983871 10.7124194,17.235 L9.86806452,18.0793548 L11.9206452,20.1319355 L12.765,19.2875806 C13.0166129,19.4191935 13.2779032,19.5280645 13.5483871,19.6132258 L13.5483871,20.8064516 L16.4516129,20.8064516 L16.4516129,19.6132258 C16.7220968,19.5280645 16.983871,19.4196774 17.235,19.2875806 L18.0793548,20.1319355 L20.1319355,18.0793548 L19.2875806,17.235 C19.4191935,16.983871 19.5280645,16.7220968 19.6132258,16.4516129 L20.8064516,16.4516129 L20.8064516,13.5483871 L19.6132258,13.5483871 C19.5280645,13.2779032 19.4196774,13.016129 19.2875806,12.765 Z M19.8387097,15.483871 L18.8574194,15.483871 L18.7717742,15.8603226 C18.675,16.2846774 18.5075806,16.6872581 18.2748387,17.0574194 L18.0687097,17.3845161 L18.7640323,18.0798387 L18.0798387,18.7640323 L17.3845161,18.0687097 L17.0574194,18.2748387 C16.6872581,18.5075806 16.2846774,18.675 15.8603226,18.7717742 L15.483871,18.8574194 L15.483871,19.8387097 L14.516129,19.8387097 L14.516129,18.8574194 L14.1396774,18.7717742 C13.7153226,18.675 13.3127419,18.5075806 12.9425806,18.2748387 L12.6154839,18.0687097 L11.9201613,18.7640323 L11.2359677,18.0798387 L11.9312903,17.3845161 L11.7251613,17.0574194 C11.4924194,16.6872581 11.325,16.2846774 11.2282258,15.8603226 L11.1425806,15.483871 L10.1612903,15.483871 L10.1612903,14.516129 L11.1425806,14.516129 L11.2282258,14.1396774 C11.325,13.7153226 11.4924194,13.3127419 11.7251613,12.9425806 L11.9312903,12.6154839 L11.2359677,11.9201613 L11.9201613,11.2359677 L12.6154839,11.9308065 L12.9425806,11.7246774 C13.3127419,11.4919355 13.7153226,11.3245161 14.1396774,11.2277419 L14.516129,11.1425806 L14.516129,10.1612903 L15.483871,10.1612903 L15.483871,11.1425806 L15.8603226,11.2282258 C16.2846774,11.325 16.6872581,11.4924194 17.0574194,11.7251613 L17.3845161,11.9312903 L18.0798387,11.2364516 L18.7640323,11.9206452 L18.0687097,12.6159677 L18.2748387,12.9430645 C18.5075806,13.3132258 18.675,13.7158065 18.7717742,14.1401613 L18.8574194,14.516129 L19.8387097,14.516129 L19.8387097,15.483871 Z" id="Shape"></path>
                <path d="M15,12.5806452 C13.6659677,12.5806452 12.5806452,13.6659677 12.5806452,15 C12.5806452,16.3340323 13.6659677,17.4193548 15,17.4193548 C16.3340323,17.4193548 17.4193548,16.3340323 17.4193548,15 C17.4193548,13.6659677 16.3340323,12.5806452 15,12.5806452 Z M15,16.4516129 C14.1996774,16.4516129 13.5483871,15.8003226 13.5483871,15 C13.5483871,14.1996774 14.1996774,13.5483871 15,13.5483871 C15.8003226,13.5483871 16.4516129,14.1996774 16.4516129,15 C16.4516129,15.8003226 15.8003226,16.4516129 15,16.4516129 Z" id="Shape"></path>
            </g>
        </g>
    </g>
</svg>