<?xml version="1.0" encoding="UTF-8"?>
<svg width="50px" height="50px" viewBox="0 0 50 50" version="1.1" xmlns="http://www.w3.org/2000/svg" xmlns:xlink="http://www.w3.org/1999/xlink">
    <!-- Generator: Sketch 43.2 (39069) - http://www.bohemiancoding.com/sketch -->
    <title>big_data</title>
    <desc>Created with Sketch.</desc>
    <defs></defs>
    <g id="icons" stroke="none" stroke-width="1" fill="none" fill-rule="evenodd">
        <g id="big_data">
            <rect id="Rectangle-3" stroke="#BBBBBB" stroke-width="0.5" x="0.25" y="0.25" width="49.5" height="49.5" rx="2"></rect>
            <g id="big-database" transform="translate(10.000000, 10.000000)" fill-rule="nonzero" fill="#444444">
                <path d="M2.5862069,0 C1.16234483,0 0,1.16234483 0,2.5862069 L0,27.4137931 C0,28.8376552 1.16234483,30 2.5862069,30 L27.4137931,30 C28.8376552,30 30,28.8376552 30,27.4137931 L30,2.5862069 C30,1.16234483 28.8376552,0 27.4137931,0 L2.5862069,0 Z M2.5862069,1.03448276 L27.4137931,1.03448276 C28.2823448,1.03448276 28.9655172,1.71765517 28.9655172,2.5862069 L28.9655172,27.4137931 C28.9655172,28.2823448 28.2823448,28.9655172 27.4137931,28.9655172 L2.5862069,28.9655172 C1.71765517,28.9655172 1.03448276,28.2823448 1.03448276,27.4137931 L1.03448276,2.5862069 C1.03448276,1.71765517 1.71765517,1.03448276 2.5862069,1.03448276 Z M3.62068966,2.06896552 C2.76993103,2.06896552 2.06896552,2.76993103 2.06896552,3.62068966 L2.06896552,8.79310345 C2.06896552,9.64386207 2.76993103,10.3448276 3.62068966,10.3448276 L26.3793103,10.3448276 C27.230069,10.3448276 27.9310345,9.64386207 27.9310345,8.79310345 L27.9310345,3.62068966 C27.9310345,2.76993103 27.230069,2.06896552 26.3793103,2.06896552 L3.62068966,2.06896552 Z M3.62068966,3.10344828 L26.3793103,3.10344828 C26.6747586,3.10344828 26.8965517,3.32524138 26.8965517,3.62068966 L26.8965517,8.79310345 C26.8965517,9.08855172 26.6747586,9.31034483 26.3793103,9.31034483 L3.62068966,9.31034483 C3.32524138,9.31034483 3.10344828,9.08855172 3.10344828,8.79310345 L3.10344828,3.62068966 C3.10344828,3.32524138 3.32524138,3.10344828 3.62068966,3.10344828 Z M4.13793103,3.87931034 C3.99506897,3.87931034 3.87931034,3.99506897 3.87931034,4.13793103 L3.87931034,7.24137931 C3.87724138,7.38424138 3.99144828,7.50165517 4.13431034,7.50362069 C4.27717241,7.50568966 4.39458621,7.39148276 4.39655172,7.24862069 L4.39655172,7.24127586 L4.39655172,4.39655172 L6.72413793,4.39655172 C6.867,4.39862069 6.98441379,4.28441379 6.98637931,4.14155172 C6.98844828,3.99868966 6.87424138,3.88127586 6.73137931,3.87931034 L6.72403448,3.87931034 L4.13793103,3.87931034 Z M9.82758621,5.68965517 C9.54196552,5.68562069 9.30703448,5.91393103 9.303,6.19955172 C9.29896552,6.48517241 9.52727586,6.72010345 9.81289655,6.72413793 C9.81775862,6.72424138 9.82262069,6.72424138 9.82748276,6.72413793 L20.1723103,6.72413793 C20.457931,6.72817241 20.6928621,6.49986207 20.6968966,6.21424138 C20.700931,5.92862069 20.4726207,5.69368966 20.187,5.68965517 C20.1821379,5.68955172 20.1772759,5.68955172 20.1724138,5.68965517 L9.82758621,5.68965517 Z M3.62068966,10.862069 C2.76993103,10.862069 2.06896552,11.5630345 2.06896552,12.4137931 L2.06896552,17.5862069 C2.06896552,18.4369655 2.76993103,19.137931 3.62068966,19.137931 L26.3793103,19.137931 C27.230069,19.137931 27.9310345,18.4369655 27.9310345,17.5862069 L27.9310345,12.4137931 C27.9310345,11.5630345 27.230069,10.862069 26.3793103,10.862069 L3.62068966,10.862069 Z M3.62068966,11.8965517 L26.3793103,11.8965517 C26.6747586,11.8965517 26.8965517,12.1183448 26.8965517,12.4137931 L26.8965517,17.5862069 C26.8965517,17.8816552 26.6747586,18.1034483 26.3793103,18.1034483 L3.62068966,18.1034483 C3.32524138,18.1034483 3.10344828,17.8816552 3.10344828,17.5862069 L3.10344828,12.4137931 C3.10344828,12.1183448 3.32524138,11.8965517 3.62068966,11.8965517 Z M4.13793103,12.6724138 C3.99506897,12.6724138 3.87931034,12.7881724 3.87931034,12.9310345 L3.87931034,16.0344828 C3.87724138,16.1773448 3.99144828,16.2947586 4.13431034,16.2967241 C4.27717241,16.2986897 4.39458621,16.1845862 4.39655172,16.0417241 L4.39655172,16.0343793 L4.39655172,13.1895517 L6.72413793,13.1895517 C6.867,13.1916207 6.98441379,13.0774138 6.98637931,12.9345517 C6.98844828,12.7916897 6.87424138,12.6742759 6.73137931,12.6723103 L6.72403448,12.6723103 L4.13793103,12.6723103 L4.13793103,12.6724138 Z M9.82758621,14.4827586 C9.54196552,14.4787241 9.30703448,14.7070345 9.303,14.9926552 C9.29896552,15.2782759 9.52727586,15.5132069 9.81289655,15.5172414 C9.81775862,15.5173448 9.82262069,15.5173448 9.82748276,15.5172414 L20.1723103,15.5172414 C20.457931,15.5212759 20.6928621,15.2929655 20.6968966,15.0073448 C20.700931,14.7217241 20.4726207,14.4867931 20.187,14.4827586 C20.1821379,14.4826552 20.1772759,14.4826552 20.1724138,14.4827586 L9.82758621,14.4827586 Z M3.62068966,19.6551724 C2.76993103,19.6551724 2.06896552,20.3561379 2.06896552,21.2068966 L2.06896552,26.3793103 C2.06896552,27.230069 2.76993103,27.9310345 3.62068966,27.9310345 L26.3793103,27.9310345 C27.230069,27.9310345 27.9310345,27.230069 27.9310345,26.3793103 L27.9310345,21.2068966 C27.9310345,20.3561379 27.230069,19.6551724 26.3793103,19.6551724 L3.62068966,19.6551724 Z M3.62068966,20.6896552 L26.3793103,20.6896552 C26.6747586,20.6896552 26.8965517,20.9114483 26.8965517,21.2068966 L26.8965517,26.3793103 C26.8965517,26.6747586 26.6747586,26.8965517 26.3793103,26.8965517 L3.62068966,26.8965517 C3.32524138,26.8965517 3.10344828,26.6747586 3.10344828,26.3793103 L3.10344828,21.2068966 C3.10344828,20.9114483 3.32524138,20.6896552 3.62068966,20.6896552 Z M4.13793103,21.4655172 C3.99506897,21.4655172 3.87931034,21.5812759 3.87931034,21.7241379 L3.87931034,24.8275862 C3.87724138,24.9704483 3.99144828,25.0878621 4.13431034,25.0898276 C4.27717241,25.0917931 4.39458621,24.9776897 4.39655172,24.8348276 L4.39655172,24.8274828 L4.39655172,21.9826552 L6.72413793,21.9826552 C6.867,21.9847241 6.98441379,21.8705172 6.98637931,21.7276552 C6.98844828,21.5847931 6.87424138,21.4673793 6.73137931,21.4654138 L6.72403448,21.4654138 L4.13793103,21.4654138 L4.13793103,21.4655172 Z M9.82758621,23.2758621 C9.54196552,23.2718276 9.30703448,23.5001379 9.303,23.7857586 C9.29896552,24.0713793 9.52727586,24.3063103 9.81289655,24.3103448 C9.81775862,24.3104483 9.82262069,24.3104483 9.82748276,24.3103448 L20.1723103,24.3103448 C20.457931,24.3143793 20.6928621,24.086069 20.6968966,23.8004483 C20.700931,23.5148276 20.4726207,23.2798966 20.187,23.2758621 C20.1821379,23.2757586 20.1772759,23.2757586 20.1724138,23.2758621 L9.82758621,23.2758621 Z" id="rect33426"></path>
            </g>
        </g>
    </g>
</svg>