<?xml version="1.0" encoding="UTF-8"?>
<svg width="50px" height="50px" viewBox="0 0 50 50" version="1.1" xmlns="http://www.w3.org/2000/svg" xmlns:xlink="http://www.w3.org/1999/xlink">
    <!-- Generator: Sketch 43.2 (39069) - http://www.bohemiancoding.com/sketch -->
    <title>design</title>
    <desc>Created with Sketch.</desc>
    <defs></defs>
    <g id="icons" stroke="none" stroke-width="1" fill="none" fill-rule="evenodd">
        <g id="design">
            <rect id="Rectangle-3" stroke="#BBBBBB" stroke-width="0.5" x="0.25" y="0.25" width="49.5" height="49.5" rx="2"></rect>
            <g id="paint-brush-(1)" transform="translate(10.000000, 10.000000)" fill-rule="nonzero">
                <path d="M28.8038521,10.3115294 C29.5003307,12.0504118 29.8832685,13.9505882 29.8832685,15.9412353 C29.8832685,22.7457059 25.4056809,28.4953529 19.2587743,30.3615882 C17.8921984,30.7766471 16.4423346,31 14.9416926,31 C14.461284,31 13.9869455,30.9773529 13.5185603,30.9321765 C10.7322957,30.6675294 8.16939689,29.6308824 6.04085603,28.0375882 C2.96784047,25.7375882 0.801712062,22.2758235 0.182042802,18.2968235 C0.0621011673,17.5292941 0,16.7425882 0,15.9411176 C0,14.925 0.100038911,13.9322941 0.290661479,12.9726471 C1.46708171,7.03752941 6.10680934,2.36141176 11.9962646,1.17529412 C12.9484436,0.983176471 13.9333658,0.882352941 14.9415759,0.882352941 C15.736751,0.882352941 16.5173346,0.944941176 17.2788911,1.06576471 C18.674358,1.28652941 20.0060311,1.70205882 21.2450195,2.284 C22.389572,2.82117647 23.4550973,3.50052941 24.4198249,4.29982353 C26.3401751,5.88923529 27.8598444,7.95194118 28.8038521,10.3115294 Z" id="Shape" fill="#444444"></path>
                <g id="Group" transform="translate(0.000000, 0.882353)" fill="#BBBBBB">
                    <path d="M19.2302918,21.6855294 C19.9448638,22.4057059 19.9444553,23.5735294 19.2302918,24.2932353 L13.5185019,30.0498235 C10.7322374,29.7851765 8.16933852,28.7485294 6.04079767,27.1552353 L9.41737354,23.7521765 C10.1319455,23.032 11.2902724,23.032 12.004786,23.7521765 C12.719358,24.4723529 13.8776848,24.4723529 14.5917899,23.7525882 L16.6427626,21.6855294 C16.9998444,21.3256471 17.4681712,21.1457647 17.9364981,21.1457647 C18.4044747,21.1452941 18.8728016,21.3252353 19.2302918,21.6855294 Z" id="Shape"></path>
                    <path d="M17.2789494,0.183411765 L11.1963619,6.31376471 C10.4817899,7.03394118 9.32346304,7.03394118 8.60894942,6.31376471 C8.2518677,5.95388235 8.07338521,5.48188235 8.07379377,5.01035294 C8.07379377,4.53835294 8.25227626,4.06635294 8.60935798,3.70647059 L11.996323,0.292941176 C12.9484436,0.100823529 13.9333658,0 14.9415759,0 C15.7368093,0 16.517393,0.0625882353 17.2789494,0.183411765 Z" id="Shape"></path>
                    <path d="M24.4198249,3.41747059 L20.0254669,7.84629412 C19.3108949,8.56647059 18.1525681,8.56647059 17.4380545,7.84629412 C17.0809728,7.48641176 16.9024903,7.01441176 16.9024903,6.54241176 C16.9024903,6.07041176 17.0809728,5.59841176 17.4380545,5.23852941 L21.2450195,1.40170588 C22.389572,1.93882353 23.4551556,2.61817647 24.4198249,3.41747059 Z" id="Shape"></path>
                    <path d="M15.853716,9.44305882 C16.5682879,10.1632353 16.5682879,11.3306471 15.853716,12.0507647 L5.76309339,22.2205294 C5.40560311,22.5808235 4.93727626,22.7607647 4.46935798,22.7602941 C4.00103113,22.7602941 3.53270428,22.5804118 3.17562257,22.2205294 C2.46105058,21.5003529 2.46105058,20.3329412 3.17562257,19.6128235 L3.69309339,19.0912941 C4.05058366,18.731 4.22912451,18.259 4.22865759,17.7874118 C4.22865759,17.3154118 4.0501751,16.8434118 3.69309339,16.4835294 C2.9785214,15.7633529 1.82019455,15.7633529 1.10568093,16.4835294 L0.181984436,17.4145294 C0.0621011673,16.6469412 0,15.8602353 0,15.0587647 C0,14.0426471 0.100038911,13.0499412 0.290661479,12.0902941 L3.95188716,8.40035294 C4.30896887,8.04047059 4.77729572,7.86058824 5.24562257,7.86058824 C5.71354086,7.86017647 6.18180934,8.04005882 6.53889105,8.39994118 C7.25346304,9.12011765 7.25346304,10.2875294 6.53889105,11.0076471 L6.28009728,11.2684706 C5.56552529,11.9886471 5.56552529,13.1560588 6.28009728,13.8761765 C6.99466926,14.5963529 8.15299611,14.5963529 8.86750973,13.8761765 L13.2661868,9.443 C13.6232685,9.08311765 14.0915953,8.90323529 14.5599222,8.90323529 C15.0283074,8.90323529 15.4966342,9.08317647 15.853716,9.44305882 Z" id="Shape"></path>
                    <path d="M28.8038521,9.42917647 C29.5003307,11.1680588 29.8832685,13.0682353 29.8832685,15.0588824 C29.8832685,21.8633529 25.4056809,27.613 19.2587743,29.4792353 L28.5524708,20.1126471 C29.2670428,19.3924706 29.2670428,18.2250588 28.5528794,17.5053529 C27.8383074,16.7851765 26.6799805,16.7851765 25.9654669,17.5053529 L23.9606615,19.5258824 C23.2460895,20.2460588 22.0877626,20.2460588 21.373249,19.5258824 C21.0157588,19.1655882 20.8372179,18.6935882 20.8376848,18.222 C20.8376848,17.75 21.0161673,17.278 21.373249,16.9181176 L28.8038521,9.42917647 Z" id="Shape"></path>
                </g>
                <ellipse id="Oval" fill="#666666" transform="translate(19.926677, 10.145022) rotate(135.000000) translate(-19.926677, -10.145022) " cx="19.9266771" cy="10.1450224" rx="11.2451062" ry="2.94997171"></ellipse>
                <path d="M11.9750195,18.1587647 C13.1181128,19.3108235 17.6048638,16.6568235 21.9964786,12.2307647 C26.3880934,7.80470588 29.021323,3.28276471 27.8783463,2.13070588 C28.2890078,2.54458824 25.0617899,6.468 20.6702335,10.894 C16.2785603,15.3200588 12.3857393,18.5726471 11.9750195,18.1587647 Z" id="Shape" fill="#888888"></path>
                <path d="M11.5906809,16.6867647 C12.2952724,16.8674706 12.9016926,17.2995294 13.2944358,17.8537647 C14.9227237,20.1514118 11.8426459,22.8148824 9.84642023,22.9128824 C9.52651751,22.9294118 9.19873541,23.0306471 8.87754864,23.1895882 L8.87708171,23.1899412 C8.85951362,23.1988235 8.84188716,23.2077647 8.82431907,23.2165882 C8.76373541,23.2481176 8.70297665,23.2813529 8.64309339,23.3169412 C8.447393,23.4307059 8.25367704,23.5641765 8.06562257,23.7108235 C7.75891051,23.9494118 7.4655642,24.2219412 7.19562257,24.5002941 C6.68754864,25.0241765 5.81118677,24.5848235 5.92307393,23.8609412 C6.46494163,20.3564118 7.5686965,18.364 8.78171206,17.3818235 L8.78270428,17.3810588 C9.72338521,16.6189412 10.7303696,16.4653529 11.5906809,16.6867647 Z" id="Shape" fill="#E8E8E8"></path>
                <path d="M11.5906809,16.6867647 C12.2952724,16.8674706 12.9016926,17.2995294 13.2944358,17.8537647 C14.9227237,20.1514118 11.8426459,22.8148824 9.84642023,22.9128824 C9.52651751,22.9294118 9.19873541,23.0306471 8.87754864,23.1895882 C9.87636187,22.6188824 13.6382685,20.1713529 11.5906809,16.6867647 Z" id="Shape" fill="#D6D6D6"></path>
                <path d="M8.7816537,17.3822353 C7.38735409,18.5107647 6.13756809,20.9748235 5.7192607,25.5358235 C5.69643969,25.7847059 6.01062257,25.9098824 6.16155642,25.7115882 C6.60601167,25.1275294 7.29945525,24.3044118 8.07799611,23.7015882 C8.13081712,23.6607059 8.18398833,23.6208824 8.23745136,23.5822353 C8.24649805,23.5757059 8.25548638,23.5691765 8.26453307,23.5627647 C8.31998054,23.5231765 8.37577821,23.4847059 8.4318677,23.4477647 C8.43782101,23.4438235 8.44377432,23.4399412 8.44972763,23.4360588 C8.50593385,23.3993529 8.56254864,23.3642353 8.61933852,23.3305882 C8.62715953,23.326 8.63492218,23.3213529 8.64274319,23.3168235 C8.70250973,23.282 8.76245136,23.2485882 8.82262646,23.2174706 C8.82315175,23.2171765 8.82373541,23.2168824 8.82431907,23.2165294 L8.82437743,23.2164706 C9.1629572,23.042 9.50859922,22.9301765 9.8464786,22.9127059 L9.8464786,22.9127059 C10.0328988,22.489 10.369786,22.1492353 10.7930545,21.9681176 C10.9068093,21.9194118 11.0240661,21.8730588 11.1447082,21.8297647 C11.1447082,21.8297647 9.79079767,21.1685882 8.76793774,22.0377059 C8.76793774,22.0377059 9.32906615,19.9146471 11.0686576,18.9935882 C11.0686576,18.9935882 9.09875486,18.9899412 7.74087549,21.1908235 C7.74087549,21.191 7.29607004,19.2586471 8.7816537,17.3822353 Z" id="Shape" fill="#CCCCCC"></path>
                <path d="M11.5274708,15.6475294 L14.4668288,18.6099412 C14.7214202,18.8665294 14.7214202,19.2826471 14.4668288,19.5392941 L14.3744942,19.6323529 C14.1199027,19.8889412 13.7070233,19.8889412 13.4523735,19.6323529 L10.5130739,16.67 C10.2584825,16.4134118 10.2584825,15.9972941 10.5130739,15.7406471 L10.6054086,15.6475882 C10.8599416,15.3908235 11.2727626,15.3908235 11.5274708,15.6475294 Z" id="Shape" fill="#222222"></path>
                <path d="M13.6025486,18.7612941 L13.6025486,18.7612941 C13.3224514,19.0435882 12.8681907,19.0435882 12.5880934,18.7612941 L13.4061479,19.5857647 C13.6862451,19.8680588 14.1405058,19.8680588 14.4206031,19.5857647 L14.4206031,19.5857647 C14.7007004,19.3034706 14.7007004,18.8456471 14.4206031,18.5633529 L13.6025486,17.7388824 C13.8826459,18.0211765 13.8826459,18.4789412 13.6025486,18.7612941 Z" id="Shape" fill="#888888" opacity="0"></path>
                <path d="M12.5419261,14.6251176 L15.4812257,17.5875294 C15.7358171,17.8441176 15.7358171,18.2602353 15.4812257,18.5168824 L15.3888911,18.6099412 C15.1342996,18.8665294 14.7214202,18.8665294 14.4667704,18.6099412 L11.5274125,15.6475294 C11.272821,15.3909412 11.272821,14.9748235 11.5274125,14.7181765 L11.6197471,14.6251176 C11.8743969,14.3685294 12.2872179,14.3685294 12.5419261,14.6251176 Z" id="Shape" fill="#222222"></path>
                <path d="M14.6168872,17.7388824 L14.6168872,17.7388824 C14.3367899,18.0211765 13.8825292,18.0211765 13.6024319,17.7388824 L14.4204864,18.5633529 C14.7005837,18.8456471 15.1548444,18.8456471 15.4349416,18.5633529 L15.4349416,18.5633529 C15.7150389,18.2810588 15.7150389,17.8232353 15.4349416,17.5409412 L14.6168872,16.7164706 C14.8971012,16.9987647 14.8971012,17.4565294 14.6168872,17.7388824 Z" id="Shape" fill="#888888" opacity="0"></path>
            </g>
        </g>
    </g>
</svg>