<?xml version="1.0" encoding="UTF-8"?>
<svg width="50px" height="50px" viewBox="0 0 50 50" version="1.1" xmlns="http://www.w3.org/2000/svg" xmlns:xlink="http://www.w3.org/1999/xlink">
    <!-- Generator: Sketch 43.2 (39069) - http://www.bohemiancoding.com/sketch -->
    <title>ios</title>
    <desc>Created with Sketch.</desc>
    <defs></defs>
    <g id="icons" stroke="none" stroke-width="1" fill="none" fill-rule="evenodd">
        <g id="ios">
            <rect id="Rectangle-3" stroke="#BBBBBB" stroke-width="0.5" x="0.25" y="0.25" width="49.5" height="49.5" rx="2"></rect>
            <g id="apple" transform="translate(13.000000, 10.000000)" fill-rule="nonzero" fill="#444444">
                <path d="M16.69745,29.9998039 C15.8257,29.9998039 15.0234,29.7590196 14.3138,29.2846078 L14.2706,29.2541667 C14.25265,29.2408333 13.66485,28.8130392 12.66545,28.8130392 C12.0398,28.8130392 11.38505,28.982451 10.71815,29.3165196 C10.51575,29.4378922 9.5819,29.9531863 8.3894,29.9531863 C7.41135,29.9531863 6.5197,29.6210784 5.73925,28.9657843 C4.5035,27.9284314 0.43955,24.0402451 0.0367,17.5629902 C-0.14675,14.6136275 0.83365,11.7904412 2.7261,9.81754902 C4.44285,8.02740196 6.71775,7.22460784 8.89125,7.65098039 C8.94075,7.65813725 10.55605,7.92362745 12.13595,8.80539216 C12.9742,8.39377451 15.0559,7.50107843 17.3226,7.50107843 C20.03045,7.50107843 22.1355,8.78872549 23.40955,11.2241176 L23.69835,11.7765686 L23.1809,12.1344118 C23.15375,12.1529412 20.3726,14.1144118 20.38275,16.4865686 C20.3881,17.779902 21.24425,19.0195098 22.9285,20.1710784 C23.45615,20.5312745 23.81965,21.0913235 23.93175,21.7132843 C24.4739,23.6552451 20.73465,28.4056373 18.4942,29.6380882 L18.4393,29.6656863 C18.36275,29.700049 17.66185,29.9998039 16.69745,29.9998039 Z M15.14865,28.1144608 C15.60875,28.417598 16.12955,28.5708333 16.69745,28.5708333 C17.26775,28.5708333 17.7114,28.4138235 17.8177,28.3728922 C20.1266,27.0748039 22.7592,22.9044118 22.5311,22.0997549 L22.5025,21.9845588 C22.46125,21.7252451 22.3132,21.4915686 22.09625,21.3431373 C19.9975,19.9084314 18.93115,18.2743137 18.92675,16.4856373 C18.92045,14.0877941 20.86145,12.1710784 21.82195,11.3692647 C20.79495,9.75044118 19.28395,8.93004902 17.32265,8.93004902 C14.82635,8.93004902 12.49955,10.2305392 12.4762,10.2438725 L12.09325,10.4608333 L11.72,10.2272059 C10.2848,9.32784314 8.6481,9.05852941 8.6316,9.05612745 C8.31175,8.99377451 8.01275,8.9647549 7.7157,8.9647549 C6.3145,8.9647549 4.919,9.6152451 3.78665,10.7962745 C2.1918,12.4588725 1.33365,14.9556863 1.4899,17.4758333 C1.8578,23.3921569 5.56015,26.9352941 6.68625,27.8803922 C7.1954,28.3076961 7.7686,28.5247059 8.3894,28.5247059 C9.2684,28.5247059 9.9547,28.1007353 9.961,28.0969118 L10.0251,28.0597549 C10.90895,27.6115196 11.79715,27.3845588 12.6655,27.3845588 C14.07695,27.3845588 14.9637,27.9779412 15.14865,28.1144608 Z" id="path-1_37_"></path>
                <path d="M12.0156,7.64911765 C11.85545,7.64911765 11.6977,7.5972549 11.56905,7.49921569 C11.39675,7.36789216 11.29335,7.16754902 11.288,6.95387255 C11.2822,6.7545098 11.22295,2.04215686 17.21535,0.0383333333 C17.42455,-0.0316176471 17.6541,-0.00495098039 17.8405,0.110686275 C18.0264,0.226323529 18.1492,0.418578431 18.17395,0.633627451 C18.18075,0.688823529 18.7355,6.1629902 12.1777,7.63102941 C12.12385,7.64294118 12.06945,7.64911765 12.0156,7.64911765 Z M16.68335,1.78137255 C14.0303,2.98196078 13.1625,4.82637255 12.87955,5.94985294 C15.74705,4.96009804 16.4994,2.98196078 16.68335,1.78137255 Z" id="path-2_25_"></path>
            </g>
        </g>
    </g>
</svg>