<?xml version="1.0" encoding="UTF-8"?>
<svg width="50px" height="50px" viewBox="0 0 50 50" version="1.1" xmlns="http://www.w3.org/2000/svg" xmlns:xlink="http://www.w3.org/1999/xlink">
    <!-- Generator: Sketch 43.2 (39069) - http://www.bohemiancoding.com/sketch -->
    <title>operations</title>
    <desc>Created with Sketch.</desc>
    <defs></defs>
    <g id="icons" stroke="none" stroke-width="1" fill="none" fill-rule="evenodd">
        <g id="operations">
            <rect id="Rectangle-3" stroke="#BBBBBB" stroke-width="0.5" x="0.25" y="0.25" width="49.5" height="49.5" rx="2"></rect>
            <g id="employee" transform="translate(14.000000, 10.000000)" fill-rule="nonzero" fill="#444444">
                <path d="M22.5430547,29.1210938 L20.3508073,29.1210938 L20.5903307,20.6559375 C20.6277656,19.3314258 19.8522943,18.1276758 18.6146667,17.5892578 L16.0584922,16.477207 C16.0430391,16.4704688 16.0274062,16.4649023 16.0116536,16.4599805 L15.6507812,16.1583984 C17.4744896,15.6172852 18.8382578,14.9549414 18.9028854,14.9233594 C19.1237214,14.8153711 19.2133255,14.551875 19.1044948,14.3351367 C19.0953307,14.3169141 18.1909635,12.46875 18.1909635,8.42425781 L18.1909635,6.54544922 C18.1909635,2.93625 15.1894036,0 11.5,0 C7.81059635,0 4.80909635,2.93625 4.80909635,6.54544922 L4.80909635,8.42425781 C4.80909635,12.46875 3.90466927,14.3169141 3.89628385,14.3337305 C3.78529687,14.5508203 3.87526042,14.8147852 4.09717448,14.9233594 C4.16228125,14.9551758 5.52586979,15.6175195 7.34915885,16.1585156 L6.93947135,16.5008789 L4.4376224,17.5893164 C3.19999479,18.1276758 2.42452344,19.3314258 2.46195833,20.6559961 L2.70148177,29.1210938 L0.456945312,29.1210938 C0.208856771,29.1210938 0.0077265625,29.3178516 0.0077265625,29.5605469 C0.0077265625,29.8032422 0.208856771,30 0.456945312,30 L22.5430547,30 C22.7911432,30 22.9922734,29.8032422 22.9922734,29.5605469 C22.9922734,29.3178516 22.7911432,29.1210938 22.5430547,29.1210938 Z M5.70741406,6.54556641 C5.70753385,3.4209375 8.30599479,0.87890625 11.5,0.87890625 C14.6940052,0.87890625 17.292526,3.4209375 17.292526,6.54544922 L17.292526,8.42425781 C17.292526,11.6347852 17.835901,13.5288281 18.125138,14.3095313 C17.5276172,14.5739063 16.2799271,15.0891797 14.832125,15.4743164 L14.6725625,15.3410156 C14.5828984,15.2660742 14.4668203,15.2295117 14.3499036,15.2373633 L14.3499036,14.1447656 C15.1913802,13.6115039 15.8773073,12.8432227 16.2992135,11.9083594 C16.5461641,11.3612695 16.6850026,10.7533594 16.7008151,10.1503711 C16.7527448,8.16837891 15.0145677,7.66634766 13.1742682,7.13484375 C11.6326094,6.68958984 9.88520833,6.18498047 8.45232031,4.82144531 C8.27442969,4.65222656 7.99010417,4.65609375 7.817125,4.83 C7.64414583,5.00402344 7.64803906,5.28222656 7.82586979,5.45144531 C9.41796094,6.96638672 11.359724,7.5271875 12.9198906,7.97783203 C14.8899844,8.54677734 15.8355,8.87583984 15.8026771,10.1278125 C15.7898594,10.6173047 15.677375,11.1102539 15.4773229,11.5533984 C14.7816328,13.0948828 13.220388,14.090918 11.5,14.090918 C9.40190885,14.090918 7.60407552,12.6261328 7.22511458,10.6080469 C7.14042187,10.156875 6.71342448,9.82945313 6.25348437,9.86238281 C6.20317187,9.86601563 6.15172135,9.86167969 6.09997135,9.84972656 C5.87626042,9.79792969 5.70747396,9.5625 5.70747396,9.30210938 L5.70747396,8.94164063 C5.70747396,8.67486328 5.88590365,8.44306641 6.12255208,8.40246094 C6.31751302,8.36894531 6.50492708,8.43925781 6.62352083,8.59054688 C6.70953125,8.70023438 6.82405208,8.77863281 6.9546849,8.81724609 C7.14605208,8.87378906 7.357125,8.84068359 7.51944271,8.72859375 C7.91235937,8.45730469 8.2454401,8.113125 8.50934115,7.70566406 C8.64213021,7.50064453 8.57995833,7.22917969 8.37038281,7.09921875 C8.16080729,6.96931641 7.8833099,7.03019531 7.75046094,7.23515625 C7.58988021,7.48306641 7.39641667,7.69962891 7.17372396,7.88109375 C6.85304167,7.59123047 6.40963281,7.46080078 5.96718229,7.53673828 C5.87691927,7.55226563 5.79025,7.576875 5.70741406,7.60875 L5.70741406,6.54556641 L5.70741406,6.54556641 Z M9.54847396,16.1867578 L9.54847396,14.6010938 C10.1545599,14.8389258 10.8137135,14.969707 11.4999401,14.969707 C12.1813151,14.969707 12.8416068,14.8395117 13.4514062,14.5998633 L13.4514062,16.1866992 L12.0955443,18.0312891 C12.093987,18.0333984 12.0927292,18.0356836 12.0911719,18.0378516 C12.0896745,18.0399609 12.0879375,18.0418945 12.0864401,18.0440625 L11.5256953,18.8668945 C11.5224609,18.8716406 11.5165312,18.8803711 11.4999401,18.8803711 C11.483349,18.8803711 11.4774193,18.8716406 11.4741849,18.8668945 L10.9134401,18.0440625 C10.9119427,18.0418945 10.9102057,18.0399609 10.9087083,18.0378516 C10.907151,18.0356836 10.9059531,18.0333984 10.9043359,18.0312891 L9.54847396,16.1867578 Z M9.91797135,18.194707 L9.27019792,18.6699609 C9.14860937,18.7591992 8.99407812,18.7907813 8.84613542,18.7566211 C8.6982526,18.7224609 8.57438802,18.6266016 8.50646615,18.4936523 L7.73782292,16.989668 L8.53964844,16.3195898 L9.91797135,18.194707 Z M14.4604115,16.3195898 L15.2622969,16.989668 L14.4935937,18.4936523 C14.425612,18.6266602 14.3018073,18.7224609 14.1539245,18.7566211 C14.0059818,18.7907813 13.8514505,18.7591992 13.729862,18.6700195 L13.0820885,18.194707 L14.4604115,16.3195898 Z M4.87486198,14.3095898 C5.09114583,13.7258789 5.44938281,12.5194922 5.61643229,10.6061133 C5.7040599,10.6483594 5.79617969,10.6825195 5.89303125,10.7049609 C6.03240885,10.7371875 6.17394271,10.7487891 6.31361979,10.7392969 C6.32398177,10.7433984 6.33901562,10.7582227 6.34147135,10.7667773 C6.61034375,12.1988086 7.47164583,13.3993945 8.65009635,14.1460547 L8.65009635,15.2373633 C8.53311979,15.2295117 8.41710156,15.2660742 8.3274375,15.3410156 L8.1679349,15.4743164 C6.72001302,15.0891211 5.47226302,14.5739063 4.87486198,14.3095898 Z M4.8026276,18.3923437 L6.96858073,17.4500391 L7.70284375,18.8866992 C7.89031771,19.2534375 8.23178385,19.5178125 8.63967448,19.6119727 C8.74742708,19.636875 8.8564375,19.6491211 8.96478906,19.6491211 C9.26648437,19.6491211 9.56248958,19.5541406 9.80926042,19.3731445 L10.4294219,18.9181055 L10.7268047,19.3544531 C10.8995443,19.6079883 11.1886016,19.7593359 11.5000599,19.7593359 C11.8115182,19.7593359 12.1005755,19.6079883 12.2733151,19.3544531 L12.570638,18.9181055 L13.1907995,19.3731445 C13.4375703,19.5541406 13.7335755,19.6491211 14.0352708,19.6491211 C14.1435625,19.6491211 14.2526328,19.636875 14.3603854,19.6119727 C14.7683359,19.5178125 15.1097422,19.2534375 15.2972161,18.8866992 L16.0410026,17.4314648 L18.2497214,18.3923437 C18.4232396,18.4678125 18.5841198,18.5613281 18.7309245,18.6697852 L17.0980443,20.666543 L5.95442448,20.666543 L4.32148437,18.6697852 C4.46822917,18.5613867 4.62910937,18.4678711 4.8026276,18.3923437 Z M4.38605208,22.1218945 L4.7595026,28.6975781 C4.76794792,28.846582 4.80077083,28.9887891 4.85341927,29.1210938 L3.60033854,29.1210938 L3.36003646,20.6316211 C3.34673958,20.161875 3.47383854,19.7131641 3.71126562,19.3306055 L4.99998437,20.9064258 C4.91678906,20.9617383 4.83922396,21.0256055 4.76938542,21.0978516 C4.50434635,21.3719531 4.36460937,21.7451953 4.38605208,22.1218945 Z M17.7170677,22.0732031 L17.3436172,28.6489453 C17.3285833,28.9137305 17.1044531,29.1211523 16.8333646,29.1211523 L6.16669531,29.1211523 L6.16669531,29.1210938 C5.89560677,29.1210938 5.67147656,28.9136719 5.65644271,28.6488867 L5.28299219,22.0731445 C5.27514583,21.9345703 5.3245,21.8027344 5.42201042,21.7018945 C5.51952083,21.6010547 5.65135156,21.5455664 5.79324479,21.5455664 L17.2068151,21.5455664 C17.3487083,21.5455664 17.4805391,21.6010547 17.5780495,21.7018945 C17.6755599,21.8027344 17.7249141,21.9345703 17.7170677,22.0732031 Z M19.4520104,29.1210938 L18.1467005,29.1210938 C18.199349,28.9887891 18.2321719,28.846582 18.2406172,28.6976367 L18.6140677,22.1219531 C18.6354505,21.7451953 18.4957135,21.3719531 18.2307344,21.0978516 C18.1702995,21.0353906 18.1040547,20.9793164 18.0335573,20.9294531 L19.3410833,19.3305469 C19.5784505,19.7131641 19.7055495,20.1619336 19.6922526,20.6316211 L19.4520104,29.1210938 Z" id="Shape"></path>
                <path d="M11.5,23.9544141 C10.5904219,23.9544141 9.85040885,24.6782812 9.85040885,25.5681445 C9.85040885,26.4580078 10.590362,27.181875 11.5,27.181875 C12.409638,27.181875 13.1495911,26.4580078 13.1495911,25.5681445 C13.1495911,24.6782812 12.4095781,23.9544141 11.5,23.9544141 Z M11.5,26.3029102 C11.0858203,26.3029102 10.7488464,25.9732617 10.7488464,25.5680859 C10.7488464,25.1629102 11.0857604,24.8332617 11.5,24.8332617 C11.9142396,24.8332617 12.2511536,25.1629102 12.2511536,25.5680859 C12.2511536,25.9732617 11.9141797,26.3029102 11.5,26.3029102 Z" id="Shape"></path>
            </g>
        </g>
    </g>
</svg>