<?xml version="1.0" encoding="UTF-8"?>
<svg width="50px" height="50px" viewBox="0 0 50 50" version="1.1" xmlns="http://www.w3.org/2000/svg" xmlns:xlink="http://www.w3.org/1999/xlink">
    <!-- Generator: Sketch 43.2 (39069) - http://www.bohemiancoding.com/sketch -->
    <title>product_management</title>
    <desc>Created with Sketch.</desc>
    <defs></defs>
    <g id="icons" stroke="none" stroke-width="1" fill="none" fill-rule="evenodd">
        <g id="product_management">
            <rect id="Rectangle-3" stroke="#BBBBBB" stroke-width="0.5" x="0.25" y="0.25" width="49.5" height="49.5" rx="2"></rect>
            <g id="management" transform="translate(10.000000, 10.000000)" fill-rule="nonzero" fill="#444444">
                <path d="M29.5,7.5 L14,7.5 L8,7.5 L0.5,7.5 C0.2,7.5 0,7.7 0,8 L0,29.5 C0,29.8 0.2,30 0.5,30 L29.5,30 C29.8,30 30,29.8 30,29.5 L30,8 C30,7.7 29.8,7.5 29.5,7.5 Z M13.5,8.5 L13.5,15.5 L8.5,15.5 L8.5,8.5 L13.5,8.5 Z M29,29 L21.5,29 L21.5,24 L20.5,24 L20.5,29 L1,29 L1,8.5 L7.5,8.5 L7.5,16 C7.5,16.3 7.7,16.5 8,16.5 L14,16.5 C14.3,16.5 14.5,16.3 14.5,16 L14.5,8.5 L20.5,8.5 L20.5,16.5 L21.5,16.5 L21.5,8.5 L29,8.5 L29,29 Z" id="Shape"></path>
                <rect id="Rectangle-path" x="3.5" y="24.5" width="4.5" height="1"></rect>
                <rect id="Rectangle-path" x="3.5" y="26.5" width="9" height="1"></rect>
                <rect id="Rectangle-path" x="23" y="10" width="3" height="1"></rect>
                <rect id="Rectangle-path" x="23" y="12" width="4.5" height="1"></rect>
                <rect id="Rectangle-path" x="24.5" y="26.5" width="3" height="1"></rect>
                <rect id="Rectangle-path" x="23" y="24.5" width="4.5" height="1"></rect>
                <path d="M29.5,0 L0.5,0 C0.2,0 0,0.2 0,0.5 L0,5 C0,5.3 0.2,5.5 0.5,5.5 L29.5,5.5 C29.8,5.5 30,5.3 30,5 L30,0.5 C30,0.2 29.8,0 29.5,0 Z M29,4.5 L1,4.5 L1,1 L4.5,1 L4.5,3 L5.5,3 L5.5,1 L9.5,1 L9.5,3 L10.5,3 L10.5,1 L14.5,1 L14.5,3 L15.5,3 L15.5,1 L19.5,1 L19.5,3 L20.5,3 L20.5,1 L24.5,1 L24.5,3 L25.5,3 L25.5,1 L29,1 L29,4.5 Z" id="Shape"></path>
                <path d="M23.65,22.5 C23.75,22.5 23.8,22.45 23.9,22.4 L27.2,21 C27.4,20.95 27.5,20.75 27.5,20.55 C27.5,20.35 27.4,20.2 27.2,20.1 L23.9,18.7 C23.8,18.6 23.7,18.55 23.55,18.55 L3.55,18.55 C3.25,18.55 3.05,18.75 3.05,19.05 L3.05,22.05 C3.05,22.35 3.25,22.55 3.55,22.55 L23.55,22.55 C23.55,22.5 23.6,22.5 23.65,22.5 Z M7.5,21 L23,21 L23,21.5 L7.5,21.5 L7.5,21 Z M24,21.25 L24,19.75 L25.75,20.5 L24,21.25 Z M23,20 L7.5,20 L7.5,19.5 L23,19.5 L23,20 Z M4,19.5 L6.5,19.5 L6.5,21.5 L4,21.5 L4,19.5 Z" id="Shape"></path>
            </g>
        </g>
    </g>
</svg>