<?xml version="1.0" encoding="UTF-8"?>
<svg width="50px" height="50px" viewBox="0 0 50 50" version="1.1" xmlns="http://www.w3.org/2000/svg" xmlns:xlink="http://www.w3.org/1999/xlink">
    <!-- Generator: Sketch 43.2 (39069) - http://www.bohemiancoding.com/sketch -->
    <title>uiux</title>
    <desc>Created with Sketch.</desc>
    <defs></defs>
    <g id="icons" stroke="none" stroke-width="1" fill="none" fill-rule="evenodd">
        <g id="uiux">
            <rect id="Rectangle-3" stroke="#BBBBBB" stroke-width="0.5" x="0.25" y="0.25" width="49.5" height="49.5" rx="2"></rect>
            <g id="color-wheel-black-and-white" transform="translate(10.000000, 10.000000)" fill-rule="nonzero" fill="#000000">
                <path d="M0.582475248,11.2184158 C0.618712871,11.2807921 0.679108911,11.3256436 0.749306931,11.3429703 L6.11881188,12.6667327 C6.14069307,12.6719802 6.16217822,12.6745545 6.18277228,12.6745545 C6.29841584,12.6745545 6.40415842,12.5994059 6.43891089,12.4842574 C6.81019802,11.2509901 7.46227723,10.0874257 8.32485149,9.11920792 C8.42039604,9.01168317 8.41405941,8.84821782 8.31069307,8.74871287 L4.3250495,4.92 C4.27257426,4.87039604 4.20415842,4.83782178 4.13138614,4.84564356 C4.05930693,4.84792079 3.99138614,4.8790099 3.94257426,4.93227723 C2.35633663,6.66158416 1.18554455,8.76366337 0.556039604,11.0113861 C0.536534653,11.0808911 0.545940594,11.1557426 0.582475248,11.2184158 Z M4.15326733,5.49693069 L7.75643564,8.95841584 C6.98108911,9.87841584 6.37960396,10.9515842 6.00316832,12.0877228 L1.14742574,10.890495 C1.74415842,8.91009901 2.77772277,7.0560396 4.15326733,5.49693069 Z" id="Shape"></path>
                <path d="M10.5482178,0.738613861 C8.33049505,1.42683168 6.26831683,2.64831683 4.58633663,4.27158416 C4.53336634,4.3219802 4.50465347,4.39188119 4.50465347,4.4639604 C4.50465347,4.53683168 4.53435644,4.60623762 4.58633663,4.65663366 L8.57534653,8.48712871 C8.62722772,8.5370297 8.69405941,8.56158416 8.7609901,8.56158416 C8.82574257,8.56158416 8.8909901,8.53811881 8.94217822,8.49108911 C9.88693069,7.62069307 11.029604,6.95188119 12.2486139,6.55712871 C12.3859406,6.51277228 12.4629703,6.36683168 12.4229703,6.22851485 L10.8853465,0.918811881 C10.8654455,0.84990099 10.8185149,0.791881188 10.7553465,0.757920792 C10.69,0.723960396 10.6173267,0.717227723 10.5482178,0.738613861 Z M11.8373267,6.13267327 C10.7173267,6.53059406 9.66405941,7.14633663 8.76673267,7.93 L5.15910891,4.4649505 C6.67643564,3.05683168 8.49465347,1.97990099 10.4477228,1.3319802 L11.8373267,6.13267327 Z" id="Shape"></path>
                <path d="M25.8230693,4.68267327 C25.7729703,4.63019802 25.7035644,4.60019802 25.6309901,4.60019802 C25.5579208,4.60019802 25.4880198,4.63019802 25.4384158,4.68267327 L21.6069307,8.67168317 C21.5094059,8.77316832 21.5072277,8.93326733 21.6022772,9.03742574 C22.4492079,9.96445545 23.080396,11.0379208 23.4782178,12.2281188 C23.5158416,12.3393069 23.619703,12.4105941 23.7324752,12.4105941 C23.7564356,12.4105941 23.7814851,12.4071287 23.8066337,12.399901 L29.1186139,10.8608911 C29.1875248,10.8407921 29.2460396,10.7935644 29.280495,10.730099 C29.3139604,10.6664356 29.3211881,10.5914851 29.2993069,10.5230693 C28.6092079,8.3529703 27.4072277,6.33316832 25.8230693,4.68267327 Z" id="Shape"></path>
                <path d="M0.334158416,11.9078218 C0.112277228,12.9442574 0,14.0065347 0,15.0659406 C0,16.3540594 0.164257426,17.6337624 0.487722772,18.870099 C0.506039604,18.939604 0.551386139,18.9991089 0.613762376,19.0346535 C0.654455446,19.0575248 0.69990099,19.0691089 0.745841584,19.0691089 C0.771188119,19.0691089 0.796237624,19.0660396 0.82019802,19.0591089 L6.1309901,17.520495 C6.26881188,17.480297 6.35079208,17.3393069 6.31633663,17.200396 C6.14524752,16.499703 6.05861386,15.7818812 6.05861386,15.0659406 C6.05861386,14.4887129 6.11524752,13.9076238 6.22693069,13.3382178 C6.25485149,13.1980198 6.16772277,13.0606931 6.02881188,13.0270297 L0.65980198,11.7042574 C0.590594059,11.6867327 0.515445545,11.6990099 0.453762376,11.7374257 C0.393168317,11.7754455 0.34980198,11.8368317 0.334158416,11.9078218 Z M0.801980198,12.289703 L5.65673267,13.4856436 C5.56841584,14.0085149 5.52356436,14.5390099 5.52356436,15.0658416 C5.52356436,15.7394059 5.59633663,16.4144554 5.73920792,17.0770297 L0.937524752,18.4686139 C0.670693069,17.359604 0.534653465,16.2156436 0.534653465,15.0659406 C0.534653465,14.1357426 0.624455446,13.2034653 0.801980198,12.289703 Z" id="Shape"></path>
                <path d="M4.57881188,25.6122772 C4.59920792,25.6133663 4.65009901,25.5977228 4.67564356,25.5709901 L8.50435644,21.5845545 C8.5539604,21.5323762 8.5539604,21.450396 8.50326733,21.3987129 C7.58950495,20.4619802 6.87683168,19.3170297 6.44267327,18.0874257 C6.41861386,18.0205941 6.34683168,17.9840594 6.27950495,18.0038614 L0.966237624,19.5425743 C0.931485149,19.5524752 0.902079208,19.5765347 0.885544554,19.6089109 C0.868316832,19.6406931 0.865148515,19.6783168 0.876435644,19.7127723 C1.59831683,21.9062376 2.84613861,23.9325743 4.48485149,25.5730693 C4.50930693,25.5986139 4.5429703,25.6122772 4.57881188,25.6122772 Z M6.23316832,18.2952475 C6.66891089,19.4757426 7.35336634,20.5758416 8.22217822,21.4916832 L4.57722772,25.2870297 C3.04772277,23.7263366 1.87366337,21.8205941 1.17376238,19.760396 L6.23316832,18.2952475 Z" id="Shape"></path>
                <path d="M19.2162376,0.667920792 C19.1462376,0.647821782 19.0710891,0.656138614 19.0074257,0.693267327 C18.9447525,0.72950495 18.8988119,0.78990099 18.8810891,0.861089109 L17.5570297,6.23425743 C17.5230693,6.37049505 17.6007921,6.50970297 17.7345545,6.55306931 C18.9415842,6.94049505 20.0318812,7.56782178 20.9774257,8.41782178 C21.0281188,8.46376238 21.0922772,8.48613861 21.1560396,8.48613861 C21.2265347,8.48613861 21.2964356,8.45851485 21.3486139,8.4039604 L25.1757426,4.41861386 C25.2259406,4.36693069 25.2530693,4.29712871 25.2509901,4.22564356 C25.2489109,4.15386139 25.2175248,4.0860396 25.1648515,4.03752475 C23.4719802,2.47564356 21.4143564,1.31059406 19.2162376,0.667920792 Z" id="Shape"></path>
                <path d="M18.3223762,0.436039604 C16.0719802,-0.0730693069 13.6846535,-0.0544554455 11.4374257,0.493267327 C11.3664356,0.51019802 11.3058416,0.555643564 11.269604,0.618811881 C11.2332673,0.681980198 11.2236634,0.757128713 11.2439604,0.827425743 L12.7837624,6.14287129 C12.8179208,6.25881188 12.9239604,6.33584158 13.0408911,6.33584158 C13.059703,6.33584158 13.0782178,6.33425743 13.0970297,6.33009901 C14.3470297,6.05970297 15.6387129,6.05831683 16.8855446,6.32564356 C17.0286139,6.35722772 17.1664356,6.26851485 17.2009901,6.12861386 L18.5230693,0.761188119 C18.5407921,0.691683168 18.5292079,0.617821782 18.4911881,0.556732673 C18.4528713,0.495247525 18.3928713,0.451980198 18.3223762,0.436039604 Z M16.7424752,5.75148515 C15.5811881,5.53485149 14.390297,5.53633663 13.2291089,5.75722772 L11.8357426,0.949207921 C13.8341584,0.503861386 15.9384158,0.488217822 17.9381188,0.89990099 L16.7424752,5.75148515 Z" id="Shape"></path>
                <path d="M12.070495,29.6419802 C13.030099,29.8340594 14.0161386,29.9312871 14.999802,29.9312871 C16.3064356,29.9312871 17.6059406,29.760495 18.8605941,29.4237624 C18.8956436,29.4143564 18.9248515,29.3913861 18.9425743,29.36 C18.960396,29.3291089 18.9645545,29.2920792 18.9540594,29.2577228 L17.4164356,23.950396 C17.3966337,23.880396 17.3245545,23.840198 17.2550495,23.8574257 C16.0291089,24.1706931 14.739505,24.2287129 13.4427723,24.0046535 C13.369703,23.9915842 13.3070297,24.0365347 13.289802,24.1049505 L11.9657426,29.4791089 C11.9571287,29.5141584 11.9628713,29.5516832 11.9826733,29.5824752 C12.0025743,29.6132673 12.0341584,29.6352475 12.070495,29.6419802 Z M13.520396,24.2887129 C14.7708911,24.4887129 16.009901,24.4333663 17.1956436,24.1477228 L18.6591089,29.200297 C16.5825743,29.7364356 14.3683168,29.8080198 12.2592079,29.4070297 L13.520396,24.2887129 Z" id="Shape"></path>
                <path d="M11.1792079,29.4352475 C11.190495,29.4378218 11.2021782,29.4394059 11.2133663,29.4394059 C11.2374257,29.4394059 11.2608911,29.4331683 11.2817822,29.4205941 C11.3127723,29.4022772 11.3347525,29.3726733 11.3433663,29.3376238 L12.6658416,23.9706931 C12.6830693,23.900198 12.6412871,23.8292079 12.5713861,23.809901 C11.310198,23.4605941 10.1606931,22.8538614 9.15584158,22.0070297 C9.10128713,21.9615842 9.02168317,21.9662376 8.97306931,22.0169307 L5.14178218,26.0065347 C5.11673267,26.0326733 5.10336634,26.0681188 5.1049505,26.1046535 C5.10653465,26.1411881 5.12237624,26.1751485 5.14980198,26.199703 C6.87742574,27.7279208 8.9619802,28.8468317 11.1792079,29.4352475 Z M9.08128713,22.2915842 C10.0584158,23.0935644 11.1658416,23.6783168 12.3756436,24.0312871 L11.1170297,29.1411881 C9.0329703,28.5668317 7.07287129,27.5153465 5.43267327,26.0909901 L9.08128713,22.2915842 Z" id="Shape"></path>
                <path d="M29.6727723,18.1866337 C29.8894059,17.1632673 29.9991089,16.1137624 29.9991089,15.0658416 C29.9991089,13.8331683 29.8482178,12.6040594 29.550099,11.4112871 C29.5322772,11.3407921 29.4868317,11.280198 29.4237624,11.2444554 C29.3615842,11.2087129 29.2858416,11.200099 29.2159406,11.2194059 L23.9016832,12.7586139 C23.7654455,12.7980198 23.6834653,12.9366337 23.7147525,13.0750495 C23.8651485,13.7315842 23.9407921,14.4014851 23.9407921,15.0658416 C23.9407921,15.6276238 23.8859406,16.1973267 23.7784158,16.7575248 C23.7522772,16.8969307 23.8389109,17.0331683 23.9768317,17.0677228 L29.3463366,18.3906931 C29.3682178,18.3959406 29.3891089,18.3985149 29.4109901,18.3985149 C29.460099,18.3985149 29.509703,18.3849505 29.5530693,18.3578218 C29.6147525,18.3193069 29.6576238,18.2576238 29.6727723,18.1866337 Z" id="Shape"></path>
                <path d="M19.6317822,29.1522772 C19.6505941,29.1621782 19.6719802,29.1673267 19.6933663,29.1673267 C19.7075248,29.1673267 19.7226733,29.1652475 19.7357426,29.160099 C21.8790099,28.4405941 23.8641584,27.2130693 25.4764356,25.6106931 C25.5019802,25.5855446 25.5160396,25.5506931 25.5160396,25.5150495 C25.5149505,25.4791089 25.5009901,25.4445545 25.4742574,25.420099 L21.4873267,21.5907921 C21.4361386,21.5406931 21.3546535,21.5406931 21.3024752,21.5907921 C20.3778218,22.4836634 19.3037624,23.1576238 18.1071287,23.5941584 C18.0413861,23.6181188 18.0059406,23.6892079 18.0246535,23.7565347 L19.5649505,29.070198 C19.5759406,29.1063366 19.5989109,29.1350495 19.6317822,29.1522772 Z M21.3955446,21.8717822 L25.1913861,25.5172277 C23.6585149,27.0115842 21.7944554,28.1648515 19.7832673,28.8618812 L18.3171287,23.8015842 C19.4615842,23.3665347 20.4959406,22.7181188 21.3955446,21.8717822 Z" id="Shape"></path>
                <path d="M26.0058416,25.1251485 C26.0090099,25.1251485 26.0126733,25.1251485 26.0158416,25.1245545 C26.0884158,25.1219802 26.1573267,25.090099 26.2053465,25.0353465 C27.7236634,23.33 28.8468317,21.2712871 29.4540594,19.0831683 C29.4727723,19.0137624 29.4634653,18.9390099 29.4269307,18.8769307 C29.390396,18.8142574 29.330297,18.7693069 29.259802,18.7520792 L23.8912871,17.4290099 C23.7477228,17.3945545 23.6119802,17.4755446 23.5707921,17.6123762 C23.2157426,18.8085149 22.6236634,19.8987129 21.8122772,20.8536634 C21.7208911,20.9606931 21.7287129,21.1214851 21.8305941,21.219604 L25.820099,25.0509901 C25.870099,25.0985149 25.9370297,25.1251485 26.0058416,25.1251485 Z" id="Shape"></path>
            </g>
        </g>
    </g>
</svg>