<?xml version="1.0" encoding="UTF-8"?>
<svg width="50px" height="50px" viewBox="0 0 50 50" version="1.1" xmlns="http://www.w3.org/2000/svg" xmlns:xlink="http://www.w3.org/1999/xlink">
    <!-- Generator: Sketch 43.2 (39069) - http://www.bohemiancoding.com/sketch -->
    <title>web</title>
    <desc>Created with Sketch.</desc>
    <defs></defs>
    <g id="icons" stroke="none" stroke-width="1" fill="none" fill-rule="evenodd">
        <g id="web">
            <rect id="Rectangle-3" stroke="#BBBBBB" stroke-width="0.5" x="0.25" y="0.25" width="49.5" height="49.5" rx="2"></rect>
            <g id="at" transform="translate(10.000000, 10.000000)" fill-rule="nonzero" fill="#444444">
                <path d="M14.9994175,8.93635922 C18.3428155,8.93635922 21.062767,11.6564563 21.062767,14.9997087 C21.062767,15.4821845 21.4540777,15.8734951 21.9365534,15.8734951 C22.4190291,15.8734951 22.8103398,15.4821845 22.8103398,14.9997087 C22.8103398,10.6928155 19.3063107,7.18878641 14.9994175,7.18878641 C10.6925243,7.18878641 7.18834951,10.6928155 7.18834951,14.9997087 C7.18834951,19.3066019 10.6923786,22.8106311 14.9992718,22.8106311 C17.7648058,22.8106311 20.3504854,21.3259223 21.747233,18.9358252 C21.9907282,18.5191748 21.8503398,17.9841262 21.4336893,17.7404854 C21.0171845,17.4972816 20.4819903,17.6375243 20.2383495,18.0540291 C19.1536893,19.9100971 17.146165,21.0630583 14.9991262,21.0630583 C11.6557282,21.0630583 8.9357767,18.3429612 8.9357767,14.9997087 C8.9357767,11.6564563 11.6560194,8.93635922 14.9994175,8.93635922 Z" id="Shape"></path>
                <path d="M29.9560194,13.8426699 C29.4084466,6.55252427 23.5007767,0.621990291 16.2144175,0.0474757282 C11.8099515,-0.299854369 7.50145631,1.28402913 4.3926699,4.39296117 C1.28373786,7.5018932 -0.300145631,11.8106796 0.047184466,16.2147087 C0.619660194,23.4739806 6.52529126,29.3796117 13.7844175,29.9519417 C14.184466,29.9835437 14.5830583,29.9989806 14.9806311,29.9989806 C18.9605825,29.9989806 22.7796117,28.4330097 25.606165,25.6066019 C25.9473786,25.2652427 25.9473786,24.7119903 25.606165,24.3709223 C25.2649515,24.0298544 24.711699,24.0295631 24.3704854,24.3707767 C21.6235922,27.1175243 17.8153398,28.5168932 13.9218932,28.2097573 C7.5107767,27.7042718 2.295,22.4884951 1.78936893,16.077233 C1.48237864,12.1837864 2.88160194,8.37524272 5.62834951,5.62864078 C8.37509709,2.8818932 12.1829126,1.48208738 16.0769417,1.78966019 C22.512233,2.2968932 27.7297573,7.53495146 28.2133981,13.9734466 C28.2796602,14.855534 28.2601456,15.741699 28.1555825,16.6073301 C28.0446117,17.5253883 27.4888835,18.3265049 26.6689806,18.75 C25.9269903,19.1334466 25.0933981,19.1319903 24.381699,18.7462136 C23.9574757,18.5158252 23.4269417,18.6735437 23.1971359,19.0979126 C22.9670388,19.5221359 23.124466,20.0525243 23.548835,20.2824757 C24.777233,20.9484466 26.2067476,20.9557282 27.4711165,20.3027184 C28.8056796,19.613301 29.7101942,18.3101942 29.8904854,16.8170388 C30.0087379,15.8385437 30.0307282,14.8379126 29.9560194,13.8426699 Z" id="Shape"></path>
            </g>
        </g>
    </g>
</svg>